<svg width="16" height="16" viewBox="0 0 16 16" fill="none" xmlns="http://www.w3.org/2000/svg">
  <path fill-rule="evenodd" clip-rule="evenodd" d="M6.39983 8.53333C8.75625 8.53333 10.6665 6.62308 10.6665 4.26667C10.6665 1.91025 8.75625 0 6.39983 0C4.04342 0 2.13317 1.91025 2.13317 4.26667C2.13317 6.62308 4.04342 8.53333 6.39983 8.53333ZM16 12.2544H14.8517C14.8021 12.0608 14.7253 11.8773 14.6235 11.7051L15.4347 10.8939L14.6805 10.1397L13.8645 10.9557C13.6933 10.8587 13.5104 10.7872 13.3205 10.7403V9.5744H12.2539V10.7397C12.0635 10.7861 11.8811 10.8581 11.7093 10.9552L10.8933 10.1392L10.1392 10.8933L10.9504 11.7045C10.8485 11.8763 10.7723 12.0603 10.7221 12.2539H9.57386V13.3205H10.7221C10.7717 13.5136 10.848 13.6971 10.9499 13.8693L10.1387 14.6805L10.8928 15.4347L11.704 14.6235C11.8757 14.7253 12.0597 14.8016 12.2533 14.8517V16H13.32V14.8517C13.5131 14.8021 13.6965 14.7259 13.8688 14.624L14.68 15.4352L15.4341 14.6811L14.6229 13.8699C14.7248 13.6981 14.8011 13.5141 14.8507 13.3211H16V12.2544ZM11.7141 12.7877C11.7141 12.5019 11.8261 12.2325 12.0293 12.0293C12.2325 11.8261 12.5019 11.7141 12.7877 11.7141C13.0731 11.7141 13.3424 11.8261 13.5456 12.0293C13.7488 12.2325 13.8608 12.5019 13.8608 12.7877C13.8608 13.0731 13.7488 13.3424 13.5456 13.5456C13.1387 13.952 12.4352 13.952 12.0293 13.5456C11.8261 13.3424 11.7141 13.0731 11.7141 12.7877ZM8.50827 14.3872L8.63147 14.6805L9.9504 16H0V13.8667C0 11.5627 1.22773 9.5456 3.05973 8.41814C3.9744 9.15574 5.136 9.6 6.4 9.6C7.664 9.6 8.8256 9.15574 9.7408 8.4176C10.0197 8.5888 10.2784 8.7872 10.5269 8.99787L8.63147 10.8933L8.50827 11.1872V14.3872Z" fill="#90BCF0"/>
</svg>
