<svg width="16" height="16" viewBox="0 0 16 16" fill="none" xmlns="http://www.w3.org/2000/svg">
<path d="M0.107595 9.30365C-0.0358651 8.44047 -0.0358651 7.55953 0.107595 6.69635C0.988958 6.71715 1.78074 6.29486 2.08866 5.55186C2.39658 4.80806 2.13505 3.94909 1.49682 3.34206C2.00581 2.62968 2.62897 2.00626 3.34112 1.49695C3.94896 2.13518 4.80793 2.39671 5.55173 2.08879C6.29553 1.78088 6.71701 0.988291 6.69542 0.107728C7.55912 -0.0359094 8.44061 -0.0359094 9.30432 0.107728C9.28272 0.989091 9.70501 1.78088 10.448 2.08879C11.1918 2.39671 12.0508 2.13518 12.6578 1.49695C13.3702 2.00595 13.9936 2.6291 14.5029 3.34126C13.8647 3.94909 13.6032 4.80806 13.9111 5.55186C14.219 6.29566 15.0116 6.71715 15.8921 6.69555C16.0358 7.55925 16.0358 8.44075 15.8921 9.30445C15.0108 9.28285 14.219 9.70514 13.9111 10.4481C13.6032 11.1919 13.8647 12.0509 14.5029 12.6579C13.9939 13.3703 13.3708 13.9937 12.6586 14.503C12.0508 13.8648 11.1918 13.6033 10.448 13.9112C9.70421 14.2191 9.28272 15.0117 9.30432 15.8923C8.44061 16.0359 7.55912 16.0359 6.69542 15.8923C6.71701 15.0109 6.29473 14.2191 5.55173 13.9112C4.80793 13.6033 3.94896 13.8648 3.34192 14.503C2.62955 13.9941 2.00612 13.3709 1.49682 12.6587C2.13505 12.0509 2.39658 11.1919 2.08866 10.4481C1.78074 9.70434 0.988158 9.28285 0.107595 9.30445V9.30365ZM7.99987 10.3994C8.63622 10.3994 9.2465 10.1466 9.69647 9.6966C10.1464 9.24663 10.3992 8.63635 10.3992 8C10.3992 7.36365 10.1464 6.75337 9.69647 6.3034C9.2465 5.85344 8.63622 5.60065 7.99987 5.60065C7.36352 5.60065 6.75323 5.85344 6.30327 6.3034C5.8533 6.75337 5.60051 7.36365 5.60051 8C5.60051 8.63635 5.8533 9.24663 6.30327 9.6966C6.75323 10.1466 7.36352 10.3994 7.99987 10.3994Z" fill="#6B7BC7"/>
</svg>
