<svg width="20" height="20" viewBox="0 0 20 20" fill="none" xmlns="http://www.w3.org/2000/svg">
<path fill-rule="evenodd" clip-rule="evenodd" d="M3 2C2.44772 2 2 2.44772 2 3V17C2 17.1818 2.04851 17.3522 2.13328 17.4991C2.17602 17.4253 2.22899 17.3557 2.29218 17.2925L13.2922 6.29254C13.6827 5.90201 14.3159 5.90201 14.7064 6.29254L18 9.58614V3C18 2.44772 17.5523 2 17 2H3ZM18 12.4146L13.9993 8.41386L4.41315 18H17C17.5523 18 18 17.5523 18 17V12.4146ZM0 3C0 1.34315 1.34315 0 3 0H17C18.6569 0 20 1.34315 20 3V17C20 18.6569 18.6569 20 17 20H3C1.34315 20 0 18.6569 0 17V3ZM6.50036 6.00036C6.22421 6.00036 6.00036 6.22421 6.00036 6.50036C6.00036 6.7765 6.22421 7.00036 6.50036 7.00036C6.7765 7.00036 7.00036 6.7765 7.00036 6.50036C7.00036 6.22421 6.7765 6.00036 6.50036 6.00036ZM4.00036 6.50036C4.00036 5.11964 5.11964 4.00036 6.50036 4.00036C7.88107 4.00036 9.00035 5.11964 9.00035 6.50036C9.00035 7.88107 7.88107 9.00035 6.50036 9.00035C5.11964 9.00035 4.00036 7.88107 4.00036 6.50036Z" fill="#E49635"/>
</svg>
