<svg width="106" height="108" viewBox="0 0 106 108" fill="none" xmlns="http://www.w3.org/2000/svg">
<path d="M4.44652 107.797C2.38135 107.245 0.755091 105.619 0.203057 103.553L0.686097 103.424C0.564808 102.971 0.5 102.493 0.5 102V100.545H0V94.7273H0.5V91.8182H0V86H0.5V83.0909H0V77.2727H0.5V74.3636H0V68.5455H0.5V65.6364H0V59.8182H0.5V56.9091H0V51.0909H0.5V48.1818H0V42.3636H0.5V39.4545H0V33.6364H0.5V30.7273H0V24.9091H0.5V22H0V16.1818H0.5V13.2727H0V7.45455H0.5V6C0.5 5.50674 0.564808 5.02939 0.686096 4.57564L0.203056 4.44652C0.755089 2.38135 2.38134 0.75509 4.44652 0.203056L4.57564 0.686097C5.02939 0.564808 5.50674 0.5 6 0.5H7.56669V0H13.8334V0.5H16.9667V0H23.2333V0.5H26.3667V0H32.6333V0.5H35.7667V0H42.0333V0.5H45.1667V0H51.4333V0.5H54.5667V0H60.8333V0.5H63.9667V0H70.2333V0.5H73.3667V0H79.6333V0.5H82.7667V0H89.0333V0.5H92.1667V0H98.4333V0.5H100C100.493 0.5 100.971 0.564808 101.424 0.686096L101.553 0.203056C103.619 0.755089 105.245 2.38134 105.797 4.44652L105.314 4.57564C105.435 5.02939 105.5 5.50674 105.5 6V7.45455H106V13.2727H105.5V16.1818H106V22H105.5V24.9091H106V30.7273H105.5V33.6364H106V39.4545H105.5V42.3636H106V48.1818H105.5V51.0909H106V56.9091H105.5V59.8182H106V65.6364H105.5V68.5455H106V74.3636H105.5V77.2727H106V83.0909H105.5V86H106V91.8182H105.5V94.7273H106V100.545H105.5V102C105.5 102.493 105.435 102.971 105.314 103.424L105.797 103.553C105.245 105.619 103.619 107.245 101.553 107.797L101.424 107.314C100.971 107.435 100.493 107.5 100 107.5H98.4333V108H92.1666V107.5H89.0333V108H82.7666V107.5H79.6333V108H73.3667V107.5H70.2333V108H63.9667V107.5H60.8333V108H54.5667V107.5H51.4333V108H45.1667V107.5H42.0333V108H35.7667V107.5H32.6333V108H26.3667V107.5H23.2333V108H16.9667V107.5H13.8333V108H7.56667V107.5H6C5.50674 107.5 5.02939 107.435 4.57564 107.314L4.44652 107.797Z" fill="#F5F5F5" stroke="#90BCF0" stroke-dasharray="3 6"/>
<path d="M29.8477 62L28.6035 58.8213H24.5977L23.3672 62H22.1914L26.1426 51.9648H27.1201L31.0508 62H29.8477ZM28.2412 57.7754L27.0791 54.6787C26.9287 54.2868 26.7738 53.806 26.6143 53.2363C26.514 53.6738 26.3704 54.1546 26.1836 54.6787L25.0078 57.7754H28.2412ZM37.3535 60.9951H37.292C36.7679 61.7562 35.984 62.1367 34.9404 62.1367C33.9606 62.1367 33.1973 61.8018 32.6504 61.1318C32.1081 60.4619 31.8369 59.5094 31.8369 58.2744C31.8369 57.0394 32.1104 56.0801 32.6572 55.3965C33.2041 54.7129 33.9652 54.3711 34.9404 54.3711C35.9567 54.3711 36.736 54.7402 37.2783 55.4785H37.3672L37.3193 54.9385L37.292 54.4121V51.3633H38.4268V62H37.5039L37.3535 60.9951ZM35.084 61.1865C35.8587 61.1865 36.4193 60.9769 36.7656 60.5576C37.1165 60.1338 37.292 59.4525 37.292 58.5137V58.2744C37.292 57.2126 37.1143 56.4561 36.7588 56.0049C36.4079 55.5492 35.8451 55.3213 35.0703 55.3213C34.4049 55.3213 33.8945 55.5811 33.5391 56.1006C33.1882 56.6156 33.0127 57.3447 33.0127 58.2881C33.0127 59.2451 33.1882 59.9674 33.5391 60.4551C33.89 60.9427 34.4049 61.1865 35.084 61.1865ZM45.9395 60.9951H45.8779C45.3538 61.7562 44.57 62.1367 43.5264 62.1367C42.5465 62.1367 41.7832 61.8018 41.2363 61.1318C40.694 60.4619 40.4229 59.5094 40.4229 58.2744C40.4229 57.0394 40.6963 56.0801 41.2432 55.3965C41.79 54.7129 42.5511 54.3711 43.5264 54.3711C44.5426 54.3711 45.3219 54.7402 45.8643 55.4785H45.9531L45.9053 54.9385L45.8779 54.4121V51.3633H47.0127V62H46.0898L45.9395 60.9951ZM43.6699 61.1865C44.4447 61.1865 45.0052 60.9769 45.3516 60.5576C45.7025 60.1338 45.8779 59.4525 45.8779 58.5137V58.2744C45.8779 57.2126 45.7002 56.4561 45.3447 56.0049C44.9938 55.5492 44.431 55.3213 43.6562 55.3213C42.9909 55.3213 42.4805 55.5811 42.125 56.1006C41.7741 56.6156 41.5986 57.3447 41.5986 58.2881C41.5986 59.2451 41.7741 59.9674 42.125 60.4551C42.4759 60.9427 42.9909 61.1865 43.6699 61.1865ZM61.04 62H59.7139L54.252 53.6123H54.1973C54.2702 54.5967 54.3066 55.499 54.3066 56.3193V62H53.2334V52.0059H54.5459L59.9941 60.3594H60.0488C60.0397 60.2363 60.0192 59.8421 59.9873 59.1768C59.9554 58.5068 59.944 58.0283 59.9531 57.7412V52.0059H61.04V62ZM66.7822 62.1367C65.6748 62.1367 64.7998 61.7995 64.1572 61.125C63.5192 60.4505 63.2002 59.514 63.2002 58.3154C63.2002 57.1077 63.4964 56.1484 64.0889 55.4375C64.6859 54.7266 65.4857 54.3711 66.4883 54.3711C67.4271 54.3711 68.1699 54.681 68.7168 55.3008C69.2637 55.916 69.5371 56.7295 69.5371 57.7412V58.459H64.376C64.3988 59.3385 64.6198 60.0062 65.0391 60.4619C65.4629 60.9176 66.0576 61.1455 66.8232 61.1455C67.6299 61.1455 68.4274 60.9769 69.2158 60.6396V61.6514C68.8148 61.8245 68.4342 61.9476 68.0742 62.0205C67.7188 62.098 67.2881 62.1367 66.7822 62.1367ZM66.4746 55.3213C65.873 55.3213 65.3923 55.5173 65.0322 55.9092C64.6768 56.3011 64.4671 56.8434 64.4033 57.5361H68.3203C68.3203 56.8206 68.1608 56.2738 67.8418 55.8955C67.5228 55.5127 67.0671 55.3213 66.4746 55.3213ZM77.5967 62L76.2227 57.6045C76.1361 57.3356 75.9743 56.7249 75.7373 55.7725H75.6826C75.5003 56.57 75.3408 57.1852 75.2041 57.6182L73.7891 62H72.4766L70.4326 54.5078H71.6221C72.1051 56.39 72.472 57.8232 72.7227 58.8076C72.9779 59.792 73.1237 60.4551 73.1602 60.7969H73.2148C73.265 60.5371 73.3447 60.2021 73.4541 59.792C73.568 59.3773 73.666 59.0492 73.748 58.8076L75.1221 54.5078H76.3525L77.6924 58.8076C77.9476 59.5915 78.1208 60.25 78.2119 60.7832H78.2666C78.2848 60.6191 78.3327 60.3662 78.4102 60.0244C78.4922 59.6826 78.9684 57.8438 79.8389 54.5078H81.0146L78.9434 62H77.5967ZM41.7559 75.918C41.7559 76.9297 41.4095 77.709 40.7168 78.2559C40.0286 78.7982 39.042 79.0693 37.7568 79.0693H36.5811V83H35.4189V73.0059H38.0098C40.5072 73.0059 41.7559 73.9766 41.7559 75.918ZM36.5811 78.0713H37.627C38.6569 78.0713 39.402 77.9049 39.8623 77.5723C40.3226 77.2396 40.5527 76.7064 40.5527 75.9727C40.5527 75.3118 40.3363 74.8197 39.9033 74.4961C39.4704 74.1725 38.7959 74.0107 37.8799 74.0107H36.5811V78.0713ZM48.8105 83V78.1533C48.8105 77.5426 48.6715 77.0869 48.3936 76.7861C48.1156 76.4854 47.6803 76.335 47.0879 76.335C46.2995 76.335 45.723 76.5492 45.3584 76.9775C44.9984 77.4059 44.8184 78.1077 44.8184 79.083V83H43.6836V72.3633H44.8184V75.583C44.8184 75.9704 44.8001 76.2917 44.7637 76.5469H44.832C45.0553 76.1868 45.3721 75.9043 45.7822 75.6992C46.1969 75.4896 46.6686 75.3848 47.1973 75.3848C48.1133 75.3848 48.7992 75.6035 49.2549 76.041C49.7152 76.474 49.9453 77.1644 49.9453 78.1123V83H48.8105ZM58.75 79.2471C58.75 80.4684 58.4424 81.4232 57.8271 82.1113C57.2119 82.7949 56.362 83.1367 55.2773 83.1367C54.6074 83.1367 54.0127 82.9795 53.4932 82.665C52.9736 82.3506 52.5726 81.8994 52.29 81.3115C52.0075 80.7236 51.8662 80.0355 51.8662 79.2471C51.8662 78.0257 52.1715 77.0755 52.7822 76.3965C53.3929 75.7129 54.2406 75.3711 55.3252 75.3711C56.3734 75.3711 57.2051 75.7197 57.8203 76.417C58.4401 77.1143 58.75 78.0576 58.75 79.2471ZM53.042 79.2471C53.042 80.2041 53.2334 80.9333 53.6162 81.4346C53.999 81.9359 54.5618 82.1865 55.3047 82.1865C56.0475 82.1865 56.6104 81.9382 56.9932 81.4414C57.3805 80.9401 57.5742 80.2087 57.5742 79.2471C57.5742 78.2946 57.3805 77.5723 56.9932 77.0801C56.6104 76.5833 56.043 76.335 55.291 76.335C54.5482 76.335 53.9876 76.5788 53.6094 77.0664C53.2311 77.554 53.042 78.2809 53.042 79.2471ZM63.166 82.2002C63.3665 82.2002 63.5602 82.1865 63.7471 82.1592C63.9339 82.1273 64.082 82.0954 64.1914 82.0635V82.9316C64.0684 82.9909 63.8861 83.0387 63.6445 83.0752C63.4076 83.1162 63.1934 83.1367 63.002 83.1367C61.5527 83.1367 60.8281 82.3734 60.8281 80.8467V76.3896H59.7549V75.8428L60.8281 75.3711L61.3066 73.7715H61.9629V75.5078H64.1367V76.3896H61.9629V80.7988C61.9629 81.25 62.07 81.5964 62.2842 81.8379C62.4984 82.0794 62.7923 82.2002 63.166 82.2002ZM72.1621 79.2471C72.1621 80.4684 71.8545 81.4232 71.2393 82.1113C70.624 82.7949 69.7741 83.1367 68.6895 83.1367C68.0195 83.1367 67.4248 82.9795 66.9053 82.665C66.3857 82.3506 65.9847 81.8994 65.7021 81.3115C65.4196 80.7236 65.2783 80.0355 65.2783 79.2471C65.2783 78.0257 65.5837 77.0755 66.1943 76.3965C66.805 75.7129 67.6527 75.3711 68.7373 75.3711C69.7855 75.3711 70.6172 75.7197 71.2324 76.417C71.8522 77.1143 72.1621 78.0576 72.1621 79.2471ZM66.4541 79.2471C66.4541 80.2041 66.6455 80.9333 67.0283 81.4346C67.4111 81.9359 67.974 82.1865 68.7168 82.1865C69.4596 82.1865 70.0225 81.9382 70.4053 81.4414C70.7926 80.9401 70.9863 80.2087 70.9863 79.2471C70.9863 78.2946 70.7926 77.5723 70.4053 77.0801C70.0225 76.5833 69.4551 76.335 68.7031 76.335C67.9603 76.335 67.3997 76.5788 67.0215 77.0664C66.6432 77.554 66.4541 78.2809 66.4541 79.2471Z" fill="#90BCF0"/>
<path d="M60.1 29.8V32.5H62.8V34.3H60.1V37H58.3V34.3H55.6V32.5H58.3V29.8H60.1ZM60.1072 19C60.6004 19 61 19.4005 61 19.8937V28.3078C60.4219 28.1036 59.8131 27.9995 59.2 28V20.8H44.8L44.8009 33.4L53.1637 25.0363C53.3185 24.881 53.5246 24.7877 53.7434 24.7737C53.9622 24.7598 54.1785 24.8263 54.3517 24.9607L54.4354 25.0372L57.6268 28.2322C56.929 28.4448 56.2814 28.7966 55.7233 29.2663C55.1651 29.7359 54.7078 30.3138 54.3789 30.965C54.0501 31.6161 53.8565 32.3272 53.8099 33.0552C53.7634 33.7832 53.8647 34.5131 54.1078 35.2009L43.8928 35.2C43.6559 35.1998 43.4288 35.1055 43.2614 34.9379C43.094 34.7703 43 34.5432 43 34.3063V19.8937C43.0016 19.6573 43.0962 19.4311 43.2633 19.2639C43.4303 19.0967 43.6564 19.0019 43.8928 19H60.1072ZM48.4 22.6C48.8774 22.6 49.3352 22.7896 49.6728 23.1272C50.0104 23.4648 50.2 23.9226 50.2 24.4C50.2 24.8774 50.0104 25.3352 49.6728 25.6728C49.3352 26.0104 48.8774 26.2 48.4 26.2C47.9226 26.2 47.4648 26.0104 47.1272 25.6728C46.7896 25.3352 46.6 24.8774 46.6 24.4C46.6 23.9226 46.7896 23.4648 47.1272 23.1272C47.4648 22.7896 47.9226 22.6 48.4 22.6Z" fill="#90BCF0"/>
</svg>
