<svg width="16" height="16" viewBox="0 0 16 16" fill="none" xmlns="http://www.w3.org/2000/svg">
  <path d="M7.9995 0C3.59272 0 -1.70195e-08 3.59093 0 8.0005C0 12.4101 3.59272 16 7.9995 16C12.4063 16 16 12.4101 16 8.0005C16 3.59093 12.4063 0 7.9995 0ZM7.9995 1.70661C9.43174 1.70661 10.7486 2.18038 11.8043 2.97932L2.98772 11.8183C2.18131 10.7604 1.70262 9.4382 1.70262 8.0005C1.70262 4.51563 4.50997 1.70661 7.9995 1.70661ZM13.0116 4.18237C13.8185 5.24034 14.2977 6.56254 14.2977 8.0005C14.2977 11.4854 11.489 14.2947 7.9995 14.2947C6.56717 14.2947 5.2502 13.8207 4.19471 13.0217L13.0116 4.18237Z" fill="#90BCF0"/>
</svg>
