<svg width="54" height="44" viewBox="0 0 54 44" fill="none" xmlns="http://www.w3.org/2000/svg">
  <path d="M32.4618 43.18H12.7054C6.55041 43.18 1.56104 38.1902 1.56104 32.0352V12.2788C1.56104 6.1242 6.55041 1.13443 12.7054 1.13443H32.4622C38.6168 1.13443 43.6066 6.1238 43.6066 12.2788V32.0356C43.6066 38.1902 38.6168 43.18 32.4618 43.18Z" fill="#FAAB3E"/>
  <path d="M17.7124 1.13443H12.7054C6.55041 1.13443 1.56104 6.1238 1.56104 12.2788V32.0356C1.56104 38.1902 6.55041 43.18 12.7054 43.18H32.4622C32.5914 43.18 32.7193 43.1744 32.8477 43.1704C19.3088 34.0358 14.4286 14.6198 17.7124 1.13443Z" fill="#F8931F"/>
  <path d="M51.5512 8.98498L28.0067 32.5294C26.6911 33.8451 25.1627 34.9292 23.4864 35.7361L18.9465 37.9215C16.8431 38.934 14.6393 36.7306 15.6518 34.6269L17.8372 30.0869C18.6442 28.4106 19.7283 26.8823 21.0439 25.5666L44.5884 2.02218C45.772 0.838515 47.6915 0.838515 48.8751 2.02218L51.5512 4.69821C52.7348 5.88227 52.7348 7.80132 51.5512 8.98498Z" fill="#FAAB3E"/>
  <path d="M31.2206 15.3905L21.0439 25.5668C19.7283 26.8824 18.6442 28.4108 17.8372 30.0871L15.6519 34.627C14.6394 36.7308 16.8427 38.9341 18.9465 37.9216L23.4864 35.7363C25.1627 34.9293 26.6911 33.8452 28.0067 32.5296L33.6147 26.9216C30.7731 23.5713 29.6786 19.9148 31.2206 15.3905Z" fill="#F8931F"/>
  <path d="M30.2289 24.1118C30.0322 24.1118 29.8358 24.037 29.6859 23.887C29.386 23.5871 29.386 23.1012 29.6859 22.8013L35.5398 16.9474C35.8397 16.6475 36.326 16.6475 36.6255 16.9474C36.9254 17.2473 36.9254 17.7332 36.6255 18.0331L30.7716 23.887C30.6216 24.037 30.4253 24.1118 30.2289 24.1118Z" fill="#6A96D7"/>
  <path d="M44.589 2.02218L41.9854 4.62583L48.9482 11.5886L51.5518 8.98498C52.7355 7.80132 52.7355 5.88187 51.5518 4.69821L48.8758 2.02218C47.6921 0.838515 45.7727 0.838515 44.589 2.02218Z" fill="#FF7BAC"/>
  <path d="M48.9492 11.5885L45.9677 14.5701L39.0049 7.60726L41.9864 4.62572L48.9492 11.5885Z" fill="#CCCCCC"/>
  <path d="M20.71 25.9151C19.5451 27.1504 18.5742 28.556 17.8372 30.0871L15.6519 34.627C14.6394 36.7308 16.8427 38.9342 18.9465 37.9217L23.4864 35.7363C25.0176 34.9993 26.4232 34.0284 27.6584 32.8635L20.71 25.9151Z" fill="#FEDCAA"/>
  <path d="M18.9465 37.9206L21.1403 36.8645C20.5561 36.0519 19.8743 35.2454 19.1009 34.4716C18.3275 33.6982 17.5205 33.0164 16.708 32.4322L15.6519 34.6259C14.6394 36.7297 16.8427 38.9331 18.9465 37.9206Z" fill="#4E5660"/>
  <path d="M42.2903 37.3493C41.932 37.1221 41.4577 37.2281 41.2306 37.5864C39.3135 40.6079 36.0353 42.4122 32.4619 42.4122H12.7052C6.9836 42.4122 2.32853 37.7571 2.32853 32.0352V13.6356C2.32853 13.2114 1.98463 12.8679 1.56075 12.8679C1.13687 12.8679 0.792969 13.2114 0.792969 13.6356V32.0352C0.792969 38.6037 6.13664 43.9478 12.7052 43.9478H32.4619C36.5639 43.9478 40.3268 41.8772 42.5274 38.4089C42.7542 38.0511 42.6482 37.5764 42.2903 37.3493ZM52.0939 4.15515L49.4178 1.47912C47.9367 -0.00205618 45.5266 -0.00205618 44.0454 1.47912L41.2674 4.25752C39.0104 1.77504 35.8477 0.366638 32.4619 0.366638H12.7052C9.96474 0.366638 7.28911 1.32037 5.17092 3.05147C3.08271 4.75858 1.62233 7.1427 1.05889 9.76515C0.969718 10.1798 1.23364 10.5881 1.64832 10.6773C1.70271 10.6885 1.75669 10.6945 1.81028 10.6945C2.16458 10.6945 2.48288 10.4482 2.56006 10.0879C3.05072 7.80451 4.32316 5.7279 6.14304 4.24033C7.98731 2.73276 10.3182 1.9022 12.7052 1.9022H32.4619C35.4351 1.9022 38.2111 3.14904 40.1805 5.34441L38.4606 7.06432L38.4602 7.06472L32.0156 13.5093H10.6062C10.1823 13.5093 9.83838 13.8528 9.83838 14.2771C9.83838 14.7009 10.1823 15.0448 10.6062 15.0448H30.4801L26.7991 18.7258H10.6062C10.1823 18.7258 9.83838 19.0693 9.83838 19.4936C9.83838 19.9174 10.1823 20.2613 10.6062 20.2613H25.2636L20.5009 25.024C19.1209 26.404 17.992 27.9955 17.1455 29.7542L14.9601 34.2937C14.3555 35.5506 14.6018 36.9998 15.5879 37.9855C16.215 38.6129 17.0295 38.9408 17.8625 38.9408C18.3391 38.9408 18.8222 38.8332 19.2797 38.6133L21.4818 37.5532C21.4822 37.5528 21.483 37.5524 21.4838 37.5524L23.8196 36.4279C25.5779 35.5814 27.1694 34.4525 28.5498 33.0725L42.8385 18.7834V32.0352C42.8385 32.8761 42.7378 33.7123 42.5394 34.5209C42.4378 34.9323 42.6898 35.3482 43.1017 35.4494C43.1632 35.4646 43.2248 35.4718 43.2856 35.4718C43.6307 35.4718 43.9442 35.2375 44.0302 34.8872C44.2585 33.959 44.3741 32.9993 44.3741 32.0352V17.2478L46.5083 15.1136C46.5087 15.1136 46.5087 15.1132 46.5087 15.1132C46.5091 15.1128 46.5091 15.1128 46.5091 15.1128L52.0939 9.52802C52.8117 8.81022 53.2068 7.85649 53.2068 6.84158C53.2068 5.82708 52.8117 4.87295 52.0939 4.15515ZM18.6135 37.2297C17.8125 37.6156 17.0859 37.3121 16.6736 36.8998C16.2613 36.4875 15.9582 35.7613 16.3437 34.9599L16.9919 33.6135C17.5322 34.0454 18.0568 34.5145 18.5579 35.0155C19.0589 35.5166 19.5276 36.0412 19.9599 36.5815L18.6135 37.2297ZM23.1534 35.0443L21.3767 35.8997C20.85 35.2167 20.2698 34.5557 19.6436 33.9298C19.0174 33.3036 18.3567 32.723 17.6737 32.1967L18.5291 30.42C19.1189 29.1944 19.8599 28.0583 20.7381 27.029L26.5444 32.8353C25.5151 33.7135 24.379 34.4545 23.1534 35.0443ZM27.6657 31.7848L21.7886 25.9077L32.8766 14.8197L39.0032 8.69345L44.8799 14.5702L27.6657 31.7848ZM45.966 13.4845L40.0889 7.60737L41.9848 5.71191L47.8619 11.5886L45.966 13.4845ZM51.0082 8.44193L48.9476 10.5029L43.0705 4.62582L45.1311 2.56521C45.5725 2.12374 46.152 1.9034 46.7318 1.9034C47.3112 1.9034 47.8911 2.12374 48.3322 2.56521L51.0082 5.24124C51.4357 5.66872 51.6712 6.23736 51.6712 6.84158C51.6712 7.44621 51.4357 8.01485 51.0082 8.44193ZM10.6062 9.82793H34.5609C34.9848 9.82793 35.3287 9.48443 35.3287 9.06015C35.3287 8.63627 34.9848 8.29237 34.5609 8.29237H10.6062C10.1823 8.29237 9.83838 8.63627 9.83838 9.06015C9.83838 9.48443 10.1823 9.82793 10.6062 9.82793Z" fill="black"/>
</svg>
