<svg width="24" height="24" viewBox="0 0 24 24" fill="none" xmlns="http://www.w3.org/2000/svg">
<path fill-rule="evenodd" clip-rule="evenodd" d="M21.8702 2.61605C20.9334 1.54335 19.2885 1.43301 18.1956 2.36901C18.1956 2.36901 12.7605 7.02309 10.875 8.63793C8.98927 10.2536 9.29109 13.3179 9.29109 13.3179C9.29109 13.3179 12.4061 14.1153 14.2648 12.5226C16.1241 10.9309 21.5854 6.25365 21.5854 6.25365C22.6783 5.31765 22.8062 3.68857 21.8702 2.61605Z" stroke="#4979B3" stroke-width="1.3" stroke-linecap="round" stroke-linejoin="round"/>
<path d="M16.7871 3.58789L20.1769 7.47252" stroke="#4979B3" stroke-width="1.3" stroke-linecap="round" stroke-linejoin="round"/>
<path fill-rule="evenodd" clip-rule="evenodd" d="M13.3493 2.88379H3.88867C2.23182 2.88379 0.888672 4.22693 0.888672 5.88379V20.9997C0.888672 22.6565 2.23182 23.9997 3.88867 23.9997H18.137C19.7939 23.9997 21.137 22.6565 21.137 20.9997V10.1652H19.637V20.9997C19.637 21.8281 18.9655 22.4997 18.137 22.4997H3.88867C3.06025 22.4997 2.38867 21.8281 2.38867 20.9997V5.88379C2.38867 5.05536 3.06024 4.38379 3.88867 4.38379H13.3493V2.88379Z" fill="#4979B3"/>
</svg>
