<svg width="16" height="16" viewBox="0 0 16 16" fill="none" xmlns="http://www.w3.org/2000/svg">
  <path fill-rule="evenodd" clip-rule="evenodd" d="M13.6 1.6C13.8122 1.6 14.0157 1.68429 14.1657 1.83431C14.3157 1.98434 14.4 2.18783 14.4 2.4V13.2686L12.5657 11.4343C12.4157 11.2843 12.2122 11.2 12 11.2H2.4C2.18783 11.2 1.98434 11.1157 1.83432 10.9657C1.68429 10.8157 1.6 10.6122 1.6 10.4V2.4C1.6 2.18783 1.68429 1.98434 1.83432 1.83431C1.98434 1.68429 2.18783 1.6 2.4 1.6H13.6ZM15.2971 0.702944C14.847 0.252856 14.2365 0 13.6 0H2.4C1.76348 0 1.15303 0.252856 0.702944 0.702944C0.252857 1.15303 0 1.76348 0 2.4V10.4C0 11.0365 0.252857 11.647 0.702944 12.0971C1.15303 12.5471 1.76348 12.8 2.4 12.8H11.6686L14.6343 15.7657C14.8631 15.9945 15.2072 16.0629 15.5061 15.9391C15.8051 15.8153 16 15.5236 16 15.2V2.4C16 1.76348 15.7471 1.15303 15.2971 0.702944ZM12.8 4.8C12.8 5.24183 12.4418 5.6 12 5.6H4C3.55817 5.6 3.2 5.24183 3.2 4.8C3.2 4.35817 3.55817 4 4 4H12C12.4418 4 12.8 4.35817 12.8 4.8ZM10.4 8.8C10.8418 8.8 11.2 8.44183 11.2 8C11.2 7.55817 10.8418 7.2 10.4 7.2H5.6C5.15817 7.2 4.8 7.55817 4.8 8C4.8 8.44183 5.15817 8.8 5.6 8.8H10.4Z" fill="#7C7D84"/>
</svg>
