<svg width="16" height="16" viewBox="0 0 16 16" fill="none" xmlns="http://www.w3.org/2000/svg">
<path fill-rule="evenodd" clip-rule="evenodd" d="M14.6517 3.55548C15.5308 4.87107 16 6.41779 16 8.00004C15.9933 10.1197 15.1483 12.1506 13.6494 13.6495C12.1506 15.1483 10.1197 15.9933 7.99999 16C6.41774 16 4.87103 15.5308 3.55543 14.6518C2.23984 13.7727 1.21446 12.5233 0.60896 11.0615C0.00345899 9.59969 -0.154968 7.99116 0.153714 6.43931C0.462395 4.88747 1.22432 3.46201 2.34314 2.34319C3.46196 1.22437 4.88742 0.46244 6.43927 0.153759C7.99112 -0.154923 9.59965 0.00350398 11.0615 0.609005C12.5233 1.21451 13.7727 2.23989 14.6517 3.55548ZM4.40201 13.3848C5.46702 14.0964 6.71912 14.4762 7.99999 14.4762C9.71552 14.4695 11.3589 13.7851 12.572 12.572C13.785 11.3589 14.4695 9.71557 14.4762 8.00004C14.4762 6.71917 14.0964 5.46706 13.3847 4.40206C12.6731 3.33706 11.6617 2.50699 10.4783 2.01682C9.29495 1.52665 7.99281 1.3984 6.73655 1.64829C5.48029 1.89817 4.32635 2.51497 3.42064 3.42068C2.51493 4.32639 1.89813 5.48034 1.64824 6.73659C1.39836 7.99285 1.52661 9.295 2.01678 10.4784C2.50694 11.6617 3.33701 12.6732 4.40201 13.3848ZM7.89839 7.03495L10.7936 4.2159C10.8646 4.14295 10.9495 4.08496 11.0433 4.04536C11.1371 4.00576 11.2379 3.98536 11.3397 3.98536C11.4415 3.98536 11.5422 4.00576 11.636 4.04536C11.7298 4.08496 11.8147 4.14295 11.8857 4.2159C12.0236 4.36586 12.0979 4.56341 12.0932 4.76706C12.0885 4.9707 12.005 5.16458 11.8603 5.30797L8.83807 8.254L10.7428 10.7937C10.8063 10.8724 10.8528 10.9633 10.8796 11.0607C10.9064 11.1582 10.9129 11.2601 10.8986 11.3601C10.8843 11.4602 10.8496 11.5563 10.7966 11.6423C10.7435 11.7284 10.6734 11.8026 10.5905 11.8603C10.4604 11.9628 10.2988 12.0167 10.1333 12.0127C10.015 12.0127 9.89837 11.9852 9.79258 11.9323C9.68678 11.8794 9.59476 11.8026 9.52379 11.708L7.72061 9.32066L5.20633 11.7842C5.06566 11.9277 4.87396 12.0099 4.673 12.0127C4.51854 12.0159 4.36678 11.972 4.23784 11.8869C4.1089 11.8018 4.00887 11.6795 3.95102 11.5363C3.89317 11.393 3.88023 11.2356 3.91392 11.0848C3.94761 10.9341 4.02634 10.7971 4.13966 10.6921L6.80633 8.10162L5.15553 5.94289C5.03429 5.78123 4.98223 5.57803 5.01081 5.378C5.03939 5.17796 5.14626 4.99746 5.30792 4.87622C5.38796 4.81619 5.47904 4.77251 5.57597 4.74768C5.67289 4.72285 5.77376 4.71735 5.87281 4.7315C5.97186 4.74565 6.06715 4.77917 6.15324 4.83015C6.23934 4.88112 6.31455 4.94856 6.37458 5.0286L7.89839 7.03495Z" fill="#90BCF0"/>
</svg>
