<svg width="15" height="15" viewBox="0 0 22 22" fill="none" xmlns="http://www.w3.org/2000/svg">
  <path d="M4.9005 18.0513L0 22V1.12821C0 0.828987 0.115892 0.542023 0.322183 0.330444C0.528472 0.118864 0.808262 0 1.1 0H20.9C21.1917 0 21.4715 0.118864 21.6778 0.330444C21.8841 0.542023 22 0.828987 22 1.12821V16.9231C22 17.2223 21.8841 17.5093 21.6778 17.7208C21.4715 17.9324 21.1917 18.0513 20.9 18.0513H4.9005ZM4.1393 15.7949H19.8V2.25641H2.2V17.3574L4.1393 15.7949ZM9.9 7.89744H12.1V10.1538H9.9V7.89744ZM5.5 7.89744H7.7V10.1538H5.5V7.89744ZM14.3 7.89744H16.5V10.1538H14.3V7.89744Z" fill="white"/>
</svg>

