<svg width="16" height="12" viewBox="0 0 16 12" fill="none" xmlns="http://www.w3.org/2000/svg">
<path d="M3.40845 8.84181H0.697168C0.512267 8.84181 0.33494 8.76696 0.204196 8.63372C0.0734514 8.50048 0 8.31978 0 8.13136V3.86865C0 3.68022 0.0734514 3.49952 0.204196 3.36628C0.33494 3.23305 0.512267 3.15819 0.697168 3.15819H3.40845L7.09926 0.0805182C7.15033 0.0378535 7.21224 0.0108488 7.27778 0.0026479C7.34332 -0.00555304 7.40981 0.00538718 7.46949 0.034195C7.52917 0.0630028 7.57959 0.108493 7.61488 0.165369C7.65018 0.222246 7.66889 0.288168 7.66885 0.355463V11.6445C7.66889 11.7118 7.65018 11.7778 7.61488 11.8346C7.57959 11.8915 7.52917 11.937 7.46949 11.9658C7.40981 11.9946 7.34332 12.0056 7.27778 11.9974C7.21224 11.9892 7.15033 11.9621 7.09926 11.9195L3.40915 8.84181H3.40845ZM13.5348 6L16 8.51216L15.0142 9.51674L12.549 7.00458L10.0838 9.51674L9.09804 8.51216L11.5632 6L9.09804 3.48784L10.0838 2.48327L12.549 4.99542L15.0142 2.48327L16 3.48784L13.5348 6Z" fill="#6B7BC7"/>
</svg>
