<svg width="20" height="20" viewBox="0 0 20 20" fill="none" xmlns="http://www.w3.org/2000/svg">
<path d="M9.99942 15.1546C14.2543 15.1546 17.9759 16.7458 20 19.12L17.8598 20C16.2122 18.3027 13.3074 17.1752 9.99942 17.1752C6.69145 17.1752 3.78667 18.3027 2.13908 20L0 19.119C2.02405 16.7448 5.74449 15.1546 9.99942 15.1546ZM9.99942 0C11.5402 0 13.0179 0.532213 14.1074 1.47956C15.1969 2.4269 15.809 3.71178 15.809 5.05153V8.08244C15.809 9.42219 15.1969 10.7071 14.1074 11.6544C13.0179 12.6018 11.5402 13.134 9.99942 13.134C8.45863 13.134 6.98094 12.6018 5.89144 11.6544C4.80193 10.7071 4.18986 9.42219 4.18986 8.08244V5.05153C4.18986 3.71178 4.80193 2.4269 5.89144 1.47956C6.98094 0.532213 8.45863 0 9.99942 0Z" fill="#7E7E7E"/>
</svg>
