<svg width="14" height="14" viewBox="0 0 14 14" fill="none" xmlns="http://www.w3.org/2000/svg">
<path d="M13.4739 2.88889H13.2263V1.63333C13.2263 0.544444 12.4526 0 11.6789 0C10.9052 0 10.1315 0.544444 10.1315 1.63333V1.77778H10.9052V1.74444C10.9052 0.5 12.4526 0.5 12.4526 1.74444V2.88889H9.88395C9.35784 2.88889 9.35784 2.88889 9.35784 3.45555V6.76667C9.35784 7.33333 9.35784 7.33333 9.88395 7.33333H13.4739C14 7.33333 14 7.33333 14 6.76667V3.45555C14 2.88889 14 2.88889 13.4739 2.88889ZM10.9568 11.1111L8.06835 9.44444C7.53192 9.13333 7.29465 8.8 7.29465 8.5C7.29465 7.77778 8.63572 6.75556 8.63572 4.22222C8.63572 2.11111 7.59381 0.666667 5.80916 0.666667C3.82851 0.666667 2.96197 2.44444 2.96197 4.23333C2.96197 6.58889 4.27209 7.65556 4.27209 8.44444C4.27209 8.75556 4.07609 9.13333 3.52934 9.44444L0.640886 11.1111C-0.38039 11.7 0.12509 14 0.12509 14H11.4726C11.4726 14 11.9678 11.7 10.9568 11.1111Z" fill="#6B7BC7"/>
</svg>
