<svg width="16" height="16" viewBox="0 0 16 16" fill="none" xmlns="http://www.w3.org/2000/svg">
<path d="M15.3987 3.30159H15.1158V1.86667C15.1158 0.622221 14.2316 0 13.3473 0C12.4631 0 11.5789 0.622221 11.5789 1.86667V2.03174H12.4631V1.99365C12.4631 0.571427 14.2316 0.571427 14.2316 1.99365V3.30159H11.2959C10.6947 3.30159 10.6947 3.30159 10.6947 3.94921V7.73333C10.6947 8.38095 10.6947 8.38095 11.2959 8.38095H15.3987C16 8.38095 16 8.38095 16 7.73333V3.94921C16 3.30159 16 3.30159 15.3987 3.30159ZM12.5221 12.6984L9.22097 10.7937C8.60791 10.4381 8.33675 10.0571 8.33675 9.71429C8.33675 8.88889 9.8694 7.72063 9.8694 4.8254C9.8694 2.4127 8.67865 0.761904 6.63904 0.761904C4.37543 0.761904 3.38511 2.79365 3.38511 4.83809C3.38511 7.53016 4.88239 8.74921 4.88239 9.65079C4.88239 10.0063 4.65838 10.4381 4.03354 10.7937L0.732441 12.6984C-0.434731 13.3714 0.14296 16 0.14296 16H13.1115C13.1115 16 13.6774 13.3714 12.5221 12.6984Z" fill="#90BCF0"/>
</svg>
