<svg width="16" height="16" viewBox="0 0 16 16" fill="none" xmlns="http://www.w3.org/2000/svg">
<path fill-rule="evenodd" clip-rule="evenodd" d="M9.32918 1.89214C9.19601 1.89214 9.08423 2.00231 9.08423 2.13617V2.81811H12.1368V2.13617C12.1368 2.07039 12.1082 2.00806 12.0643 1.96367C12.0213 1.92066 11.9585 1.89214 11.8918 1.89214H11.2129V1.28586C11.2129 0.494899 10.0081 0.493979 10.0081 1.28586V1.89214H9.32918ZM14.9453 10.8227H6.27665C6.27665 9.71852 6.27665 8.61407 6.27665 7.51031H14.9453C14.9453 8.61407 14.9453 9.71852 14.9453 10.8227ZM14.2461 10.1233V8.2095H13.534V9.35259H12.835V8.2095H11.8182V9.35259H11.1193V8.2095H10.1027V9.35259H9.40347V8.2095H8.38596V9.35259H7.687V8.2095H6.97561V10.1233H14.2461ZM1.4851 12.5475V7.15243H2.18475V12.5475C2.45546 12.5825 2.72341 12.6577 2.96997 12.7704V5.36304H0.698964V12.7694C0.943912 12.6572 1.21439 12.5825 1.4851 12.5475ZM0.698964 4.66408H2.96997V3.97316C2.96997 3.54123 2.61945 3.19071 2.18705 3.19071H1.48142C1.04971 3.19071 0.698964 3.54123 0.698964 3.97316V4.66408ZM0.845013 13.4778L1.834 14.8219L2.82392 13.4778C2.5194 13.309 2.18268 13.2237 1.834 13.2237C1.4851 13.2237 1.14976 13.309 0.845013 13.4778ZM1.48142 2.49174H2.18705C3.00125 2.49174 3.66893 3.15943 3.66893 3.97316V13.51L1.834 16L0 13.51V3.97316C0 3.15851 0.666994 2.49174 1.48142 2.49174ZM12.8357 2.3611H14.6996C15.4149 2.3611 15.9998 2.9476 15.9998 3.66197V14.3019C15.9998 15.0156 15.414 15.6019 14.6996 15.6019H6.52137C5.80768 15.6019 5.22119 15.0156 5.22119 14.3019V3.66197C5.22119 2.94829 5.80768 2.3611 6.52137 2.3611H8.38527V2.13617C8.38527 1.62465 8.80157 1.20237 9.31285 1.19317C9.42624 -0.397724 11.7948 -0.397724 11.9082 1.19317C12.16 1.19754 12.3918 1.30403 12.5581 1.47055C12.7286 1.64098 12.8357 1.87673 12.8357 2.13617V2.3611ZM8.38527 3.06007H6.52137C6.18948 3.06007 5.92084 3.33009 5.92084 3.66197V3.90646H15.3002V3.66197C15.3002 3.33009 15.0327 3.06007 14.6996 3.06007H12.8357V3.51731H8.38527V3.06007ZM5.92084 13.3587H15.3002V4.60543H5.92084V13.3587ZM15.3002 14.0579H5.92084V14.3019C5.92084 14.634 6.18948 14.9029 6.52137 14.9029H14.6996C15.0306 14.9029 15.3002 14.6329 15.3002 14.3019V14.0579Z" fill="#90BCF0"/>
</svg>
