<svg width="19" height="16" viewBox="0 0 19 16" fill="none" xmlns="http://www.w3.org/2000/svg">
<path fill-rule="evenodd" clip-rule="evenodd" d="M15.0444 6.82402C17.2491 6.82402 19 8.61284 19 10.8654V13.5155C17.6382 13.9793 16.2765 14.2443 14.9147 14.2443V11.8592C14.9147 10.0704 14.1365 8.48033 12.8396 7.48654C13.4881 7.02277 14.2662 6.82402 15.0444 6.82402ZM3.95563 6.82402C4.73379 6.82402 5.51195 7.02277 6.16041 7.48654C4.92833 8.48033 4.08532 10.0704 4.08532 11.8592V14.2443C2.72355 14.2443 1.36177 14.0455 0 13.5155V10.8654C0 8.61284 1.8157 6.82402 3.95563 6.82402ZM9.53242 6.89027C12.1911 6.89027 14.3311 9.14286 14.3311 11.8592V15.1056C10.959 16.2981 7.78157 16.2981 4.66894 15.1056V11.8592C4.66894 9.14286 6.87372 6.89027 9.53242 6.89027ZM9.53242 0C11.2833 0 12.7747 1.45756 12.7747 3.31263C12.7747 5.1677 11.2833 6.62526 9.53242 6.62526C7.71672 6.62526 6.2901 5.1677 6.2901 3.31263C6.2901 1.45756 7.71672 0 9.53242 0ZM3.95563 1.12629C4.73379 1.12629 5.38225 1.45756 5.90102 1.98758C5.51195 3.04762 5.64164 4.30642 6.22526 5.30021C5.70648 6.09524 4.92833 6.55901 3.95563 6.55901C2.46416 6.55901 1.29693 5.36646 1.29693 3.84265C1.29693 2.38509 2.46416 1.12629 3.95563 1.12629ZM15.0444 1.12629C16.5358 1.12629 17.7031 2.38509 17.7031 3.84265C17.7031 5.36646 16.5358 6.55901 15.0444 6.55901C14.1365 6.55901 13.2935 6.09524 12.8396 5.30021C13.4232 4.30642 13.5529 3.04762 13.1638 1.98758C13.6177 1.45756 14.3311 1.12629 15.0444 1.12629Z" fill="#6B7BC7"/>
</svg>
