<svg width="20" height="20" viewBox="0 0 20 20" fill="none" xmlns="http://www.w3.org/2000/svg">
<path d="M8.8478 11.0048L13.694 6.15869M18.6513 3.20117L14.5607 16.4958C14.1941 17.6872 14.0107 18.2832 13.6945 18.4808C13.4202 18.6521 13.0807 18.6808 12.782 18.5568C12.4376 18.4139 12.158 17.8558 11.6004 16.7405L9.00942 11.5586C8.92093 11.3816 8.87664 11.2935 8.81753 11.2168C8.76508 11.1488 8.70454 11.0874 8.63649 11.035C8.56155 10.9772 8.4749 10.9339 8.30581 10.8494L3.11196 8.25244C1.99666 7.69479 1.43895 7.41571 1.29604 7.07129C1.17211 6.7726 1.20037 6.43273 1.37173 6.15847C1.56932 5.84224 2.16527 5.65853 3.35708 5.29182L16.6517 1.20117C17.5886 0.912878 18.0573 0.768845 18.3738 0.885031C18.6494 0.986231 18.8668 1.20334 18.968 1.47901C19.0841 1.79533 18.9399 2.26376 18.6519 3.19979L18.6513 3.20117Z" stroke="#333333" stroke-linecap="round" stroke-linejoin="round"/>
</svg>
