<svg width="38" height="42" viewBox="0 0 38 42" fill="none" xmlns="http://www.w3.org/2000/svg">
  <path d="M34.7201 37.7095V37.4989C34.7216 37.1166 34.8746 36.7504 35.1455 36.4806C35.4164 36.2108 35.7831 36.0593 36.1655 36.0593C36.5468 36.0578 36.9121 35.9056 37.1818 35.636C37.4515 35.3663 37.6036 35.001 37.6051 34.6196V29.5781C37.6051 29.1962 37.4534 28.8301 37.1835 28.5601C36.9135 28.2901 36.5473 28.1384 36.1655 28.1384C35.9752 28.1384 35.7868 28.1008 35.6111 28.0279C35.4353 27.9549 35.2757 27.8479 35.1415 27.7131C35.0072 27.5783 34.9008 27.4183 34.8285 27.2422C34.7562 27.0662 34.7194 26.8777 34.7201 26.6874V24.7186H31.875V37.7095H34.7201Z" fill="#3A556A"/>
  <path d="M36.1655 17.3155C35.7831 17.3155 35.4164 17.1641 35.1455 16.8942C34.8746 16.6244 34.7216 16.2582 34.7201 15.8759V13.8957H31.875V32.7817H34.7201V26.6476C34.7216 26.2653 34.8746 25.8991 35.1455 25.6293C35.4164 25.3595 35.7831 25.208 36.1655 25.208C36.5473 25.208 36.9135 25.0563 37.1835 24.7863C37.4534 24.5163 37.6051 24.1501 37.6051 23.7683V18.7552C37.6051 18.5661 37.5679 18.3789 37.4955 18.2043C37.4232 18.0296 37.3171 17.8709 37.1835 17.7372C37.0498 17.6035 36.8911 17.4975 36.7164 17.4251C36.5417 17.3528 36.3545 17.3155 36.1655 17.3155Z" fill="#E56353"/>
  <path d="M34.7201 37.7095V17.0424C34.7216 16.66 34.8746 16.2939 35.1455 16.024C35.4164 15.7542 35.7831 15.6027 36.1655 15.6027C36.5463 15.6027 36.9116 15.4518 37.1814 15.1831C37.4513 14.9143 37.6036 14.5496 37.6051 14.1688V9.14995C37.6036 8.76859 37.4515 8.40328 37.1818 8.13362C36.9121 7.86396 36.5468 7.71181 36.1655 7.71031C35.7831 7.71031 35.4164 7.55882 35.1455 7.28899C34.8746 7.01917 34.7216 6.653 34.7201 6.27066V4.28476H31.875V37.7095H34.7201Z" fill="#FCD462"/>
  <path d="M31.7218 0H4.55067C2.87878 0 1.52344 1.35534 1.52344 3.02723V38.9728C1.52344 40.6447 2.87878 42 4.55067 42H31.7218C33.3937 42 34.749 40.6447 34.749 38.9728V3.02723C34.749 1.35534 33.3937 0 31.7218 0Z" fill="#EBF0F3"/>
  <path d="M3.84487 5.28056H0.430696C0.307657 5.31139 0.198446 5.38245 0.120414 5.48246C0.0423812 5.58246 0 5.70567 0 5.83251C0 5.95936 0.0423812 6.08256 0.120414 6.18257C0.198446 6.28257 0.307657 6.35363 0.430696 6.38447H3.84487C3.96791 6.35363 4.07712 6.28257 4.15515 6.18257C4.23318 6.08256 4.27556 5.95936 4.27556 5.83251C4.27556 5.70567 4.23318 5.58246 4.15515 5.48246C4.07712 5.38245 3.96791 5.31139 3.84487 5.28056Z" fill="#3A556A"/>
  <path d="M3.84487 9.04749H0.430696C0.307657 9.07833 0.198446 9.14939 0.120414 9.24939C0.0423812 9.34939 0 9.4726 0 9.59945C0 9.72629 0.0423812 9.8495 0.120414 9.9495C0.198446 10.0495 0.307657 10.1206 0.430696 10.1514H3.84487C3.96791 10.1206 4.07712 10.0495 4.15515 9.9495C4.23318 9.8495 4.27556 9.72629 4.27556 9.59945C4.27556 9.4726 4.23318 9.34939 4.15515 9.24939C4.07712 9.14939 3.96791 9.07833 3.84487 9.04749Z" fill="#3A556A"/>
  <path d="M3.84487 12.8657H0.430696C0.307657 12.8965 0.198446 12.9676 0.120414 13.0676C0.0423812 13.1676 0 13.2908 0 13.4176C0 13.5445 0.0423812 13.6677 0.120414 13.7677C0.198446 13.8677 0.307657 13.9388 0.430696 13.9696H3.84487C3.96791 13.9388 4.07712 13.8677 4.15515 13.7677C4.23318 13.6677 4.27556 13.5445 4.27556 13.4176C4.27556 13.2908 4.23318 13.1676 4.15515 13.0676C4.07712 12.9676 3.96791 12.8965 3.84487 12.8657Z" fill="#3A556A"/>
  <path d="M3.84487 16.6554H0.430696C0.307657 16.6862 0.198446 16.7573 0.120414 16.8573C0.0423812 16.9573 0 17.0805 0 17.2073C0 17.3342 0.0423812 17.4574 0.120414 17.5574C0.198446 17.6574 0.307657 17.7285 0.430696 17.7593H3.84487C3.96791 17.7285 4.07712 17.6574 4.15515 17.5574C4.23318 17.4574 4.27556 17.3342 4.27556 17.2073C4.27556 17.0805 4.23318 16.9573 4.15515 16.8573C4.07712 16.7573 3.96791 16.6862 3.84487 16.6554Z" fill="#3A556A"/>
  <path d="M3.84487 20.4281H0.430696C0.307657 20.4589 0.198446 20.53 0.120414 20.63C0.0423812 20.73 0 20.8532 0 20.98C0 21.1069 0.0423812 21.2301 0.120414 21.3301C0.198446 21.4301 0.307657 21.5011 0.430696 21.532H3.84487C3.96791 21.5011 4.07712 21.4301 4.15515 21.3301C4.23318 21.2301 4.27556 21.1069 4.27556 20.98C4.27556 20.8532 4.23318 20.73 4.15515 20.63C4.07712 20.53 3.96791 20.4589 3.84487 20.4281Z" fill="#3A556A"/>
  <path d="M3.84487 24.2348H0.430696C0.307657 24.2657 0.198446 24.3367 0.120414 24.4367C0.0423812 24.5368 0 24.66 0 24.7868C0 24.9136 0.0423812 25.0369 0.120414 25.1369C0.198446 25.2369 0.307657 25.3079 0.430696 25.3388H3.84487C3.92877 25.3598 4.01637 25.3614 4.101 25.3435C4.18563 25.3256 4.26506 25.2886 4.33326 25.2354C4.40145 25.1822 4.45662 25.1141 4.49456 25.0364C4.53251 24.9587 4.55223 24.8733 4.55223 24.7868C4.55223 24.7003 4.53251 24.6149 4.49456 24.5372C4.45662 24.4595 4.40145 24.3914 4.33326 24.3382C4.26506 24.285 4.18563 24.248 4.101 24.2301C4.01637 24.2122 3.92877 24.2138 3.84487 24.2348Z" fill="#3A556A"/>
  <path d="M3.84487 28.0246H0.430696C0.307657 28.0555 0.198446 28.1265 0.120414 28.2265C0.0423812 28.3265 0 28.4497 0 28.5766C0 28.7034 0.0423812 28.8266 0.120414 28.9266C0.198446 29.0267 0.307657 29.0977 0.430696 29.1286H3.84487C3.96791 29.0977 4.07712 29.0267 4.15515 28.9266C4.23318 28.8266 4.27556 28.7034 4.27556 28.5766C4.27556 28.4497 4.23318 28.3265 4.15515 28.2265C4.07712 28.1265 3.96791 28.0555 3.84487 28.0246Z" fill="#3A556A"/>
  <path d="M3.84487 31.8086H0.430696C0.307657 31.8395 0.198446 31.9105 0.120414 32.0105C0.0423812 32.1105 0 32.2337 0 32.3606C0 32.4874 0.0423812 32.6106 0.120414 32.7106C0.198446 32.8106 0.307657 32.8817 0.430696 32.9125H3.84487C3.96791 32.8817 4.07712 32.8106 4.15515 32.7106C4.23318 32.6106 4.27556 32.4874 4.27556 32.3606C4.27556 32.2337 4.23318 32.1105 4.15515 32.0105C4.07712 31.9105 3.96791 31.8395 3.84487 31.8086Z" fill="#3A556A"/>
  <path d="M3.84487 35.6097H0.430696C0.307657 35.6405 0.198446 35.7116 0.120414 35.8116C0.0423812 35.9116 0 36.0348 0 36.1617C0 36.2885 0.0423812 36.4117 0.120414 36.5117C0.198446 36.6117 0.307657 36.6828 0.430696 36.7136H3.84487C3.92877 36.7346 4.01637 36.7363 4.101 36.7184C4.18563 36.7004 4.26506 36.6635 4.33326 36.6103C4.40145 36.5571 4.45662 36.489 4.49456 36.4113C4.53251 36.3335 4.55223 36.2482 4.55223 36.1617C4.55223 36.0752 4.53251 35.9898 4.49456 35.9121C4.45662 35.8343 4.40145 35.7663 4.33326 35.713C4.26506 35.6598 4.18563 35.6229 4.101 35.605C4.01637 35.587 3.92877 35.5887 3.84487 35.6097Z" fill="#3A556A"/>
  <path d="M9.63229 13.7591L9.58108 14.1801C9.54942 14.4398 9.59494 14.703 9.71195 14.937C11.1344 17.5935 12.9045 20.0486 14.9755 22.2376C14.9755 22.2376 15.2145 22.4937 15.6469 22.9204C16.0794 23.3472 16.3298 23.5919 16.3298 23.5919C18.5187 25.6629 20.9738 27.433 23.6304 28.8554C23.8783 28.973 24.1567 29.0108 24.427 28.9635L24.8481 28.9066C25.0668 28.88 25.2749 28.7974 25.4524 28.6668C25.6298 28.5362 25.7706 28.3621 25.861 28.1612L26.5154 26.75L26.5893 26.5963C26.7086 26.3199 26.7284 26.0106 26.6454 25.7212C26.5624 25.4318 26.3817 25.1801 26.1341 25.0088L23.7556 23.3017C23.5527 23.1538 23.311 23.0685 23.0602 23.0564C22.8094 23.0442 22.5606 23.1058 22.3444 23.2334L21.9119 23.4838L21.1039 23.9048C20.7395 24.1129 20.3186 24.2002 19.9015 24.1542C19.4844 24.1082 19.0926 23.9313 18.7823 23.6488C18.2531 23.1651 17.3711 22.34 16.785 21.7881C16.1989 21.2361 15.4079 20.32 14.9243 19.7851C14.6399 19.477 14.4616 19.0859 14.4155 18.6692C14.3694 18.2525 14.458 17.8319 14.6682 17.4691L15.0836 16.6611L15.3396 16.2286C15.4673 16.0124 15.5288 15.7636 15.5167 15.5128C15.5045 15.2621 15.4193 15.0203 15.2714 14.8175L13.5643 12.4389C13.3872 12.1918 13.1296 12.0141 12.8358 11.9362C12.5419 11.8583 12.2301 11.8852 11.9539 12.0121L11.8003 12.0804L10.3891 12.7348C10.1868 12.8279 10.0113 12.9706 9.87902 13.1496C9.7467 13.3287 9.66182 13.5384 9.63229 13.7591Z" fill="#2F4859"/>
  <path d="M15.089 16.6668L15.345 16.2343C15.4726 16.0181 15.5342 15.7693 15.522 15.5185C15.5099 15.2678 15.4246 15.026 15.2767 14.8231L13.5697 12.4446C13.3933 12.1966 13.1357 12.0182 12.8416 11.9403C12.5475 11.8623 12.2353 11.8898 11.9593 12.0178L11.8057 12.0861L15.089 16.6668Z" fill="#2F4859"/>
  <path d="M21.917 23.4895L22.3495 23.2391C22.5657 23.1115 22.8145 23.0499 23.0653 23.0621C23.316 23.0742 23.5578 23.1595 23.7606 23.3074L26.1392 25.0145C26.3871 25.1908 26.5656 25.4484 26.6435 25.7425C26.7215 26.0367 26.694 26.3488 26.566 26.6248L26.492 26.7784L21.917 23.4895Z" fill="#2F4859"/>
</svg>
