<svg width="34" height="34" viewBox="0 0 34 34" fill="none" xmlns="http://www.w3.org/2000/svg">
<path d="M17 34C7.6109 34 0 26.3891 0 17C0 7.6109 7.6109 0 17 0C26.3891 0 34 7.6109 34 17C34 26.3891 26.3891 34 17 34ZM17 30.6C20.6069 30.6 24.0662 29.1671 26.6167 26.6167C29.1671 24.0662 30.6 20.6069 30.6 17C30.6 13.3931 29.1671 9.93384 26.6167 7.38335C24.0662 4.83285 20.6069 3.4 17 3.4C13.3931 3.4 9.93384 4.83285 7.38335 7.38335C4.83285 9.93384 3.4 13.3931 3.4 17C3.4 20.6069 4.83285 24.0662 7.38335 26.6167C9.93384 29.1671 13.3931 30.6 17 30.6ZM15.3051 23.8L8.092 16.5869L10.4958 14.1831L15.3051 18.9924L24.9203 9.3755L27.3258 11.7793L15.3051 23.8Z" fill="#27AE60"/>
</svg>
