<svg width="16" height="16" viewBox="0 0 16 16" fill="none" xmlns="http://www.w3.org/2000/svg">
<path d="M16 11.5057C15.9996 12.5545 15.6257 13.5718 14.94 14.3891C14.2544 15.2064 13.2981 15.7747 12.2296 16L11.7192 14.5321C12.1866 14.4583 12.6311 14.286 13.0206 14.0276C13.4102 13.7693 13.7351 13.4313 13.972 13.0381H12C11.5757 13.0381 11.1687 12.8765 10.8686 12.5888C10.5686 12.3011 10.4 11.911 10.4 11.5042V8.43639C10.4 8.02958 10.5686 7.63943 10.8686 7.35177C11.1687 7.06411 11.5757 6.9025 12 6.9025H14.3504C14.1552 5.41992 13.4023 4.05658 12.2331 3.0683C11.0639 2.08001 9.55876 1.53471 8 1.53471C6.44124 1.53471 4.93605 2.08001 3.76686 3.0683C2.59766 4.05658 1.84482 5.41992 1.6496 6.9025H4C4.42435 6.9025 4.83131 7.06411 5.13137 7.35177C5.43143 7.63943 5.6 8.02958 5.6 8.43639V11.5042C5.6 11.911 5.43143 12.3011 5.13137 12.5888C4.83131 12.8765 4.42435 13.0381 4 13.0381H1.6C1.17565 13.0381 0.768687 12.8765 0.468629 12.5888C0.168571 12.3011 0 11.911 0 11.5042V7.66945C0 3.43361 3.5816 0 8 0C12.4184 0 16 3.43361 16 7.66945V11.5057Z" fill="#90BCF0"/>
</svg>
