<svg width="16" height="18" viewBox="0 0 16 18" fill="none" xmlns="http://www.w3.org/2000/svg">
<path d="M8.63185 11.3589V18H2.23096e-07C-0.000267686 16.9533 0.240761 15.9205 0.704617 14.9806C1.16847 14.0408 1.84285 13.2188 2.67606 12.5777C3.50928 11.9367 4.47922 11.4935 5.51157 11.2823C6.54392 11.071 7.61128 11.0972 8.63185 11.3589ZM6.90548 10.2857C4.04402 10.2857 1.72637 7.98429 1.72637 5.14286C1.72637 2.30143 4.04402 0 6.90548 0C9.76694 0 12.0846 2.30143 12.0846 5.14286C12.0846 7.98429 9.76694 10.2857 6.90548 10.2857ZM12.9478 13.3594L14.7786 11.5406L16 12.7534L14.1683 14.5714L16 16.3894L14.7786 17.6023L12.9478 15.7834L11.117 17.6023L9.89555 16.3894L11.7272 14.5714L9.89555 12.7534L11.117 11.5406L12.9478 13.3594Z" fill="#6B7BC7"/>
</svg>
