<svg width="22" height="22" viewBox="0 0 22 22" fill="none" xmlns="http://www.w3.org/2000/svg">
<path fill-rule="evenodd" clip-rule="evenodd" d="M21.9745 11.9858C21.9988 11.905 22.0058 11.819 21.9952 11.7346C21.9952 11.1916 21.9952 10.6412 21.993 10.081C21.9946 9.89151 21.9568 9.7042 21.8828 9.5337C21.8088 9.3632 21.7005 9.21415 21.5663 9.09819L12.4303 0.58461C12.0327 0.207207 11.5279 0 11.0062 0C10.4845 0 9.97971 0.207207 9.58211 0.58461L8.81234 1.2996C6.01771 3.90241 3.22161 6.50439 0.42405 9.10556C0.28354 9.22926 0.171796 9.38898 0.0982874 9.57119C0.024779 9.75339 -0.00832664 9.95271 0.00177615 10.1522V11.6437C0.00177615 12.2161 0.157929 12.3808 0.69017 12.3808H2.57281C2.87632 12.3808 2.9335 12.4446 2.9335 12.7862V16.6486V20.2973C2.9203 21.3612 3.50533 22 4.45984 22H8.13934C8.64739 22 8.79915 21.8206 8.79915 21.2629V17.5602C8.79888 17.2769 8.83367 16.9949 8.90252 16.7223C9.04728 16.1525 9.37144 15.6603 9.81531 15.3363C10.2592 15.0123 10.7929 14.8783 11.3181 14.9591C11.8434 15.0398 12.3249 15.3299 12.6739 15.7758C13.0229 16.2216 13.216 16.7934 13.2176 17.3857V21.2482C13.2176 21.8231 13.354 21.9853 13.8576 21.9853H17.5965C17.7945 21.9981 17.9927 21.9636 18.1778 21.8839C18.3629 21.8042 18.5307 21.6813 18.6698 21.5233C18.8089 21.3654 18.9162 21.176 18.9845 20.9679C19.0527 20.7599 19.0804 20.5379 19.0657 20.3169V12.7788C19.0657 12.4176 19.1163 12.3562 19.4352 12.3562H21.4388C21.5143 12.3681 21.5913 12.3602 21.6637 12.3331C21.736 12.3061 21.8018 12.2606 21.8557 12.2004C21.9097 12.1401 21.9503 12.0666 21.9745 11.9858ZM16.7621 3.75727L18.4776 5.34942C18.4776 4.78106 18.4795 4.22112 18.4813 3.66563C18.4844 2.75147 18.4875 1.84935 18.482 0.941522C18.474 0.740352 18.3959 0.550648 18.2644 0.412924C18.1329 0.275199 17.9584 0.20037 17.7782 0.204416C16.96 0.189674 16.1419 0.189674 15.3237 0.204416C15.2278 0.203504 15.1327 0.224726 15.0444 0.266754C14.9562 0.308782 14.8766 0.370712 14.8108 0.448666C14.7449 0.52662 14.6942 0.618922 14.6617 0.719793C14.6292 0.820664 14.6158 0.927934 14.6221 1.03489C14.6221 1.09149 14.6236 1.14809 14.6251 1.20461C14.628 1.31736 14.6309 1.42974 14.6221 1.54104C14.6151 1.61485 14.6264 1.6894 14.6547 1.75656C14.683 1.82372 14.7273 1.8809 14.7827 1.92187C15.2225 2.32644 15.6624 2.73537 16.1022 3.14431C16.3222 3.34881 16.5421 3.55331 16.7621 3.75727Z" fill="white"/>
</svg>
