<svg width="42" height="40" viewBox="0 0 42 40" fill="none" xmlns="http://www.w3.org/2000/svg">
  <path fill-rule="evenodd" clip-rule="evenodd" d="M35.4362 27.8726C34.8603 25.4238 32.9432 24.2757 30.538 23.8521C29.9852 23.7547 29.4094 23.6944 28.8176 23.6669C28.3805 23.6531 28.0175 23.5627 27.7098 23.4166C25.9821 26.6921 18.0846 26.4607 16.7664 23.4166V23.3935C16.4472 23.5534 16.0678 23.6528 15.6099 23.6669C15.0341 23.6947 14.4746 23.7502 13.9379 23.8428C11.6 24.2433 9.71744 25.3219 9.06055 27.6018C10.076 28.5766 18.3182 36.009 18.3829 36.4166H35.6883V32.25C35.6883 31.8056 35.8896 31.405 36.2065 31.1365L35.4362 27.8726Z" fill="#64B0D9"/>
  <path fill-rule="evenodd" clip-rule="evenodd" d="M15.6105 23.6669C15.0347 23.6944 14.4752 23.7502 13.9385 23.8428V27.6018L15.1943 28.7291L16.767 27.6018V23.3935C16.4478 23.5534 16.0684 23.6528 15.6105 23.6669Z" fill="#E6E6E6"/>
  <path fill-rule="evenodd" clip-rule="evenodd" d="M13.8184 35.3915H17.1855C17.7892 35.3915 18.2932 35.8382 18.3836 36.4172H32.7842L31.6813 30.0306C31.5772 29.4103 31.1676 28.8848 30.5386 28.8848V23.8526C29.9859 23.7552 29.4101 23.695 28.8182 23.6674C28.3811 23.6537 28.0181 23.5633 27.7105 23.4172V28.8848H19.0636C19.0818 29.0238 14.8268 34.9772 13.8184 35.3915Z" fill="#E6E6E6"/>
  <path fill-rule="evenodd" clip-rule="evenodd" d="M26.3572 21.9584L22.4187 20.7154L18.0826 21.9353L18.0711 21.9561C17.7817 22.5697 17.3725 23.0882 16.7666 23.3936V23.4167C18.0849 26.4608 25.9826 26.6921 27.7101 23.4167C27.0763 23.1158 26.6738 22.5742 26.3572 21.9584Z" fill="#FCC368"/>
  <path fill-rule="evenodd" clip-rule="evenodd" d="M26.9494 10.1023C23.8136 9.63702 20.6589 9.62773 17.486 10.1023C16.5702 10.2388 15.6547 10.417 14.7363 10.6345V16.6693C14.7363 18.8056 16.2927 20.6923 18.0829 21.9353C19.5444 22.9536 21.1633 23.5394 22.2063 23.484C23.5246 23.4096 25.037 22.8588 26.3575 21.9584C28.2353 20.676 29.7247 18.6855 29.7247 16.3472V10.6323C28.8018 10.417 27.8767 10.2388 26.9494 10.1023Z" fill="#FFDDA6"/>
  <path fill-rule="evenodd" clip-rule="evenodd" d="M22.4253 0.621246C20.9801 0.625732 19.4584 1.36658 18.7022 2.8409H16.6716C13.7367 2.8409 11.9884 6.068 14.7358 7.77848V12.2668C15.6539 12.0492 16.5697 11.8733 17.4855 11.7342C20.6584 11.26 23.8131 11.269 26.9489 11.7342C27.8762 11.8733 28.8013 12.0492 29.7241 12.2668V7.77848C32.4716 6.068 30.7995 2.8409 27.8647 2.8409H25.6815C25.2538 1.36658 23.8964 0.625732 22.4532 0.621246H22.4253Z" fill="#E6E6E6"/>
  <path fill-rule="evenodd" clip-rule="evenodd" d="M29.7242 7.77848C32.4716 6.068 30.7996 2.84122 27.8647 2.84122H26.1514C28.7831 2.84122 30.4087 5.19513 28.7299 6.96618C28.1909 7.53302 28.0198 7.23919 28.0198 8.03322L28.0128 11.9105C28.5841 12.0146 29.1554 12.1325 29.7242 12.2668V7.77848Z" fill="#C2C7CC"/>
  <path fill-rule="evenodd" clip-rule="evenodd" d="M29.7246 15.2693C29.6275 15.2507 28.7579 15.0841 28.0132 14.4913V15.9915C28.0132 18.3294 26.5215 20.3222 24.6438 21.6024C23.3233 22.5053 21.8108 23.0539 20.4926 23.1279C20.4461 23.1302 20.3999 23.1324 20.3516 23.1324C21.0498 23.3849 21.6974 23.5121 22.2062 23.4843C23.5242 23.4103 25.037 22.8594 26.3575 21.959C28.2352 20.6766 29.7246 18.6858 29.7246 16.3479V15.2693Z" fill="#FCC368"/>
  <path fill-rule="evenodd" clip-rule="evenodd" d="M27.7101 23.4168C27.0763 23.116 26.6738 22.5744 26.3572 21.9589C25.5802 22.4889 24.7336 22.8987 23.9033 23.1602C24.285 23.8985 24.5996 24.2365 25.7026 24.7595C25.8343 24.8223 25.9778 24.8755 26.1303 24.9149C26.8244 24.5419 27.3794 24.042 27.7101 23.4168Z" fill="#EDA93B"/>
  <path fill-rule="evenodd" clip-rule="evenodd" d="M35.4369 27.8731C34.8611 25.4244 32.9439 24.2763 30.5388 23.8526C29.986 23.7552 29.4102 23.695 28.8183 23.6674C28.3813 23.6537 28.0182 23.5633 27.7106 23.4172C27.3799 24.0423 26.8246 24.5422 26.1309 24.9149C26.3369 24.9706 26.5612 25.003 26.8108 25.0097C27.1162 25.0261 27.4145 25.0469 27.7106 25.0793C27.9903 25.1094 28.263 25.1466 28.5316 25.1953C29.2506 25.3225 29.9283 25.5144 30.5388 25.7855C31.9657 26.4241 33.0273 27.5008 33.432 29.2183C34.0145 31.6927 34.2366 33.8778 34.2366 36.4172H35.6891V32.2506C35.6891 31.8062 35.8903 31.4056 36.2072 31.1371L35.4369 27.8731Z" fill="#4A83C9"/>
  <path fill-rule="evenodd" clip-rule="evenodd" d="M30.5381 23.8526C29.9854 23.7552 29.4095 23.695 28.8177 23.6674C28.3806 23.6537 28.0176 23.5633 27.71 23.4172V25.0793C27.9897 25.1094 28.2624 25.1466 28.5309 25.1953C29.25 25.3225 29.9277 25.5144 30.5381 25.7855V23.8526Z" fill="#C2C7CC"/>
  <path fill-rule="evenodd" clip-rule="evenodd" d="M40.8689 33.384C40.8689 31.9581 39.7032 30.7917 38.2785 30.7917H37.1455C36.7892 30.7917 36.461 30.9212 36.2066 31.1365C35.8897 31.405 35.6885 31.8056 35.6885 32.25V36.9373C35.6885 37.7407 36.3454 38.3982 37.1455 38.3982H38.2785C39.7032 38.3982 40.8689 37.2315 40.8689 35.8056V33.384Z" fill="#FFDDA6"/>
  <path fill-rule="evenodd" clip-rule="evenodd" d="M39.5949 11.8984H36.9632C35.9801 11.8984 35.1777 12.7037 35.1777 13.6852V19.0832C35.1777 20.0669 35.9801 20.8703 36.9632 20.8703H39.5949C40.1474 20.8703 40.6424 20.6155 40.9709 20.2175C41.2253 19.9074 41.3801 19.5139 41.3801 19.0832V13.6852C41.3801 13.2571 41.2253 12.861 40.9709 12.5531C40.6424 12.1551 40.1477 11.8984 39.5949 11.8984Z" fill="#E6E6E6"/>
  <path fill-rule="evenodd" clip-rule="evenodd" d="M31.6807 30.0299C31.5768 29.4095 31.1673 28.884 30.5383 28.884H28.8916L30.24 36.4165H32.7839L31.6807 30.0299Z" fill="#C2C7CC"/>
  <path fill-rule="evenodd" clip-rule="evenodd" d="M40.8692 33.384C40.8692 31.9581 39.7035 30.7917 38.2788 30.7917H37.1458C36.9955 30.7917 36.8497 30.8148 36.7109 30.8587C37.8559 31.125 38.7162 32.1597 38.7162 33.384V35.8052C38.7162 37.0299 37.8559 38.0624 36.7109 38.3309C36.8497 38.3726 36.9955 38.3979 37.1458 38.3979H38.2788C39.7035 38.3979 40.8692 37.2312 40.8692 35.8052V33.384Z" fill="#FCC368"/>
  <path fill-rule="evenodd" clip-rule="evenodd" d="M23.6309 28.8842C23.5361 28.1641 22.9138 27.6018 22.1669 27.6018H19.6832C18.8113 27.6018 18.6632 28.4234 18.4761 29.2684C18.3812 29.6897 20.2843 30.1643 20.134 30.5578H22.1669C22.9811 30.5578 23.6447 29.8935 23.6447 29.0809C23.6447 29.0139 23.6399 28.9489 23.6309 28.8842Z" fill="#FCC368"/>
  <path fill-rule="evenodd" clip-rule="evenodd" d="M4.57941 27.6018H2.09572C1.28406 27.6018 0.620117 28.2686 0.620117 29.0809C0.620117 29.8935 1.28406 30.5578 2.09572 30.5578H4.12375L6.0502 28.7291L4.57941 27.6018Z" fill="#FCC368"/>
  <path fill-rule="evenodd" clip-rule="evenodd" d="M16.7664 27.6018H4.57869C3.70711 27.6018 3.57284 28.4862 3.7603 29.3331C3.85483 29.7593 3.97755 30.1665 4.12335 30.5578C4.9834 32.847 6.70413 34.5369 8.87796 35.3909L11.6923 37.1501L15.4504 35.3909C17.5989 34.5043 19.294 32.7454 20.1335 30.5578C20.2838 30.1643 20.4088 29.7545 20.5014 29.3331C20.6889 28.4862 20.5568 27.6018 19.6827 27.6018H16.7664Z" fill="#F78411"/>
  <path fill-rule="evenodd" clip-rule="evenodd" d="M15.4504 35.3909H5.90622C5.23779 35.3909 4.69434 35.9372 4.69434 36.604V37.8701C4.69434 38.5366 5.23779 39.0829 5.90622 39.0829H18.8178C19.4837 39.0829 20.0297 38.5366 20.0297 37.8701V36.604C20.0297 36.5412 20.0249 36.4765 20.0134 36.4163C19.9233 35.8376 19.4189 35.3909 18.8178 35.3909H15.4504Z" fill="#808080"/>
  <path fill-rule="evenodd" clip-rule="evenodd" d="M19.683 27.6018H17.1554C18.027 27.6018 18.1613 28.4862 17.9738 29.3331C17.879 29.7545 17.7566 30.1643 17.6041 30.5578C17.4445 30.9766 17.2525 31.3771 17.0327 31.7613C16.6373 32.449 16.1515 33.0761 15.5898 33.6272C15.5526 33.6618 15.5158 33.699 15.4786 33.7336C14.7387 34.4325 13.8739 34.9974 12.9209 35.3909H15.4511C15.9045 35.2034 16.3367 34.9788 16.7462 34.7173C18.2747 33.7429 19.4703 32.2846 20.1342 30.5578C20.2845 30.1643 20.4095 29.7545 20.5017 29.3331C20.5367 29.1828 20.5597 29.0322 20.569 28.8842C20.6197 28.2013 20.4021 27.6018 19.683 27.6018Z" fill="#F74311"/>
  <path fill-rule="evenodd" clip-rule="evenodd" d="M20.0138 36.4166C19.9237 35.8376 19.4194 35.3909 18.8182 35.3909H16.2881C16.8918 35.3909 17.3936 35.8376 17.4862 36.4166C17.4955 36.4765 17.5 36.5415 17.5 36.604V37.8701C17.5 38.5369 16.9543 39.0829 16.2881 39.0829H18.8182C19.4841 39.0829 20.0301 38.5366 20.0301 37.8701V36.604C20.0298 36.5415 20.0253 36.4765 20.0138 36.4166Z" fill="#666666"/>
  <path fill-rule="evenodd" clip-rule="evenodd" d="M40.9713 12.5534C40.6429 12.1551 40.1481 11.8984 39.5954 11.8984H37.1738C38.1544 11.8984 38.9593 12.7037 38.9593 13.6852V19.0832C38.9593 20.0669 38.1544 20.8703 37.1738 20.8703H39.5954C40.1481 20.8703 40.6429 20.6155 40.9713 20.2175C41.2257 19.9074 41.3805 19.5139 41.3805 19.0832V13.6852C41.3805 13.2571 41.2257 12.8613 40.9713 12.5534Z" fill="#C2C7CC"/>
  <path fill-rule="evenodd" clip-rule="evenodd" d="M29.7245 12.2665C28.8016 12.0489 27.8766 11.873 26.9492 11.7342C26.6233 14.6739 29.5393 15.2363 29.7245 15.2689V12.2665Z" fill="#808080"/>
  <path fill-rule="evenodd" clip-rule="evenodd" d="M17.486 11.7342C16.5702 11.873 15.6547 12.0489 14.7363 12.2665V15.2641C15.1366 15.1853 17.7962 14.5419 17.486 11.7342Z" fill="#808080"/>
  <path fill-rule="evenodd" clip-rule="evenodd" d="M29.7241 12.2667C29.1554 12.1325 28.584 12.0145 28.0127 11.9104V14.4912C28.7574 15.0837 29.627 15.2506 29.7241 15.2689V12.2667Z" fill="#666666"/>
  <path d="M5.93464 22.4915C5.68951 22.7305 5.68438 23.1231 5.92342 23.3682C6.04487 23.4928 6.20605 23.5553 6.36723 23.5553C6.52328 23.5553 6.67965 23.497 6.80013 23.3794C8.03925 22.1717 7.53169 21.1777 7.19555 20.5198C6.87992 19.9027 6.7495 19.647 7.41441 19.0212C7.66338 18.7866 7.67556 18.3941 7.44068 18.1451C7.20612 17.8955 6.81359 17.8839 6.56461 18.1185C5.22167 19.3823 5.74494 20.4064 6.09133 21.0841C6.39414 21.6766 6.51943 21.9217 5.93464 22.4915Z" fill="black"/>
  <path d="M9.36602 19.1673C9.12089 19.4064 9.11576 19.7989 9.35481 20.0441C9.47625 20.1687 9.63743 20.2312 9.79893 20.2312C9.95466 20.2312 10.111 20.1729 10.2315 20.0553C11.4713 18.8469 10.9624 17.8529 10.6257 17.1954C10.3097 16.5782 10.179 16.3225 10.8435 15.697C11.0928 15.4625 11.1047 15.0699 10.8701 14.821C10.6353 14.5714 10.2427 14.5598 9.99375 14.7944C8.65081 16.0585 9.17504 17.0826 9.52208 17.7603C9.82521 18.3525 9.9505 18.5976 9.36602 19.1673Z" fill="black"/>
  <path d="M18.4754 15.6536C18.6359 15.6536 18.7961 15.5915 18.9176 15.4675C19.1195 15.2883 20.0221 15.2903 20.2214 15.4694C20.463 15.7123 20.8556 15.7135 21.0981 15.4723C21.341 15.231 21.3423 14.8384 21.101 14.5956C20.6527 14.1441 19.8866 14.0931 19.5645 14.0931C19.5604 14.0931 19.5562 14.0931 19.552 14.0931C19.2425 14.0944 18.4751 14.1463 18.0325 14.5991C17.7932 14.8439 17.7967 15.2374 18.0418 15.4767C18.1623 15.5947 18.319 15.6536 18.4754 15.6536Z" fill="black"/>
  <path d="M23.4959 15.6536C23.6565 15.6536 23.8167 15.5915 23.9378 15.4675C24.1397 15.2883 25.0427 15.2903 25.242 15.4694C25.4833 15.7123 25.8758 15.7135 26.1187 15.4723C26.3616 15.231 26.3629 14.8384 26.1216 14.5956C25.673 14.1441 24.9071 14.0931 24.5851 14.0931C24.5806 14.0931 24.5764 14.0931 24.5726 14.0931C24.263 14.0944 23.4956 14.1463 23.0531 14.5991C22.8137 14.8439 22.8172 15.2374 23.0621 15.4764C23.1829 15.5947 23.3392 15.6536 23.4959 15.6536Z" fill="black"/>
  <path d="M22.1396 8.05133C22.4818 8.05133 22.7593 7.77383 22.7593 7.43129V4.58423C22.7593 4.242 22.4818 3.96451 22.1396 3.96451C21.797 3.96451 21.5195 4.242 21.5195 4.58423V7.43129C21.5195 7.77383 21.797 8.05133 22.1396 8.05133Z" fill="black"/>
  <path d="M17.9303 5.25137C17.588 5.25137 17.3105 5.52887 17.3105 5.87141V8.71623C17.3105 9.05846 17.588 9.33595 17.9303 9.33595C18.2728 9.33595 18.5503 9.05846 18.5503 8.71623V5.87141C18.5503 5.52887 18.2728 5.25137 17.9303 5.25137Z" fill="black"/>
  <path d="M26.3476 9.33595C26.6898 9.33595 26.9673 9.05846 26.9673 8.71591V5.87109C26.9673 5.52887 26.6898 5.25137 26.3476 5.25137C26.005 5.25137 25.7275 5.52887 25.7275 5.87109V8.71591C25.7275 9.05846 26.005 9.33595 26.3476 9.33595Z" fill="black"/>
  <path d="M39.5948 21.4906C40.9211 21.4906 42 20.4108 42 19.0835V13.6855C42 12.3586 40.9211 11.2787 39.5948 11.2787H36.9631C35.6368 11.2787 34.5579 12.3586 34.5579 13.6855V19.0835C34.5579 20.4108 35.6368 21.4906 36.9631 21.4906H37.6591V30.1718H37.1457C36.9682 30.1718 36.7958 30.1943 36.6314 30.2363L36.0399 27.7305C35.3526 24.8167 32.9327 23.2412 28.8471 23.0476C28.8442 23.0473 28.8414 23.0473 28.8385 23.0473C28.5094 23.0364 28.2284 22.9771 27.98 22.8592C27.9704 22.8547 27.9611 22.8496 27.9512 22.8454C27.6554 22.6987 27.4058 22.4654 27.1761 22.128C27.3081 22.0264 27.4388 21.9226 27.5654 21.8143C29.3576 20.2842 30.3442 18.343 30.3442 16.3477V12.3566C30.3535 12.2954 30.3532 12.2349 30.3442 12.1762V8.10703C31.5051 7.25596 31.9842 6.03927 31.6285 4.79566C31.1949 3.27969 29.6476 2.22097 27.865 2.22097H26.1164C25.5771 0.976723 24.4043 0.166664 22.8947 0.0221477C21.0644 -0.15281 19.2831 0.720695 18.3423 2.22097H16.6719C14.8637 2.22097 13.2935 3.29539 12.8536 4.83379C12.5021 6.06394 12.9725 7.26621 14.1164 8.10671V15.2563V15.262V16.6694C14.1164 18.7596 15.3898 20.404 16.4582 21.415C16.7142 21.6576 16.9853 21.8883 17.2666 22.1062C17.0321 22.4567 16.777 22.698 16.4726 22.848C16.4716 22.8486 16.471 22.849 16.47 22.8493C16.2162 22.9739 15.9285 23.0361 15.5898 23.0473C15.5869 23.0473 15.584 23.0476 15.5811 23.0476C14.954 23.0774 14.3664 23.1399 13.8181 23.2348C13.8159 23.2351 13.8136 23.2354 13.8114 23.236C11.1133 23.7042 9.37047 24.9597 8.61392 26.9822H2.09532C0.939835 26.9822 0 27.9237 0 29.0811C0 30.2372 0.939835 31.178 2.09532 31.178H3.70647C4.32619 32.619 5.28493 33.8463 6.50931 34.7714H5.90657C4.89656 34.7714 4.07497 35.5936 4.07497 36.6042V37.8703C4.07497 38.8809 4.89656 39.7032 5.90657 39.7032H9.53741C9.87964 39.7032 10.1571 39.4257 10.1571 39.0835C10.1571 38.7409 9.87964 38.4634 9.53741 38.4634H5.90657C5.58005 38.4634 5.31473 38.1975 5.31473 37.8703V36.6042C5.31473 36.2771 5.58037 36.0111 5.90657 36.0111H18.8178C19.1027 36.0111 19.3411 36.2136 19.3975 36.4828C19.3994 36.5033 19.4026 36.5235 19.4068 36.5437C19.409 36.5636 19.41 36.5837 19.41 36.6042V37.8703C19.41 38.1975 19.1444 38.4634 18.8178 38.4634H12.3611C12.0189 38.4634 11.7414 38.7409 11.7414 39.0835C11.7414 39.4257 12.0189 39.7032 12.3611 39.7032H18.8178C19.8282 39.7032 20.6498 38.8809 20.6498 37.8703V37.0365H35.0712C35.1232 38.1382 36.0335 39.0181 37.1454 39.0181H38.2788C40.0489 39.0181 41.4889 37.5771 41.4889 35.8057V33.3842C41.4889 31.8253 40.3732 30.5224 38.8985 30.2327V21.4906H39.5948ZM34.8332 28.0153L35.5259 30.9515C35.2404 31.3075 35.069 31.759 35.069 32.2502V35.7968H33.306L32.2924 29.9277C32.1671 29.1804 31.7381 28.6174 31.1584 28.3835V24.6149C33.2105 25.1404 34.4201 26.2638 34.8332 28.0153ZM29.9187 24.3835V28.2646H28.3299V24.2432C28.4764 24.2659 28.6302 24.2807 28.7926 24.2861C29.1877 24.305 29.5623 24.338 29.9187 24.3835ZM24.0992 28.2646C23.7801 27.5116 23.0341 26.9822 22.1667 26.9822H17.3865V25.093C18.5689 25.9559 20.2841 26.3414 21.7873 26.399C21.9187 26.4042 22.0526 26.4067 22.1885 26.4067C23.8243 26.4067 25.7585 26.0312 27.0902 25.0391V28.2646H24.0992ZM21.107 29.4672C21.2089 29.0061 21.2224 28.5835 21.1506 28.2217H22.1667C22.6397 28.2217 23.0245 28.6072 23.0245 29.0811C23.0245 29.5537 22.6397 29.9379 22.1667 29.9379H20.9888C21.032 29.7825 21.0718 29.6258 21.107 29.4672ZM29.1044 12.7623V14.4331C28.4818 14.1632 27.6811 13.5983 27.5612 12.4621C28.0765 12.5495 28.5911 12.6498 29.1044 12.7623ZM16.8731 12.4627C16.7536 13.5736 15.9801 14.1399 15.3562 14.4183V12.761C15.8609 12.6492 16.3668 12.5499 16.8731 12.4627ZM15.3562 16.6694V15.7398C15.7404 15.6145 16.2649 15.3924 16.7558 15.0134C17.39 14.5244 18.0994 13.6669 18.1299 12.2717C19.0636 12.1487 19.9964 12.0673 20.9221 12.0295C21.2644 12.0157 21.5303 11.727 21.5165 11.3851C21.5024 11.0429 21.2121 10.7782 20.8718 10.7907C19.732 10.8371 18.5826 10.9467 17.4332 11.1172C17.4281 11.1175 17.423 11.1175 17.4179 11.1182C17.3958 11.1207 17.3743 11.1242 17.3528 11.1287C16.6866 11.2294 16.0204 11.3505 15.3559 11.4921V7.77827C15.3559 7.56422 15.2456 7.36523 15.0636 7.25211C14.1815 6.70257 13.8197 5.96493 14.0459 5.17442C14.2891 4.32302 15.2693 3.46073 16.6719 3.46073H18.7022C18.9348 3.46073 19.1479 3.33064 19.254 3.12363C19.9977 1.67239 21.5585 1.13982 22.7765 1.25646C23.9352 1.36733 24.7988 2.02422 25.0865 3.01405C25.1634 3.27873 25.406 3.46073 25.6819 3.46073H27.865C29.3025 3.46073 30.2054 4.32975 30.4362 5.13693C30.6624 5.92872 30.2836 6.69969 29.3967 7.25211C29.2147 7.36523 29.1044 7.56422 29.1044 7.77827V11.4924C28.4363 11.3521 27.7663 11.2329 27.0963 11.1326C27.0706 11.1265 27.0444 11.121 27.0174 11.1182C27.0091 11.1172 27.0008 11.1172 26.9924 11.1166C25.9482 10.9637 24.9042 10.8586 23.8682 10.8051C23.5279 10.7871 23.2347 11.0502 23.2171 11.3921C23.1995 11.734 23.4625 12.0256 23.8044 12.0433C24.6337 12.0859 25.4688 12.1644 26.3051 12.2736C26.3349 13.7291 27.0998 14.6032 27.783 15.0951C28.2559 15.4354 28.7455 15.6353 29.1044 15.7491V16.3477C29.1044 17.9742 28.2719 19.5808 26.7605 20.8715C25.4172 22.0181 23.6586 22.782 22.1718 22.865C22.1356 22.8669 22.0981 22.8682 22.0594 22.8682C21.1897 22.8679 19.7875 22.3622 18.4666 21.4493C18.4465 21.4333 18.425 21.4189 18.4032 21.4054C18.0267 21.141 17.6579 20.8434 17.3105 20.5146C16.4191 19.6709 15.3562 18.3186 15.3562 16.6694ZM22.0597 24.1079C22.1209 24.1079 22.1814 24.106 22.2404 24.1028C23.5103 24.032 24.8923 23.5706 26.1491 22.8246C26.3317 23.0931 26.5573 23.3607 26.8412 23.592C25.8293 24.7645 23.6846 25.2311 21.8351 25.1602C19.9128 25.0865 18.2962 24.4729 17.5912 23.5888C17.8777 23.3543 18.1042 23.0832 18.2878 22.8115C19.593 23.6129 20.9846 24.1079 22.0597 24.1079ZM15.6356 24.2864C15.8163 24.28 15.9862 24.2621 16.147 24.2348V26.9822H14.5583V24.3771C14.8999 24.3351 15.2585 24.3044 15.6356 24.2864ZM13.3185 24.6024V26.9822H9.96616C10.5654 25.8005 11.6744 25.0122 13.3185 24.6024ZM2.09532 29.9379C1.62364 29.9379 1.23976 29.5537 1.23976 29.0811C1.23976 28.6072 1.62364 28.2217 2.09532 28.2217H3.11206C3.03996 28.5835 3.05342 29.0061 3.15532 29.4672V29.4682C3.19057 29.6268 3.23062 29.7832 3.27292 29.9379H2.09532ZM8.99812 34.7714C6.62434 33.7995 4.93918 31.775 4.36592 29.1996C4.26082 28.7251 4.31017 28.388 4.40021 28.2755C4.41335 28.2595 4.44347 28.222 4.57901 28.222H9.05901H9.06125H9.06317H19.683C19.8195 28.222 19.85 28.2595 19.8628 28.2755C19.9525 28.3873 20.0012 28.7241 19.8964 29.1993C19.3427 31.7006 17.6383 33.7751 15.3254 34.7714H8.99812ZM20.462 35.7968C20.163 35.1898 19.5385 34.7714 18.8182 34.7714H17.7489C18.963 33.8354 19.9281 32.5991 20.5491 31.1777H22.1667C23.1786 31.1777 24.0252 30.4583 24.2216 29.5041H30.5384C30.9521 29.5041 31.0588 30.0683 31.07 30.1356L32.0479 35.7968H20.462ZM40.2491 33.3842V35.8057C40.2491 36.8933 39.3654 37.7783 38.2788 37.7783H37.1457C36.684 37.7783 36.3084 37.4012 36.3084 36.9375V32.2502C36.3084 31.9942 36.4238 31.765 36.6048 31.6112C36.6106 31.6068 36.6161 31.6023 36.6215 31.5975C36.7651 31.4815 36.9474 31.4116 37.1454 31.4116H38.2788C39.3654 31.4116 40.2491 32.2966 40.2491 33.3842ZM35.7973 19.0835V13.6855C35.7973 13.042 36.3203 12.5185 36.9631 12.5185H39.5948C40.2373 12.5185 40.7602 13.042 40.7602 13.6855V19.0835C40.7602 19.7273 40.2373 20.2509 39.5948 20.2509H36.9631C36.3203 20.2509 35.7973 19.7273 35.7973 19.0835Z" fill="black"/>
</svg>
