<svg width="16" height="16" viewBox="0 0 16 16" fill="none" xmlns="http://www.w3.org/2000/svg">
<path d="M14.97 12.3395C13.0644 10.9341 11.1416 10.0026 10.7296 9.80649C10.6781 9.79015 10.6438 9.74112 10.6438 9.67575C10.6438 9.47965 10.6438 8.94038 10.6438 8.38476C10.8498 7.99256 10.97 7.56767 11.0386 7.17547C11.2275 7.28986 11.5193 7.2245 11.8627 6.11326C12.1373 5.19812 11.9657 4.90397 11.7425 4.82226C12.4979 1.35782 10.7639 1.24343 10.7639 1.24343C10.7639 1.24343 10.5064 0.769517 9.81974 0.393657C9.35622 0.148531 8.70386 -0.0639112 7.86266 0.0177974C7.58798 0.0177974 7.3133 0.0831643 7.07296 0.148531C6.76395 0.246581 6.4721 0.393657 6.21459 0.573416C5.90558 0.769517 5.59657 0.998301 5.33906 1.25977C4.92704 1.66831 4.54936 2.19125 4.37768 2.84491C4.22318 3.40053 4.22318 4.00518 4.46352 4.62616C4.15451 4.59348 3.77682 4.77324 4.13734 5.9335C4.39485 6.78327 4.63519 7.0284 4.80687 7.04474C4.8927 7.53499 5.04721 8.07427 5.35622 8.56452V9.67575C5.35622 9.72478 5.32189 9.7738 5.27039 9.80649C4.85837 10.0026 2.93562 10.9341 1.03004 12.3395C0.377682 12.8134 0 13.5651 0 14.3495V15.2483C0 15.6568 0.360515 16 0.7897 16H15.2103C15.6395 16 16 15.6568 16 15.2483V14.3495C16 13.5651 15.6223 12.8134 14.97 12.3395ZM8.34335 7.55133C8.22318 7.64938 8.103 7.69841 7.9485 7.69841C7.79399 7.69841 7.65665 7.64938 7.53648 7.55133C7.41631 7.45328 7.36481 7.32255 7.36481 7.15913C7.36481 7.01205 7.41631 6.88132 7.53648 6.78327C7.63948 6.68522 7.77682 6.61985 7.9485 6.61985C8.103 6.61985 8.24034 6.66888 8.34335 6.78327C8.44635 6.88132 8.51502 7.01205 8.51502 7.15913C8.51502 7.32255 8.46352 7.45328 8.34335 7.55133ZM9.76824 4.20128C9.6824 4.34835 9.5794 4.49543 9.45923 4.59348C9.33906 4.70787 9.11588 4.88763 8.80687 5.16544C8.72103 5.24715 8.65236 5.31252 8.60086 5.36154C8.54936 5.41057 8.51502 5.47593 8.48069 5.52496C8.46352 5.57398 8.42918 5.62301 8.42918 5.67203C8.41202 5.72106 8.39485 5.80277 8.36051 5.91716C8.30901 6.16228 8.15451 6.29302 7.91416 6.29302C7.77682 6.29302 7.67382 6.24399 7.58798 6.16228C7.50215 6.08058 7.45064 5.96618 7.45064 5.80277C7.45064 5.60667 7.48498 5.42691 7.55365 5.27983C7.62232 5.13276 7.70815 5.00202 7.81116 4.88763C7.91416 4.77324 8.06867 4.6425 8.25751 4.49543C8.41202 4.3647 8.53219 4.26664 8.60086 4.18494C8.66953 4.11957 8.7382 4.03786 8.7897 3.95615C8.8412 3.87444 8.85837 3.77639 8.85837 3.67834C8.85837 3.48224 8.7897 3.31882 8.63519 3.18809C8.48069 3.05736 8.29185 2.99199 8.0515 2.99199C7.77682 2.99199 7.57082 3.05736 7.43348 3.18809C7.29614 3.31882 7.19313 3.51493 7.1073 3.77639C7.02146 4.0542 6.84979 4.18494 6.60944 4.18494C6.4721 4.18494 6.35193 4.13591 6.24893 4.03786C6.14592 3.93981 6.09442 3.84176 6.09442 3.72737C6.09442 3.49858 6.16309 3.2698 6.3176 3.02467C6.4721 2.79589 6.69528 2.59979 6.98712 2.43637C7.27897 2.2893 7.62232 2.20759 8.01717 2.20759C8.37768 2.20759 8.70386 2.27295 8.99571 2.40369C9.27039 2.53442 9.49356 2.71418 9.64807 2.92662C9.80257 3.15541 9.87124 3.38419 9.87124 3.64566C9.90558 3.87444 9.85408 4.0542 9.76824 4.20128Z" fill="#6B7BC7"/>
</svg>
