<svg width="13" height="16" viewBox="0 0 13 16" fill="none" xmlns="http://www.w3.org/2000/svg">
<path d="M10.7907 5.95349C10.7907 4.76927 10.3203 3.63355 9.4829 2.79617C8.64552 1.9588 7.5098 1.48837 6.32558 1.48837C5.14136 1.48837 4.00564 1.9588 3.16827 2.79617C2.3309 3.63355 1.86047 4.76927 1.86047 5.95349V11.907H10.7907V5.95349ZM12.2791 12.4033L12.5767 12.8C12.6182 12.8553 12.6435 12.921 12.6497 12.9898C12.6559 13.0587 12.6428 13.1279 12.6119 13.1897C12.581 13.2515 12.5335 13.3034 12.4747 13.3398C12.4159 13.3761 12.3482 13.3953 12.2791 13.3953H0.372093C0.302991 13.3953 0.235254 13.3761 0.176472 13.3398C0.117691 13.3034 0.0701864 13.2515 0.039283 13.1897C0.00837963 13.1279 -0.00470207 13.0587 0.00150369 12.9898C0.00770945 12.921 0.0329574 12.8553 0.0744187 12.8L0.372093 12.4033V5.95349C0.372093 4.37453 0.999334 2.86023 2.11583 1.74374C3.23233 0.627241 4.74662 0 6.32558 0C7.90454 0 9.41884 0.627241 10.5353 1.74374C11.6518 2.86023 12.2791 4.37453 12.2791 5.95349V12.4033ZM4.46512 14.1395H8.18605C8.18605 14.633 7.99003 15.1062 7.64113 15.4551C7.29222 15.804 6.81901 16 6.32558 16C5.83216 16 5.35894 15.804 5.01003 15.4551C4.66113 15.1062 4.46512 14.633 4.46512 14.1395Z" fill="white"/>
</svg>
