<svg width="28" height="29" viewBox="0 0 28 29" fill="none" xmlns="http://www.w3.org/2000/svg">
<path d="M25.1034 20.7607V26.5539C25.1034 27.3538 25.7517 28.0022 26.5517 28.0022C27.3517 28.0022 28 27.3539 28 26.5539V20.7607H25.1034Z" fill="#0071BC"/>
<path d="M23.6557 0C24.4556 0 25.104 0.648326 25.104 1.4483V26.5519C25.104 27.3519 25.7523 28.0002 26.5523 28.0002H4.34515C3.54523 28.0002 2.89685 27.3519 2.89685 26.5519V1.4483C2.89691 0.648326 3.54523 0 4.34515 0H23.6557Z" fill="#E6E6E6"/>
<path d="M4.3451 0H23.6556C24.4555 0 25.1039 0.648326 25.1039 1.4483V3.86212H2.89685V1.4483C2.89685 0.648326 3.54518 0 4.3451 0Z" fill="#0071BC"/>
<path d="M5.31055 6.27539H11.1037V12.0685H5.31055V6.27539Z" fill="#29ABE2"/>
<path d="M5.31006 14.4795H22.6895V18.3416H5.31006V14.4795Z" fill="#29ABE2"/>
<path d="M18.8278 25.1013L22.6899 23.1703L18.8278 21.2393H0V25.1014H18.8278V25.1013Z" fill="#DA4836"/>
<path d="M2.41406 21.2393H4.3451V25.1014H2.41406V21.2393Z" fill="#F8CF26"/>
<path d="M0 21.2393H2.41382V25.1014H0V21.2393Z" fill="#FBB03B"/>
<path d="M18.8276 21.2393L22.6898 23.1703L18.8276 25.1013V21.2393Z" fill="#C69C6D"/>
<path d="M4.34509 23.1748H18.828V25.1058H4.34509V23.1748Z" fill="#F7931E"/>
<path d="M13.0347 7.7207H23.1727V8.68622H13.0347V7.7207Z" fill="#999999"/>
<path d="M13.0347 9.65723H23.1727V10.6227H13.0347V9.65723Z" fill="#999999"/>
<path d="M13.0347 11.584H21.2416V12.5495H13.0347V11.584Z" fill="#999999"/>
<path d="M16.8966 5.79297H23.1725V6.75849H16.8966V5.79297Z" fill="#999999"/>
<path d="M14.9655 5.79297H15.931V6.75849H14.9655V5.79297Z" fill="#999999"/>
<path d="M4.34509 1.44727H5.31061V2.41278H4.34509V1.44727Z" fill="#DA4836"/>
<path d="M6.27612 1.44727H7.24164V2.41278H6.27612V1.44727Z" fill="#F8CF26"/>
<path d="M8.20715 1.44727H9.17267V2.41278H8.20715V1.44727Z" fill="#3DBF50"/>
</svg>
