<svg width="29" height="29" viewBox="0 0 29 29" fill="none" xmlns="http://www.w3.org/2000/svg">
<path d="M9.05297 9.87651C9.30681 10.1303 9.71837 10.1303 9.97221 9.87651C10.2261 9.62267 10.2261 9.21111 9.97221 8.95727L9.05297 9.87651ZM6.5521 7.37564L9.05297 9.87651L9.97221 8.95727L7.47134 6.4564L6.5521 7.37564Z" fill="#A08E85"/>
<path d="M20.2759 9.88037C20.0246 10.1368 19.6131 10.1409 19.3567 9.88966C19.1003 9.63839 19.0961 9.22686 19.3474 8.97046L20.2759 9.88037ZM22.7513 7.35437L20.2759 9.88037L19.3474 8.97046L21.8229 6.44446L22.7513 7.35437Z" fill="#A08E85"/>
<line x1="14.7242" y1="4.46543" x2="14.7242" y2="6.7022" stroke="#A08E85" stroke-width="1.3" stroke-linecap="round"/>
<path fill-rule="evenodd" clip-rule="evenodd" d="M24.3475 16.377C24.4477 15.8009 24.5 15.2078 24.5 14.602C24.5 8.98594 20.006 4.46387 14.5 4.46387C8.99399 4.46387 4.5 8.98594 4.5 14.602C4.5 15.2078 4.55229 15.8009 4.65251 16.377H3.13289C3.04539 15.7983 3 15.2055 3 14.602C3 8.17445 8.14873 2.96387 14.5 2.96387C20.8513 2.96387 26 8.17445 26 14.602C26 15.2055 25.9546 15.7983 25.8671 16.377H24.3475Z" fill="#A08E85"/>
<path d="M3.65 16.0689H25.3439V20.9997C25.3439 22.8499 23.8441 24.3497 21.9939 24.3497H7C5.14985 24.3497 3.65 22.8499 3.65 20.9997V16.0689Z" stroke="#A08E85" stroke-width="1.3"/>
<path d="M13 9.96387L13.7613 13.3475C13.9246 14.0734 14.8072 14.3575 15.3633 13.8631C15.7143 13.5511 15.7443 13.0131 15.4301 12.664L13 9.96387Z" stroke="#A08E85" stroke-width="1.3"/>
</svg>
