<svg width="42" height="41" viewBox="0 0 42 41" fill="none" xmlns="http://www.w3.org/2000/svg">
  <path fill-rule="evenodd" clip-rule="evenodd" d="M41.9898 21.66C41.9966 21.4408 42 21.2208 42 21C42 9.40201 32.598 0 21 0C9.40202 0 0 9.40201 0 21C0 21.2208 0.00340803 21.4408 0.0101744 21.66H41.9898Z" fill="#D4EDEC"/>
  <path d="M0 20.64H42V37.74C42 39.0323 40.9523 40.08 39.66 40.08H2.34C1.04765 40.08 0 39.0323 0 37.74V20.64Z" fill="#1492EA"/>
  <path fill-rule="evenodd" clip-rule="evenodd" d="M41.04 21.6H0.96V37.74C0.96 38.5021 1.57785 39.12 2.34 39.12H39.66C40.4221 39.12 41.04 38.5021 41.04 37.74V21.6ZM0 20.64V37.74C0 39.0323 1.04765 40.08 2.34 40.08H39.66C40.9523 40.08 42 39.0323 42 37.74V20.64H0Z" fill="#F7F7F7"/>
  <path fill-rule="evenodd" clip-rule="evenodd" d="M41.9898 21.66C41.9966 21.4408 42 21.2208 42 21C42 9.40201 32.598 0 21 0C9.40202 0 0 9.40201 0 21C0 21.2208 0.00340803 21.4408 0.0101744 21.66H41.9898ZM41.0378 20.7H35.9818L35.9818 20.6979L35.9812 20.6801C35.8623 16.9704 34.3954 13.601 32.0543 11.0459L35.6878 7.36644C38.9459 10.8749 40.9623 15.5524 41.0378 20.7ZM35.0178 6.67861L31.3834 10.359C28.824 7.8999 25.3931 6.34107 21.6 6.19176V0.968809C26.8188 1.12226 31.5369 3.27102 35.0178 6.67861ZM6.47271 7.19561C3.12044 10.7223 1.03897 15.4684 0.9622 20.7H6.0182L6.01826 20.6979L6.01882 20.6801C6.13951 16.9141 7.64942 13.4989 10.0529 10.9302L6.47271 7.19561ZM7.15066 6.51557C10.6685 3.15105 15.4099 1.05531 20.64 0.963168V6.18421C19.6527 6.20749 18.6891 6.32622 17.7579 6.53153L18.1222 7.43543C19.0511 7.24177 20.0137 7.13997 21 7.13997C28.5844 7.13997 34.7631 13.1585 35.0207 20.6801H6.97936C7.16619 15.2249 10.4676 10.5604 15.1609 8.40914L14.823 7.50792C13.3077 8.19415 11.9269 9.12508 10.7309 10.2503L7.15066 6.51557Z" fill="#F7F7F7"/>
  <path fill-rule="evenodd" clip-rule="evenodd" d="M35.9796 20.7H41.0355C40.96 15.5524 38.9436 10.8749 35.6855 7.36647L32.052 11.046C34.3932 13.6011 35.8601 16.9704 35.979 20.6801L35.9795 20.698L35.9796 20.7ZM31.3812 10.3591L35.0156 6.67864C31.5347 3.27105 26.8166 1.12229 21.5978 0.968838V6.19181C25.3908 6.34113 28.8217 7.89997 31.3812 10.3591ZM0.959961 20.7C1.03673 15.4684 3.1182 10.7223 6.47047 7.19563L10.0506 10.9302C7.64716 13.4989 6.13724 16.9141 6.01655 20.6801L6.01599 20.698L6.01593 20.7H0.959961ZM20.6378 0.963196C15.4076 1.05533 10.6662 3.15108 7.14842 6.51559L10.7287 10.2503C11.9246 9.12511 13.3055 8.19418 14.8207 7.50795L15.1587 8.40917C10.4653 10.5604 7.16393 15.2249 6.97709 20.6801H35.0184C34.7608 13.1585 28.5821 7.14002 20.9978 7.14002C20.0114 7.14002 19.0488 7.24182 18.12 7.43547L17.7557 6.53158C18.6868 6.32626 19.6505 6.20753 20.6378 6.18426V0.963196Z" fill="#20A1EB"/>
  <path fill-rule="evenodd" clip-rule="evenodd" d="M20.6375 0.963196C15.4073 1.05533 10.6659 3.15108 7.14812 6.51559L10.7284 10.2503C11.9243 9.12511 13.3052 8.19418 14.8204 7.50795L15.1584 8.40917C10.465 10.5604 7.16362 15.2249 6.97679 20.6801H35.0181C34.7605 13.1585 28.5818 7.14002 20.9975 7.14002C20.0111 7.14002 19.0485 7.24182 18.1196 7.43547L17.7554 6.53158C18.6865 6.32626 19.6502 6.20753 20.6375 6.18426V0.963196Z" fill="#F7C600"/>
  <path fill-rule="evenodd" clip-rule="evenodd" d="M22.1159 17.5712C23.6137 17.9596 24.7198 19.3207 24.7198 20.94C24.7198 22.862 23.1617 24.42 21.2398 24.42C19.3178 24.42 17.7598 22.862 17.7598 20.94C17.7598 20.0846 18.0684 19.3013 18.5804 18.6954C16.9728 16.3091 15.7321 8.35335 15.2998 4.53001C18.5693 9.29616 21.5848 13.9187 22.1159 17.5712Z" fill="#3D3C3D"/>
  <circle cx="21.24" cy="20.94" r="1.74" fill="#F7F7F7"/>
  <path fill-rule="evenodd" clip-rule="evenodd" d="M31.381 10.359L35.0154 6.67859C31.5345 3.271 26.8164 1.12224 21.5976 0.968781V6.19176C25.3906 6.34108 28.8215 7.89991 31.381 10.359Z" fill="#3EB661"/>
  <path d="M35.9793 20.7H41.0353C40.9597 15.5524 38.9434 10.8748 35.6853 7.36642L32.0518 11.0459C34.3929 13.6011 35.8598 16.9704 35.9787 20.6801L35.9792 20.6979L35.9793 20.7Z" fill="#F45146"/>
  <path d="M12.4573 25.98C13.5427 25.98 14.4252 26.2207 15.105 26.7021C15.7847 27.1726 16.1246 27.9713 16.1246 29.0982C16.1246 29.514 16.0259 29.8915 15.8286 30.2307C15.6422 30.5589 15.3955 30.8434 15.0885 31.0841C15.5928 31.3467 16.004 31.7022 16.3219 32.1508C16.6508 32.5994 16.8153 33.1684 16.8153 33.8577C16.8153 34.8861 16.4535 35.6903 15.7299 36.2702C15.0173 36.8501 14.0635 37.14 12.8684 37.14H8.28027V25.98H12.4573ZM12.1449 27.7525H10.4017V30.5261H11.9804C12.5724 30.5261 13.0329 30.4167 13.3618 30.1978C13.7017 29.9681 13.8716 29.6125 13.8716 29.1311C13.8716 28.6059 13.7181 28.2448 13.4111 28.0479C13.1042 27.851 12.6821 27.7525 12.1449 27.7525ZM12.852 32.2493H10.4017V35.384H12.704C13.2741 35.384 13.7291 35.2527 14.0689 34.9901C14.4198 34.7275 14.5952 34.3555 14.5952 33.8741C14.5952 33.3489 14.4362 32.9495 14.1183 32.676C13.8003 32.3915 13.3782 32.2493 12.852 32.2493Z" fill="white"/>
  <path d="M23.794 33.7592L21.1135 30.3291V37.14H18.9921V25.98H20.3405L24.1229 31.1333L27.5599 25.98H28.8591V37.14H26.7048V30.7066L24.6163 33.6443L23.794 33.7592Z" fill="white"/>
  <path d="M33.7203 25.98V37.14H31.5989V25.98H33.7203Z" fill="white"/>
</svg>
