<svg width="16" height="16" viewBox="0 0 16 16" fill="none" xmlns="http://www.w3.org/2000/svg">
<path d="M13.1574 10.5313L11.8761 9.25L13.1574 7.96869C13.494 7.63211 13.761 7.23252 13.9432 6.79275C14.1253 6.35298 14.2191 5.88163 14.2191 5.40563C14.2191 4.92962 14.1253 4.45828 13.9432 4.01851C13.761 3.57874 13.494 3.17915 13.1574 2.84257C12.8208 2.50598 12.4213 2.23899 11.9815 2.05683C11.5417 1.87467 11.0704 1.78091 10.5944 1.78091C10.1184 1.78091 9.64702 1.87467 9.20725 2.05683C8.76748 2.23899 8.3679 2.50598 8.03131 2.84257L6.75 4.12387L5.4687 2.84257L6.75 1.56126C7.77243 0.555354 9.15092 -0.00579513 10.5852 4.51349e-05C12.0195 0.0058854 13.3934 0.578242 14.4076 1.59244C15.4218 2.60664 15.9941 3.98052 16 5.4148C16.0058 6.84908 15.4446 8.22757 14.4387 9.25L13.1574 10.5313ZM10.5939 13.0948L9.31261 14.3761C8.80926 14.8877 8.2096 15.2946 7.5482 15.5733C6.88681 15.852 6.17678 15.997 5.45908 16C4.74137 16.0029 4.03018 15.8637 3.36654 15.5904C2.7029 15.3171 2.09994 14.9151 1.59244 14.4076C1.08494 13.9001 0.682943 13.2971 0.409636 12.6335C0.13633 11.9698 -0.00287736 11.2586 4.50768e-05 10.5409C0.00296752 9.82322 0.147961 9.11319 0.426664 8.4518C0.705366 7.7904 1.11226 7.19074 1.62388 6.68739L2.90518 5.40608L4.18649 6.68739L2.90518 7.96869C2.5686 8.30528 2.3016 8.70486 2.11944 9.14464C1.93728 9.58441 1.84353 10.0557 1.84353 10.5318C1.84353 11.0078 1.93728 11.4791 2.11944 11.9189C2.3016 12.3586 2.5686 12.7582 2.90518 13.0948C3.24177 13.4314 3.64135 13.6984 4.08113 13.8806C4.5209 14.0627 4.99224 14.1565 5.46825 14.1565C5.94425 14.1565 6.41559 14.0627 6.85537 13.8806C7.29514 13.6984 7.69472 13.4314 8.03131 13.0948L9.31261 11.8135L10.5939 13.0948ZM10.5939 4.12387L11.8761 5.40608L5.4687 11.8126L4.18649 10.5313L10.5939 4.12478V4.12387Z" fill="#6B7BC7"/>
</svg>
