<svg width="106" height="135" viewBox="0 0 106 135" fill="none" xmlns="http://www.w3.org/2000/svg">
<path d="M4.44652 107.797C2.38135 107.245 0.755091 105.619 0.203057 103.553L0.686097 103.424C0.564808 102.971 0.5 102.493 0.5 102V100.545H0V94.7273H0.5V91.8182H0V86H0.5V83.0909H0V77.2727H0.5V74.3636H0V68.5455H0.5V65.6364H0V59.8182H0.5V56.9091H0V51.0909H0.5V48.1818H0V42.3636H0.5V39.4545H0V33.6364H0.5V30.7273H0V24.9091H0.5V22H0V16.1818H0.5V13.2727H0V7.45455H0.5V6C0.5 5.50674 0.564808 5.02939 0.686096 4.57564L0.203056 4.44652C0.755089 2.38135 2.38134 0.75509 4.44652 0.203056L4.57564 0.686097C5.02939 0.564808 5.50674 0.5 6 0.5H7.56669V0H13.8334V0.5H16.9667V0H23.2333V0.5H26.3667V0H32.6333V0.5H35.7667V0H42.0333V0.5H45.1667V0H51.4333V0.5H54.5667V0H60.8333V0.5H63.9667V0H70.2333V0.5H73.3667V0H79.6333V0.5H82.7667V0H89.0333V0.5H92.1667V0H98.4333V0.5H100C100.493 0.5 100.971 0.564808 101.424 0.686097L101.553 0.203057C103.619 0.755091 105.245 2.38135 105.797 4.44652L105.314 4.57564C105.435 5.02939 105.5 5.50674 105.5 6V7.45455H106V13.2727H105.5V16.1818H106V22H105.5V24.9091H106V30.7273H105.5V33.6364H106V39.4545H105.5V42.3636H106V48.1818H105.5V51.0909H106V56.9091H105.5V59.8182H106V65.6364H105.5V68.5455H106V74.3636H105.5V77.2727H106V83.0909H105.5V86H106V91.8182H105.5V94.7273H106V100.545H105.5V102C105.5 102.493 105.435 102.971 105.314 103.424L105.797 103.553C105.245 105.619 103.619 107.245 101.553 107.797L101.424 107.314C100.971 107.435 100.493 107.5 100 107.5H98.4333V108H92.1666V107.5H89.0333V108H82.7666V107.5H79.6333V108H73.3667V107.5H70.2333V108H63.9667V107.5H60.8333V108H54.5667V107.5H51.4333V108H45.1667V107.5H42.0333V108H35.7667V107.5H32.6333V108H26.3667V107.5H23.2333V108H16.9667V107.5H13.8333V108H7.56667V107.5H6C5.50674 107.5 5.02939 107.435 4.57564 107.314L4.44652 107.797Z" fill="#F5F5F5" stroke="#90BCF0" stroke-dasharray="3 6"/>
<path d="M57 44L62 49V63.008C61.9997 63.2712 61.895 63.5235 61.7088 63.7095C61.5226 63.8955 61.2702 64 61.007 64H44.993C44.7304 63.9982 44.479 63.8931 44.2932 63.7075C44.1074 63.5219 44.0021 63.2706 44 63.008V44.992C44 44.444 44.445 44 44.993 44H57ZM52 53H49V55H52V58H54V55H57V53H54V50H52V53Z" fill="#90BCF0"/>
</svg>
