<svg width="18" height="10" viewBox="0 0 18 10" fill="none" xmlns="http://www.w3.org/2000/svg">
<path d="M17.64 4.30105C17.4695 4.13053 13.7368 0 9 0C4.26316 0 0.530526 4.13053 0.36 4.32L0 4.71789L0.36 5.13474C0.530526 5.30526 4.26316 9.43579 9 9.43579C13.7368 9.43579 17.4695 5.30526 17.64 5.11579L18 4.69895L17.64 4.30105ZM9 7.99579C7.2 7.99579 5.72211 6.51789 5.72211 4.71789C5.72211 2.91789 7.2 1.44 9 1.44C10.8 1.44 12.2779 2.91789 12.2779 4.71789C12.2779 6.51789 10.8 7.99579 9 7.99579ZM5.26737 2.17895C4.77474 2.89895 4.49053 3.77053 4.49053 4.71789C4.49053 5.66526 4.77474 6.5179 5.26737 7.25684C3.61895 6.44211 2.33053 5.32421 1.70526 4.71789C2.33053 4.11158 3.61895 2.99368 5.26737 2.17895ZM12.7326 7.25684C13.2253 6.53684 13.5095 5.66526 13.5095 4.71789C13.5095 3.78947 13.2253 2.91789 12.7326 2.17895C14.3811 2.99368 15.6695 4.11158 16.2947 4.71789C15.6695 5.32421 14.3811 6.44211 12.7326 7.25684Z" fill="white"/>
</svg>
