<svg width="62" height="61" viewBox="0 0 62 61" fill="none" xmlns="http://www.w3.org/2000/svg">
  <path opacity="0.7" fill-rule="evenodd" clip-rule="evenodd" d="M31.0001 60.7804C47.7591 60.7804 61.3449 47.1946 61.3449 30.4356C61.3449 13.6766 47.7591 0.0907745 31.0001 0.0907745C14.2411 0.0907745 0.655273 13.6766 0.655273 30.4356C0.655273 47.1946 14.2411 60.7804 31.0001 60.7804ZM13.6897 22.1598C12.5851 22.1598 11.6897 23.0552 11.6897 24.1598V44.9873C11.6897 46.0919 12.5851 46.9874 13.6897 46.9874H20.7241C21.8287 46.9874 22.7241 46.0919 22.7241 44.9873V24.1598C22.7241 23.0552 21.8287 22.1598 20.7241 22.1598H13.6897ZM25.4828 11.746C25.4828 10.6414 26.3782 9.74597 27.4828 9.74597H34.5172C35.6218 9.74597 36.5172 10.6414 36.5172 11.746V44.9873C36.5172 46.0919 35.6218 46.9873 34.5172 46.9873H27.4828C26.3782 46.9873 25.4828 46.0919 25.4828 44.9873V11.746ZM41.2759 31.8149C40.1713 31.8149 39.2759 32.7104 39.2759 33.8149V44.9873C39.2759 46.0919 40.1713 46.9873 41.2759 46.9873H48.3103C49.4149 46.9873 50.3103 46.0919 50.3103 44.9874V33.8149C50.3103 32.7104 49.4149 31.8149 48.3103 31.8149H41.2759Z" fill="#3C7D98"/>
  <path d="M32.3791 20.7805H30.6155V15.9915L30.6326 15.2047L30.6612 14.3443C30.3682 14.6349 30.1646 14.8255 30.0505 14.916L29.0916 15.6802L28.2412 14.6273L30.9294 12.5046H32.3791V20.7805Z" fill="#DC4369"/>
  <path d="M19.9655 33.1942H14.4698V31.9944L16.4433 29.9241C17.0276 29.3028 17.4094 28.8731 17.5887 28.635C17.7679 28.3932 17.897 28.1699 17.9758 27.9653C18.0547 27.7607 18.0941 27.5487 18.0941 27.3292C18.0941 27.0018 18.0063 26.7581 17.8306 26.5981C17.6586 26.4381 17.4273 26.3581 17.137 26.3581C16.8322 26.3581 16.5365 26.4307 16.2497 26.5758C15.9629 26.7209 15.6635 26.9274 15.3517 27.1952L14.4482 26.0847C14.8354 25.7424 15.1563 25.5006 15.4108 25.3592C15.6653 25.2179 15.9432 25.11 16.2443 25.0356C16.5454 24.9574 16.8824 24.9184 17.2553 24.9184C17.7464 24.9184 18.1802 25.0114 18.5566 25.1974C18.933 25.3834 19.2252 25.6438 19.4331 25.9787C19.641 26.3135 19.745 26.6967 19.745 27.1283C19.745 27.504 19.6805 27.8574 19.5514 28.1885C19.4259 28.5159 19.2288 28.8526 18.9599 29.1986C18.6946 29.5446 18.225 30.0375 17.551 30.6774L16.5401 31.6652V31.7433H19.9655V33.1942Z" fill="#EBAA40"/>
  <path d="M47.3175 36.4897C47.3175 36.9926 47.1666 37.4203 46.865 37.7727C46.5633 38.1251 46.1399 38.3673 45.5947 38.4995V38.5325C46.238 38.6133 46.725 38.8115 47.0558 39.1272C47.3865 39.4392 47.5519 39.8614 47.5519 40.3936C47.5519 41.1682 47.2739 41.772 46.7178 42.2052C46.1617 42.6347 45.3675 42.8494 44.3353 42.8494C43.4703 42.8494 42.7034 42.7044 42.0347 42.4144V40.9663C42.3436 41.1241 42.6834 41.2526 43.0542 41.3517C43.4249 41.4508 43.792 41.5004 44.1554 41.5004C44.7115 41.5004 45.1222 41.4049 45.3875 41.2141C45.6529 41.0232 45.7855 40.7167 45.7855 40.2945C45.7855 39.9164 45.6329 39.6485 45.3276 39.4906C45.0223 39.3328 44.5352 39.2538 43.8665 39.2538H43.2613V37.9489H43.8774C44.4953 37.9489 44.9459 37.8681 45.2294 37.7066C45.5166 37.5414 45.6601 37.2606 45.6601 36.8641C45.6601 36.2548 45.2821 35.9501 44.5261 35.9501C44.2645 35.9501 43.9973 35.9942 43.7247 36.0823C43.4558 36.1704 43.1559 36.3227 42.8252 36.5393L42.0456 35.3664C42.7725 34.8378 43.6393 34.5735 44.6461 34.5735C45.4711 34.5735 46.1217 34.7424 46.5978 35.0801C47.0776 35.4178 47.3175 35.8877 47.3175 36.4897Z" fill="#3C7D98"/>
</svg>
