<svg width="16" height="16" viewBox="0 0 16 16" fill="none" xmlns="http://www.w3.org/2000/svg">
<path d="M0 16C0 14.3834 0.642695 12.8331 1.7867 11.69C2.93071 10.5469 4.48231 9.90476 6.10018 9.90476C7.71804 9.90476 9.26965 10.5469 10.4137 11.69C11.5577 12.8331 12.2004 14.3834 12.2004 16H0ZM6.10018 9.14286C3.57242 9.14286 1.52504 7.09714 1.52504 4.57143C1.52504 2.04571 3.57242 0 6.10018 0C8.62794 0 10.6753 2.04571 10.6753 4.57143C10.6753 7.09714 8.62794 9.14286 6.10018 9.14286ZM11.7146 10.8442C12.881 11.1437 13.9231 11.8033 14.6925 12.729C15.4619 13.6547 15.9195 14.7994 16 16H13.7254C13.7254 14.0114 12.9629 12.2011 11.7146 10.8442ZM10.172 9.1101C10.811 8.53903 11.322 7.83949 11.6716 7.05733C12.0211 6.27517 12.2013 5.42803 12.2004 4.57143C12.202 3.53026 11.9354 2.50619 11.4264 1.59771C12.2901 1.77112 13.067 2.238 13.6251 2.91901C14.1832 3.60002 14.4881 4.45312 14.4879 5.33333C14.4881 5.87616 14.3722 6.41277 14.1479 6.90718C13.9236 7.40159 13.5962 7.84239 13.1875 8.20003C12.7788 8.55767 12.2983 8.82389 11.7782 8.98085C11.2582 9.1378 10.7105 9.18187 10.172 9.1101Z" fill="#6B7BC7"/>
</svg>
