<svg width="33" height="32" viewBox="0 0 33 32" fill="none" xmlns="http://www.w3.org/2000/svg">
  <g filter="url(#filter0_d)">
    <path d="M22.6818 19.1857C22.6818 19.4017 22.6004 19.6088 22.4555 19.7615C22.3106 19.9142 22.114 20 21.9091 20H11.0909C10.886 20 10.6894 19.9142 10.5445 19.7615C10.3996 19.6088 10.3182 19.4017 10.3182 19.1857V11.8568H8L15.98 4.21201C16.1222 4.0756 16.3077 4 16.5 4C16.6923 4 16.8778 4.0756 17.02 4.21201L25 11.8568H22.6818V19.1857ZM14.1818 11.0425V15.9284H18.8182V11.0425H14.1818ZM15.7273 12.6711H17.2727V14.2998H15.7273V12.6711Z" fill="#6B7BC7"/>
  </g>
  <defs>
    <filter id="filter0_d" x="0" y="0" width="33" height="32" filterUnits="userSpaceOnUse" color-interpolation-filters="sRGB">
      <feFlood flood-opacity="0" result="BackgroundImageFix"/>
      <feColorMatrix in="SourceAlpha" type="matrix" values="0 0 0 0 0 0 0 0 0 0 0 0 0 0 0 0 0 0 127 0"/>
      <feOffset dy="4"/>
      <feGaussianBlur stdDeviation="4"/>
      <feColorMatrix type="matrix" values="0 0 0 0 0.419608 0 0 0 0 0.482353 0 0 0 0 0.780392 0 0 0 0.3 0"/>
      <feBlend mode="normal" in2="BackgroundImageFix" result="effect1_dropShadow"/>
      <feBlend mode="normal" in="SourceGraphic" in2="effect1_dropShadow" result="shape"/>
    </filter>
  </defs>
</svg>
