<svg width="29" height="29" viewBox="0 0 29 29" fill="none" xmlns="http://www.w3.org/2000/svg">
<path d="M7 27L9.5 23.5" stroke="#529E8B" stroke-width="1.3" stroke-linecap="round"/>
<path d="M22.5 27L20 23.5" stroke="#529E8B" stroke-width="1.3" stroke-linecap="round"/>
<path d="M14.5 1C14.5 2.5 14.3524 3.7158 11.9999 4.5C10.5 5 10 6.5 10 8.5" stroke="#529E8B" stroke-width="1.3" stroke-linecap="round"/>
<path d="M21.5 1C21.5 2.5 21.3524 3.7158 18.9999 4.5C17.5 5 17 6.5 17 8.5" stroke="#529E8B" stroke-width="1.3" stroke-linecap="round"/>
<path d="M6.8 11.65H22.2C23.3874 11.65 24.35 12.6126 24.35 13.8V14.5C24.35 19.94 19.94 24.35 14.5 24.35C9.06 24.35 4.65 19.94 4.65 14.5V13.8C4.65 12.6126 5.61259 11.65 6.8 11.65Z" stroke="#529E8B" stroke-width="1.3"/>
</svg>
