<svg width="16" height="16" viewBox="0 0 16 16" fill="none" xmlns="http://www.w3.org/2000/svg">
<path d="M6.10909 5.78475H1.45455C1.06878 5.78475 0.698808 5.95033 0.426027 6.24506C0.153248 6.53978 9.53674e-07 6.93952 9.53674e-07 7.35633V9.00963C-0.00019455 9.215 0.0368671 9.41843 0.109092 9.6084L2.36 15.5136C2.41491 15.6576 2.50817 15.7807 2.62795 15.8673C2.74772 15.9539 2.88861 16.0001 3.03273 16H15.2727C15.4656 16 15.6506 15.9172 15.787 15.7698C15.9234 15.6225 16 15.4226 16 15.2142V7.35633C16 7.14792 15.9234 6.94806 15.787 6.80069C15.6506 6.65333 15.4656 6.57054 15.2727 6.57054H12.7404C12.6239 6.57057 12.5092 6.5404 12.4058 6.48256C12.3024 6.42472 12.2134 6.3409 12.1462 6.23815L8.18036 0.166367C8.13023 0.0896058 8.0563 0.0347952 7.97197 0.0118736C7.88765 -0.0110481 7.79851 -0.000563287 7.72073 0.0414268L6.40145 0.754137C6.03018 0.95464 5.73358 1.28636 5.56092 1.69419C5.38827 2.10201 5.34996 2.56139 5.45236 2.99599L6.10909 5.78475ZM11.6364 7.81837V14.4284H3.52L1.45455 9.00963V7.35633H6.10909C6.33062 7.35629 6.54921 7.30159 6.7482 7.19639C6.94718 7.09119 7.12129 6.93827 7.25726 6.7493C7.39322 6.56033 7.48743 6.3403 7.53272 6.106C7.578 5.8717 7.57315 5.62933 7.51855 5.39736L6.86182 2.60938C6.84127 2.52242 6.84889 2.43047 6.88342 2.34884C6.91796 2.26721 6.97732 2.20081 7.05164 2.1607L7.53236 1.90139L10.9578 7.14417C11.1396 7.42233 11.3724 7.65021 11.6364 7.81837ZM13.0909 8.14212H14.5455V14.4284H13.0909V8.14212Z" fill="#696969"/>
</svg>
