<svg width="16" height="16" viewBox="0 0 16 16" fill="none" xmlns="http://www.w3.org/2000/svg">
<path d="M15.2727 6.32256H13.0909V16H15.2727C15.4656 16 15.6506 15.915 15.787 15.7638C15.9234 15.6126 16 15.4074 16 15.1935V7.12901C16 6.91513 15.9234 6.71 15.787 6.55876C15.6506 6.40752 15.4656 6.32256 15.2727 6.32256ZM11.4233 5.27981L6.76873 0.118513C6.70687 0.0497172 6.62468 0.00800169 6.5373 0.00103779C6.44991 -0.00592612 6.36319 0.0223299 6.29309 0.0806092L5.67273 0.596739C5.50044 0.740163 5.3703 0.936944 5.29872 1.16227C5.22715 1.38759 5.21735 1.63138 5.27055 1.86287L6.10909 5.51611H1.45455C1.06878 5.51611 0.698808 5.68604 0.426027 5.98852C0.153248 6.29099 9.53674e-07 6.70124 9.53674e-07 7.12901V8.82579C-0.00019455 9.03657 0.0368671 9.24534 0.109092 9.44031L2.36 15.5008C2.41491 15.6486 2.50817 15.7749 2.62795 15.8638C2.74772 15.9527 2.88861 16.0001 3.03273 16H10.9091C11.102 16 11.287 15.915 11.4234 15.7638C11.5597 15.6126 11.6364 15.4074 11.6364 15.1935V5.84998C11.6363 5.63611 11.5597 5.43102 11.4233 5.27981Z" fill="#6B7BC7"/>
</svg>
