<svg width="18" height="18" viewBox="0 0 18 18" fill="none" xmlns="http://www.w3.org/2000/svg">
<path fill-rule="evenodd" clip-rule="evenodd" d="M0.951 17.787C1.23833 17.9407 1.56199 18.0135 1.88745 17.9976C2.21291 17.9818 2.52796 17.8779 2.799 17.697L5.946 15.597H15C15.7951 15.597 16.5577 15.2813 17.1203 14.7194C17.6828 14.1574 17.9992 13.3951 18 12.6V3C18 2.20435 17.6839 1.44129 17.1213 0.87868C16.5587 0.316071 15.7957 0 15 0H3C2.20435 0 1.44129 0.316071 0.87868 0.87868C0.316071 1.44129 0 2.20435 0 3V16.2C3.59286e-05 16.5258 0.0885144 16.8455 0.255998 17.125C0.423482 17.4045 0.663689 17.6333 0.951 17.787ZM1.8 13.8V3C1.8 2.68174 1.92643 2.37652 2.15147 2.15147C2.37652 1.92643 2.68174 1.8 3 1.8H15C15.3183 1.8 15.6235 1.92643 15.8485 2.15147C16.0736 2.37652 16.2 2.68174 16.2 3V12.6C16.2 12.9183 16.0736 13.2235 15.8485 13.4485C15.6235 13.6736 15.3183 13.8 15 13.8H5.4L1.8 16.2V13.8ZM13.5 4.5H4.5V6.3H13.5V4.5ZM4.5 9.3H13.5V11.1H4.5V9.3Z" fill="white"/>
</svg>
