<svg width="26" height="26" viewBox="0 0 26 26" fill="none" xmlns="http://www.w3.org/2000/svg">
<path d="M20.7591 22.3103L23.2725 25.4123H3.54189C2.75826 25.4123 2.00669 25.0974 1.45243 24.5368C0.898172 23.9761 0.586588 23.2157 0.586182 22.4226V0.585938H20.7591V24.1052" fill="#EEEFEE"/>
<path d="M20.759 12.0273H25.4138V23.0578C25.4138 23.6825 25.1685 24.2816 24.7321 24.7233C24.2956 25.165 23.7036 25.4132 23.0864 25.4132C22.4691 25.4132 21.8772 25.165 21.4407 24.7233C21.0042 24.2816 20.759 23.6825 20.759 23.0578V12.0273Z" fill="#DBD8DD"/>
<path fill-rule="evenodd" clip-rule="evenodd" d="M13.5669 5.50138L14.4972 2.10117L13.6087 2.10049L13.1961 3.80203L12.7314 2.10063H12.3977H12.3281H12.2584H11.9217L11.457 3.80203L11.0445 2.10063H10.1585L11.0868 5.50107H11.3956H11.4306H11.47H11.8044L12.3275 3.5906L12.8492 5.50138H13.1832H13.2226H13.2575H13.5669ZM6.1024 5.50107H6.84794V2.10094H6.0222V3.87877L4.85601 2.10094H4.11108V5.50107H4.93622V3.72324L6.1024 5.50107ZM7.26787 5.50107H9.88928L9.88785 4.6871H8.11048V4.15975H9.71079V3.34609H8.11048V2.9146H9.82266V2.10094H7.26787V5.50107ZM17.0417 3.16555V3.16134V3.16555ZM14.9664 5.21275L14.9724 5.21817L14.9787 5.22316C15.2809 5.46086 15.6587 5.57767 16.0402 5.55166C16.3693 5.56371 16.6924 5.45831 16.9528 5.25362L16.9533 5.25325C17.0755 5.15669 17.1739 5.03283 17.2408 4.89135C17.3067 4.75216 17.3404 4.59963 17.3394 4.44536C17.3492 4.21407 17.271 3.98766 17.1207 3.81286L17.1185 3.81025L17.1161 3.8077C16.9838 3.66275 16.819 3.55221 16.6355 3.48545L16.634 3.48492L16.6326 3.48441C16.4228 3.41127 16.2086 3.35176 15.9913 3.30625L15.9869 3.30535L15.9826 3.30461C15.8263 3.27813 15.6748 3.22776 15.5334 3.15523C15.5249 3.1486 15.5179 3.14013 15.5129 3.13039C15.5069 3.11864 15.5041 3.10549 15.5048 3.09229L15.5052 3.08448L15.5051 3.07666C15.5048 3.05194 15.5108 3.02756 15.5226 3.00589C15.534 2.98474 15.5506 2.96686 15.5707 2.95392C15.6805 2.88849 15.807 2.85759 15.9342 2.86519L15.941 2.86559H15.9477C16.1424 2.86559 16.2578 2.90535 16.3234 2.95392C16.3815 2.99687 16.4257 3.06495 16.4392 3.19074L16.4615 3.39821H17.271L17.2716 3.16616C17.272 3.00405 17.2352 2.84406 17.1642 2.69877C17.0932 2.55347 16.9898 2.42684 16.8622 2.32882L16.8584 2.32591L16.8545 2.32316C16.5845 2.133 16.2604 2.03751 15.9319 2.05107C15.6147 2.0377 15.3024 2.13425 15.0466 2.32497L15.0457 2.32566L15.0448 2.32636C14.9264 2.41646 14.8309 2.53364 14.766 2.6683C14.702 2.80099 14.6695 2.94693 14.671 3.09452C14.667 3.22261 14.691 3.35004 14.7414 3.4677C14.7926 3.5874 14.8697 3.69391 14.9671 3.77936L14.9744 3.78571L14.9821 3.79143C15.2222 3.96893 15.5011 4.08519 15.795 4.13039C16.0153 4.16918 16.2299 4.23551 16.434 4.32786C16.4568 4.33999 16.4757 4.35832 16.4887 4.3808C16.5023 4.40427 16.5088 4.43125 16.5074 4.45842L16.507 4.46668L16.5072 4.47494C16.5078 4.50722 16.5001 4.53912 16.4848 4.56745C16.4696 4.59569 16.4473 4.61942 16.4202 4.6363C16.3036 4.70811 16.1684 4.74296 16.0319 4.73637L16.0231 4.73594L16.0142 4.73621C15.8558 4.74095 15.6994 4.69895 15.5642 4.61539C15.516 4.58266 15.4761 4.53895 15.4476 4.48775C15.4186 4.4356 15.4023 4.3772 15.4001 4.3174L15.3919 4.09337H14.5681L14.5706 4.32849C14.5723 4.49561 14.6084 4.66053 14.6766 4.81277C14.7447 4.965 14.8434 5.10122 14.9664 5.21275Z" fill="#2CBFAE"/>
<path d="M1.84241 7.69043H7.75383V11.6039H1.84241V7.69043Z" fill="#E47B55"/>
<path d="M9.05908 7.69043H19.5026V8.25252H9.05908V7.69043Z" fill="#B9B9B9"/>
<path d="M9.05908 9.36621H19.5026V9.9283H9.05908V9.36621Z" fill="#B9B9B9"/>
<path d="M9.05908 11.042H19.5026V11.6041H9.05908V11.042Z" fill="#B9B9B9"/>
<path d="M1.91772 13.1318H11.9288V13.6682H1.91772V13.1318Z" fill="#B9B9B9"/>
<path d="M1.91772 14.9131H11.9288V15.4494H1.91772V14.9131Z" fill="#B9B9B9"/>
<path d="M1.91772 16.6934H11.9288V17.2297H1.91772V16.6934Z" fill="#B9B9B9"/>
<path d="M1.91772 18.4756H11.9288V19.0119H1.91772V18.4756Z" fill="#B9B9B9"/>
<path d="M1.91772 21.04H19.5027V21.5764H1.91772V21.04Z" fill="#B9B9B9"/>
<path d="M1.91772 22.8203H19.5027V23.3567H1.91772V22.8203Z" fill="#B9B9B9"/>
<path d="M12.9506 13.1318H19.5023V19.0123H12.9506V13.1318Z" fill="#58E6CC"/>
</svg>
