<svg width="29" height="29" viewBox="0 0 29 29" fill="none" xmlns="http://www.w3.org/2000/svg">
<g clip-path="url(#clip0_69_2553)">
<path d="M20 6H24.5C24.8978 6 25.2794 6.15804 25.5607 6.43934C25.842 6.72064 26 7.10218 26 7.5V24C26 24.7956 25.6839 25.5587 25.1213 26.1213C24.5587 26.6839 23.7956 27 23 27C22.2044 27 21.4413 26.6839 20.8787 26.1213C20.3161 25.5587 20 24.7956 20 24V4.5C20 4.10218 19.842 3.72064 19.5607 3.43934C19.2794 3.15804 18.8978 3 18.5 3H3.5C3.10218 3 2.72064 3.15804 2.43934 3.43934C2.15804 3.72064 2 4.10218 2 4.5V22.5C2 23.6935 2.47411 24.8381 3.31802 25.682C4.16193 26.5259 5.30653 27 6.5 27H23" stroke="#529E8B" stroke-width="1.3" stroke-linecap="round" stroke-linejoin="round"/>
<path d="M7 8H14" stroke="#529E8B" stroke-width="1.3" stroke-linecap="round" stroke-linejoin="round"/>
<path d="M7 15H14" stroke="#529E8B" stroke-width="1.3" stroke-linecap="round" stroke-linejoin="round"/>
<path d="M7 21H14" stroke="#529E8B" stroke-width="1.3" stroke-linecap="round" stroke-linejoin="round"/>
</g>
<defs>
<clipPath id="clip0_69_2553">
<rect width="29" height="29" fill="white"/>
</clipPath>
</defs>
</svg>
