<svg width="40" height="40" viewBox="0 0 40 40" fill="none" xmlns="http://www.w3.org/2000/svg">
  <path d="M32.5008 35.0004L36.5502 39.9981H4.76198C3.49945 39.9981 2.2886 39.4907 1.39562 38.5875C0.50265 37.6842 0.000654634 36.459 0 35.1813V0H32.5008V37.8921" fill="#EEEFEE"/>
  <path d="M32.501 18.434H40.0002V36.2053C40.0002 37.2118 39.6052 38.177 38.902 38.8886C38.1988 39.6003 37.2451 40.0001 36.2506 40.0001C35.2561 40.0001 34.3024 39.6003 33.5992 38.8886C32.896 38.177 32.501 37.2118 32.501 36.2053V18.434Z" fill="#DBD8DD"/>
  <path fill-rule="evenodd" clip-rule="evenodd" d="M20.9131 7.91843L22.4119 2.44032L20.9804 2.43923L20.3157 5.18059L19.567 2.43945H19.0293H18.9173H18.8049H18.2625L17.5139 5.18059L16.8492 2.43945H15.4218L16.9173 7.91793H17.4149H17.4713H17.5348H18.0735L18.9163 4.83997L19.7568 7.91843H20.2949H20.3583H20.4146H20.9131ZM8.88695 7.91794H10.0881V2.43996H8.75773V5.30423L6.87887 2.43996H5.67871V7.91794H7.0081V5.05366L8.88695 7.91794ZM10.7646 7.91794H14.988L14.9857 6.60654H12.1222V5.75693H14.7005V4.44603H12.1222V3.75085H14.8807V2.43996H10.7646V7.91794ZM26.5113 4.15516V4.14837V4.15516ZM23.1679 7.45342L23.1775 7.46216L23.1877 7.47019C23.6744 7.85316 24.2832 8.04136 24.8978 7.99945C25.4281 8.01886 25.9487 7.84904 26.3682 7.51927L26.3689 7.51867C26.5658 7.36311 26.7243 7.16355 26.8322 6.93562C26.9384 6.71136 26.9926 6.46562 26.9909 6.21707C27.0067 5.84445 26.8808 5.47967 26.6387 5.19805L26.635 5.19384L26.6313 5.18973C26.4181 4.95621 26.1525 4.77812 25.8569 4.67055L25.8546 4.66969L25.8522 4.66887C25.5142 4.55104 25.1691 4.45517 24.819 4.38184L24.812 4.38039L24.8051 4.3792C24.5531 4.33654 24.3091 4.25538 24.0814 4.13852C24.0676 4.12785 24.0563 4.1142 24.0483 4.09851C24.0386 4.07959 24.0341 4.05839 24.0352 4.03712L24.0359 4.02455L24.0357 4.01195C24.0352 3.97212 24.0449 3.93284 24.0639 3.89793C24.0823 3.86384 24.109 3.83505 24.1414 3.8142C24.3183 3.70879 24.5221 3.65901 24.7271 3.67124L24.738 3.67189H24.7489C25.0625 3.67189 25.2484 3.73594 25.3541 3.81419C25.4477 3.88339 25.5189 3.99308 25.5407 4.19575L25.5766 4.52999H26.8808L26.8817 4.15613C26.8824 3.89497 26.8232 3.6372 26.7087 3.40312C26.5943 3.16903 26.4277 2.96501 26.2222 2.8071L26.2161 2.8024L26.2098 2.79797C25.7747 2.4916 25.2527 2.33776 24.7234 2.35961C24.2124 2.33806 23.7091 2.49362 23.2971 2.80088L23.2956 2.802L23.2941 2.80313C23.1035 2.94828 22.9495 3.13707 22.8449 3.35403C22.7418 3.5678 22.6895 3.80294 22.692 4.04071C22.6855 4.24708 22.7242 4.4524 22.8053 4.64195C22.8878 4.8348 23.0121 5.00641 23.169 5.14407L23.1807 5.15431L23.1931 5.16353C23.58 5.44949 24.0293 5.6368 24.5028 5.70962C24.8577 5.77212 25.2035 5.87899 25.5323 6.02776C25.569 6.04731 25.5995 6.07684 25.6204 6.11305C25.6423 6.15088 25.6528 6.19434 25.6506 6.23812L25.6499 6.25141L25.6502 6.26473C25.6512 6.31674 25.6388 6.36813 25.6141 6.41378C25.5896 6.45927 25.5537 6.4975 25.5101 6.5247C25.3222 6.64039 25.1043 6.69654 24.8846 6.68593L24.8703 6.68524L24.856 6.68567C24.6007 6.69329 24.3488 6.62564 24.131 6.49101C24.0534 6.43828 23.989 6.36786 23.9431 6.28537C23.8964 6.20135 23.8702 6.10725 23.8666 6.01091L23.8534 5.64998H22.5261L22.5301 6.02878C22.5329 6.29804 22.5911 6.56374 22.7009 6.809C22.8107 7.05427 22.9697 7.27373 23.1679 7.45342Z" fill="#2CBFAE"/>
  <path d="M2.02344 11.4464H11.5474V17.7515H2.02344V11.4464Z" fill="#E47B55"/>
  <path d="M13.6504 11.4464H30.4761V12.352H13.6504V11.4464Z" fill="#B9B9B9"/>
  <path d="M13.6504 14.1459H30.4761V15.0515H13.6504V14.1459Z" fill="#B9B9B9"/>
  <path d="M13.6504 16.8456H30.4761V17.7512H13.6504V16.8456Z" fill="#B9B9B9"/>
  <path d="M2.14551 20.2119H18.2744V21.076H2.14551V20.2119Z" fill="#B9B9B9"/>
  <path d="M2.14551 23.0825H18.2744V23.9466H2.14551V23.0825Z" fill="#B9B9B9"/>
  <path d="M2.14551 25.9515H18.2744V26.8156H2.14551V25.9515Z" fill="#B9B9B9"/>
  <path d="M2.14551 28.8224H18.2744V29.6865H2.14551V28.8224Z" fill="#B9B9B9"/>
  <path d="M2.14551 32.9529H30.4769V33.817H2.14551V32.9529Z" fill="#B9B9B9"/>
  <path d="M2.14551 35.8224H30.4769V36.6865H2.14551V35.8224Z" fill="#B9B9B9"/>
  <path d="M19.9199 20.2119H30.4755V29.6861H19.9199V20.2119Z" fill="#58E6CC"/>
</svg>
