<svg width="50" height="51" viewBox="0 0 50 51" fill="none" xmlns="http://www.w3.org/2000/svg">
  <path d="M21 42C32.598 42 42 32.598 42 21C42 9.40202 32.598 0 21 0C9.40202 0 0 9.40202 0 21C0 32.598 9.40202 42 21 42Z" fill="#FE6A16"/>
  <path d="M29.5 50C41.5 50.645 50 41.5 50 31L36.2756 15.8478L35.0571 16.5631L31.4279 12.9339L24.0091 22.3694L14.3206 12.681L3.53516 23.4052L6.72363 26.5937L6.31643 26.8825L29.5 50Z" fill="#E83C00"/>
  <path d="M3.53516 18.5948H38.4648V23.4052H3.53516V18.5948Z" fill="white"/>
  <path d="M3.53516 21.0208H38.4648V23.4052H3.53516V21.0208Z" fill="#E9EDF5"/>
  <path d="M7.95277 27.4837C6.55611 27.4837 5.42383 26.3514 5.42383 24.9548V17.0451C5.42383 15.6484 6.55611 14.5161 7.95277 14.5161C9.34943 14.5161 10.4817 15.6484 10.4817 17.0451V24.9548C10.4817 26.3515 9.34943 27.4837 7.95277 27.4837Z" fill="#636978"/>
  <path d="M12.5602 30.033C11.1635 30.033 10.0312 28.9007 10.0312 27.5041V14.4959C10.0312 13.0992 11.1635 11.9669 12.5602 11.9669C13.9569 11.9669 15.0891 13.0992 15.0891 14.4959V27.5042C15.0891 28.9008 13.9569 30.033 12.5602 30.033Z" fill="#555A66"/>
  <path d="M34.0475 14.5162C35.4442 14.5162 36.5764 15.6485 36.5764 17.0452V24.9549C36.5764 26.3515 35.4442 27.4838 34.0475 27.4838C32.6508 27.4838 31.5186 26.3515 31.5186 24.9549V17.0452C31.5186 15.6484 32.6508 14.5162 34.0475 14.5162Z" fill="#636978"/>
  <path d="M29.4401 11.9669C30.8367 11.9669 31.969 13.0992 31.969 14.4959V27.5042C31.969 28.9008 30.8367 30.0331 29.4401 30.0331C28.0434 30.0331 26.9111 28.9008 26.9111 27.5042V14.4959C26.9111 13.0991 28.0433 11.9669 29.4401 11.9669Z" fill="#555A66"/>
  <path d="M5.42383 21.0208V24.9548C5.42383 26.3515 6.55611 27.4837 7.95277 27.4837C9.34943 27.4837 10.4817 26.3515 10.4817 24.9548V21.0208H5.42383Z" fill="#414952"/>
  <path d="M10.0312 21.0208V27.5042C10.0312 28.9008 11.1635 30.0331 12.5602 30.0331C13.9569 30.0331 15.0891 28.9008 15.0891 27.5042V21.0208H10.0312Z" fill="#333940"/>
  <path d="M31.5186 21.0208V24.9548C31.5186 26.3515 32.6508 27.4837 34.0475 27.4837C35.4442 27.4837 36.5764 26.3515 36.5764 24.9548V21.0208H31.5186Z" fill="#414952"/>
  <path d="M26.9111 21.0208V27.5041C26.9111 28.9008 28.0434 30.033 29.4401 30.033C30.8367 30.033 31.969 28.9008 31.969 27.5041V21.0208H26.9111Z" fill="#333940"/>
</svg>
