<svg width="18" height="18" viewBox="0 0 18 18" fill="none" xmlns="http://www.w3.org/2000/svg">
<path fill-rule="evenodd" clip-rule="evenodd" d="M16.5042 0H1.49576C0.670101 0 0 0.657426 0 1.46747V16.5325C0 17.3396 0.670101 18 1.49576 18H16.5042C17.3299 18 18 17.3396 18 16.5325V1.46747C18 0.657426 17.3299 0 16.5042 0ZM16.2051 16.239H1.79491V1.76096H16.2051V16.239ZM14.8588 5.13039C14.8588 5.61759 14.4579 6.01087 13.9613 6.01087H4.03845C3.54485 6.01087 3.14099 5.61759 3.14099 5.13039C3.14099 4.64613 3.54485 4.24991 4.03845 4.24991H13.9613C14.4579 4.24991 14.8588 4.64613 14.8588 5.13039ZM6.53338 9.87566C7.02698 9.87566 7.43083 9.48238 7.43083 8.99518C7.43083 8.50798 7.02698 8.1147 6.53338 8.1147H4.03845C3.54485 8.1147 3.14099 8.50798 3.14099 8.99518C3.14099 9.48238 3.54485 9.87566 4.03845 9.87566H6.53338ZM7.43083 12.9127C7.43083 13.3999 7.02698 13.7932 6.53338 13.7932H4.03845C3.54485 13.7932 3.14099 13.3999 3.14099 12.9127C3.14099 12.4284 3.54485 12.0322 4.03845 12.0322H6.53338C7.02698 12.0322 7.43083 12.4284 7.43083 12.9127ZM11.499 12.8953L14.6135 9.83711C14.9635 9.49372 14.9635 8.93608 14.6132 8.59299C14.2629 8.24931 13.6948 8.24931 13.3448 8.59299L10.8645 11.0261L10.3024 10.474C9.95268 10.1306 9.381 10.1306 9.03099 10.474C8.68099 10.8206 8.68099 11.3779 9.03099 11.7213L10.2276 12.8953C10.4041 13.0655 10.6342 13.1539 10.8645 13.1539C11.0922 13.1539 11.3225 13.0655 11.499 12.8953Z" fill="white"/>
</svg>
