<svg width="20" height="16" viewBox="0 0 20 16" fill="none" xmlns="http://www.w3.org/2000/svg">
<path fill-rule="evenodd" clip-rule="evenodd" d="M16.9101 3.49727C17.2487 3.78142 17.6508 3.93443 18.0952 3.93443C19.1534 3.93443 20 3.03825 20 1.96721C20 0.896175 19.1323 0 18.0952 0C17.037 0 16.1905 0.896175 16.1905 1.96721C16.1905 2.20765 16.2328 2.42623 16.3175 2.62295L13.8836 4.4153C13.545 4.13115 13.1429 3.97814 12.6984 3.97814C12.254 3.97814 11.8307 4.15301 11.5132 4.4153L9.07936 2.62295C9.14286 2.42623 9.20635 2.18579 9.20635 1.96721C9.20635 0.874317 8.33862 0 7.30159 0C6.26455 0 5.39683 0.896175 5.39683 1.96721C5.39683 2.20765 5.43915 2.42623 5.52381 2.62295L3.08995 4.4153C2.75132 4.13115 2.34921 3.97814 1.90476 3.97814C0.846561 3.97814 0 4.87432 0 5.94536C0 7.01639 0.867725 7.91257 1.90476 7.91257C2.9418 7.91257 3.80952 7.01639 3.80952 5.94536C3.80952 5.70492 3.7672 5.48634 3.68254 5.28962L6.1164 3.49727C6.45503 3.78142 6.85714 3.93443 7.30159 3.93443C7.74603 3.93443 8.16931 3.75956 8.48677 3.49727L10.9206 5.28962C10.8571 5.48634 10.7937 5.72678 10.7937 5.94536C10.7937 7.03825 11.6614 7.91257 12.6984 7.91257C13.7354 7.91257 14.6032 7.01639 14.6032 5.94536C14.6032 5.70492 14.5608 5.48634 14.4762 5.28962L16.9101 3.49727ZM3.06875 9.94536H0.592564C0.296268 9.94536 0.0846277 10.1858 0.0846277 10.4699V15.4754C0.0846277 15.7814 0.317432 16 0.592564 16H3.08992C3.38622 16 3.59786 15.7596 3.59786 15.4754V10.4699C3.59786 10.1858 3.36505 9.94536 3.06875 9.94536ZM11.4287 9.94536H13.926C14.2223 9.94536 14.4551 10.1858 14.434 10.4699V15.4754C14.434 15.7596 14.2223 16 13.926 16H11.4287C11.1536 16 10.9208 15.7814 10.9208 15.4754V10.4699C10.9208 10.1858 11.1324 9.94536 11.4287 9.94536ZM8.50798 5.96722H6.01063C5.71433 5.96722 5.50269 6.20765 5.50269 6.49181V15.4754C5.50269 15.7814 5.73549 16 6.01063 16H8.50798C8.80428 16 9.01592 15.7596 9.01592 15.4754V6.49181C9.01592 6.1858 8.78311 5.96722 8.50798 5.96722ZM16.8676 5.96722H19.3437C19.64 5.96722 19.8728 6.1858 19.8728 6.49181V15.4754C19.8728 15.7596 19.6612 16 19.3649 16H16.8676C16.5924 16 16.3596 15.7814 16.3596 15.4754V6.49181C16.3596 6.20765 16.5713 5.96722 16.8676 5.96722Z" fill="#90BCF0"/>
</svg>
