<svg width="18" height="16" viewBox="0 0 18 16" fill="none" xmlns="http://www.w3.org/2000/svg">
<path d="M8.78049 10.8235H7.02439C5.58404 10.8229 4.17094 11.2444 2.93784 12.0423C1.70475 12.8402 0.698577 13.9842 0.0280988 15.3506C0.00925286 15.097 -0.000120541 14.8427 1.1701e-06 14.5882C1.1701e-06 9.39012 3.93103 5.17647 8.78049 5.17647V0L18 8L8.78049 16V10.8235ZM7.02439 8.94118H10.5366V12.0546L15.2087 8L10.5366 3.94541V7.05882H8.78049C7.77095 7.05761 6.77309 7.29018 5.85517 7.74063C4.93726 8.19108 4.12096 8.84877 3.46215 9.66871C4.59599 9.18703 5.80475 8.94016 7.02439 8.94118Z" fill="#7C7D84"/>
</svg>
