<svg width="22" height="19" viewBox="0 0 22 19" fill="none" xmlns="http://www.w3.org/2000/svg">
<path d="M21.2924 8.7155L13.6851 1.10826C13.6053 1.02857 13.5037 0.974315 13.3931 0.952342C13.2825 0.930369 13.1679 0.941667 13.0637 0.984808C12.9595 1.02795 12.8704 1.101 12.8077 1.19473C12.745 1.28847 12.7115 1.39868 12.7114 1.51145V5.52426C7.53089 5.86564 1.26348 10.7542 0.546496 16.9979C0.52321 17.1967 0.563259 17.3978 0.660936 17.5725C0.758613 17.7472 0.908937 17.8867 1.09049 17.971C1.27205 18.0553 1.47558 18.0801 1.67208 18.042C1.86859 18.0038 2.04805 17.9047 2.1849 17.7586C3.25562 16.6166 7.10108 12.9794 12.7114 12.7445V16.7259C12.7115 16.8387 12.745 16.9489 12.8077 17.0426C12.8704 17.1364 12.9595 17.2094 13.0637 17.2526C13.1679 17.2957 13.2825 17.307 13.3931 17.285C13.5037 17.263 13.6053 17.2088 13.6851 17.1291L21.2924 9.52186C21.3992 9.41489 21.4592 9.26987 21.4592 9.11868C21.4592 8.96749 21.3992 8.82247 21.2924 8.7155ZM13.8525 15.349V12.1616C13.8525 12.0103 13.7924 11.8651 13.6854 11.7581C13.5784 11.6511 13.4333 11.591 13.282 11.591C10.6451 11.591 8.0748 12.2804 5.64429 13.6402C4.22766 14.436 2.92275 15.4161 1.76365 16.5547C2.21058 14.0291 3.68068 11.61 5.94763 9.68257C8.19177 7.78171 10.9323 6.64633 13.282 6.64633C13.4333 6.64633 13.5784 6.58622 13.6854 6.47922C13.7924 6.37222 13.8525 6.2271 13.8525 6.07579V2.88931L20.0819 9.11868L13.8525 15.349Z" fill="#333333" fill-opacity="0.7"/>
</svg>
