<svg width="16" height="16" viewBox="0 0 16 16" fill="none" xmlns="http://www.w3.org/2000/svg">
  <path fill-rule="evenodd" clip-rule="evenodd" d="M6.56007 5.66809L8.37279 4.4766H11.3922C11.5708 4.4766 11.742 4.40827 11.8682 4.28665C11.9944 4.16503 12.0654 4.00009 12.0654 3.82809V0.641703C12.0635 0.470896 11.9918 0.307688 11.8657 0.187533C11.7397 0.067385 11.5695 -5.44769e-06 11.3922 2.1817e-06H5.70318C5.61463 -0.000219071 5.52691 0.0163901 5.44504 0.0488837C5.36316 0.0813697 5.28875 0.129107 5.22605 0.189348C5.16336 0.24959 5.11362 0.321154 5.07968 0.39995C5.04574 0.478739 5.02827 0.563212 5.02827 0.648516V3.83489C5.02803 3.92035 5.04533 4.005 5.07917 4.08399C5.113 4.16297 5.16271 4.23474 5.22543 4.29517C5.28814 4.35559 5.36264 4.40348 5.44463 4.43608C5.52662 4.46867 5.61448 4.48534 5.70318 4.48511H6.34099V5.56085C6.34031 5.58563 6.34694 5.61008 6.3601 5.63137C6.37327 5.65267 6.39243 5.66993 6.41536 5.68115C6.4383 5.69239 6.46407 5.69712 6.48968 5.6948C6.51529 5.69248 6.5397 5.68322 6.56007 5.66809ZM16 14.5872V16H0V14.7013C0.000400543 14.5649 0.0323181 14.4302 0.0934353 14.3072C0.154554 14.1841 0.243343 14.0757 0.353357 13.9898C1.22773 13.3119 2.17551 12.727 3.18021 12.2451C3.19508 12.2381 3.2076 12.2272 3.21635 12.2136C3.22509 12.2001 3.22972 12.1845 3.22968 12.1685V11.2681C3.08932 11.0487 2.99173 10.8064 2.9417 10.5532C2.83746 10.5532 2.69965 10.4034 2.55124 9.89787C2.34806 9.20681 2.5636 9.10468 2.74558 9.12171C2.71113 9.02918 2.68454 8.93412 2.66608 8.83745C2.59427 8.53784 2.59427 8.22642 2.66608 7.92681C2.75754 7.57356 2.94826 7.25141 3.21731 6.99575C3.36918 6.8401 3.54072 6.70343 3.72791 6.58894C3.8806 6.48512 4.04774 6.40261 4.22438 6.34384C4.36977 6.29587 4.52142 6.26779 4.67491 6.26043C5.06818 6.21884 5.46497 6.29934 5.80742 6.49021C6.03212 6.60283 6.22129 6.77156 6.35512 6.97872C6.35512 6.97872 7.27032 7.0417 6.96113 8.83064C6.94264 8.92731 6.91605 9.02237 6.88162 9.11489C7.0583 9.09787 7.27915 9.20001 7.07597 9.89107C6.92756 10.4017 6.78975 10.5379 6.68551 10.5464C6.6401 10.7985 6.54666 11.0403 6.40989 11.2596V12.1685C6.40986 12.1845 6.41448 12.2001 6.42323 12.2136C6.43197 12.2272 6.4445 12.2381 6.45936 12.2451C6.58834 12.3064 6.9576 12.4851 7.4417 12.7557C7.94019 12.4496 8.45503 12.169 8.9841 11.9149C9.00018 11.9072 9.01369 11.8953 9.02307 11.8805C9.03244 11.8658 9.03731 11.8488 9.0371 11.8315V10.8834C8.88944 10.642 8.78885 10.3767 8.74028 10.1004C8.62721 10.0919 8.47703 9.93022 8.31625 9.38894C8.10954 8.68256 8.30389 8.53787 8.49293 8.53787C8.39222 8.12596 8.13958 6.69277 9.24735 6.04086C9.18292 5.98867 9.13071 5.9239 9.09416 5.85085C9.05762 5.77779 9.03757 5.69809 9.03534 5.61702C9.03534 5.61702 10.2968 5.7549 10.9099 5.63404C11.523 5.51319 12.1784 5.97447 12.2827 6.42043C12.2827 6.42043 13.5194 6.42043 13.0406 8.55149C13.2332 8.55149 13.4452 8.67234 13.2314 9.40256C13.0707 9.95064 12.9205 10.1055 12.8074 10.114C12.7589 10.3903 12.6583 10.6556 12.5106 10.897V11.8519C12.5104 11.8692 12.5153 11.8862 12.5246 11.901C12.534 11.9157 12.5475 11.9276 12.5636 11.9353C13.6512 12.4547 14.6777 13.0853 15.6254 13.8162C15.743 13.9102 15.8375 14.0281 15.9022 14.1613C15.967 14.2946 16.0004 14.4401 16 14.5872ZM7.5 2C7.22386 2 7 2.22386 7 2.5C7 2.77615 7.22386 3 7.5 3H9.5C9.77614 3 10 2.77615 10 2.5C10 2.22386 9.77614 2 9.5 2H7.5Z" fill="#90BCF0"/>
</svg>
