<svg width="20" height="18" viewBox="0 0 20 18" fill="none" xmlns="http://www.w3.org/2000/svg">
<path d="M17.1 10.8V13.5H19.8V15.3H17.1V18H15.3V15.3H12.6V13.5H15.3V10.8H17.1ZM17.1072 0C17.6004 0 18 0.4005 18 0.8937V9.3078C17.4219 9.10359 16.8131 8.99949 16.2 9V1.8H1.8L1.8009 14.4L10.1637 6.0363C10.3185 5.88103 10.5246 5.78766 10.7434 5.77374C10.9622 5.75981 11.1785 5.8263 11.3517 5.9607L11.4354 6.0372L14.6268 9.2322C13.929 9.44484 13.2814 9.7966 12.7233 10.2663C12.1651 10.7359 11.7078 11.3138 11.3789 11.965C11.0501 12.6161 10.8565 13.3272 10.8099 14.0552C10.7634 14.7832 10.8647 15.5131 11.1078 16.2009L0.8928 16.2C0.655932 16.1998 0.428847 16.1055 0.26144 15.9379C0.0940338 15.7703 -1.2011e-07 15.5432 0 15.3063V0.8937C0.00164704 0.65734 0.0962102 0.431116 0.263262 0.263896C0.430313 0.0966761 0.656442 0.00188518 0.8928 0H17.1072ZM5.4 3.6C5.87739 3.6 6.33523 3.78964 6.67279 4.12721C7.01036 4.46477 7.2 4.92261 7.2 5.4C7.2 5.87739 7.01036 6.33523 6.67279 6.67279C6.33523 7.01036 5.87739 7.2 5.4 7.2C4.92261 7.2 4.46477 7.01036 4.12721 6.67279C3.78964 6.33523 3.6 5.87739 3.6 5.4C3.6 4.92261 3.78964 4.46477 4.12721 4.12721C4.46477 3.78964 4.92261 3.6 5.4 3.6Z" fill="#6B7BC7"/>
</svg>
