<svg width="14" height="12" viewBox="0 0 14 12" fill="none" xmlns="http://www.w3.org/2000/svg">
<path d="M0 5.82309C0.608189 2.5104 3.51132 0 7 0C10.4887 0 13.3912 2.5104 14 5.82309C13.3918 9.13578 10.4887 11.6462 7 11.6462C3.51132 11.6462 0.608836 9.13578 0 5.82309ZM7 9.05814C7.85799 9.05814 8.68084 8.7173 9.28753 8.11061C9.89421 7.50392 10.235 6.68108 10.235 5.82309C10.235 4.9651 9.89421 4.14225 9.28753 3.53556C8.68084 2.92887 7.85799 2.58804 7 2.58804C6.14201 2.58804 5.31916 2.92887 4.71247 3.53556C4.10578 4.14225 3.76495 4.9651 3.76495 5.82309C3.76495 6.68108 4.10578 7.50392 4.71247 8.11061C5.31916 8.7173 6.14201 9.05814 7 9.05814ZM7 7.76412C6.48521 7.76412 5.9915 7.55962 5.62748 7.1956C5.26347 6.83159 5.05897 6.33788 5.05897 5.82309C5.05897 5.3083 5.26347 4.81459 5.62748 4.45057C5.9915 4.08656 6.48521 3.88206 7 3.88206C7.51479 3.88206 8.0085 4.08656 8.37251 4.45057C8.73653 4.81459 8.94103 5.3083 8.94103 5.82309C8.94103 6.33788 8.73653 6.83159 8.37251 7.1956C8.0085 7.55962 7.51479 7.76412 7 7.76412Z" fill="white"/>
</svg>
