<svg width="28" height="32" viewBox="0 0 28 32" fill="none" xmlns="http://www.w3.org/2000/svg">
<path d="M24.0402 29.8326L27.9795 5.20163C28.1203 4.32141 27.5202 3.49267 26.6399 3.35194L5.80946 0.0204788C4.92924 -0.120315 4.1005 0.479839 3.95977 1.36012L0.0204788 25.991C-0.120315 26.8712 0.479839 27.6999 1.36012 27.8407L22.1905 31.1721C23.0708 31.313 23.8994 30.7128 24.0402 29.8326Z" fill="url(#paint0_linear)"/>
<path d="M27.7382 26.3084L24.3629 1.59383C24.2423 0.710569 23.4276 0.0917111 22.5443 0.212278L1.64327 3.06677C0.760007 3.1874 0.14115 4.00213 0.261716 4.88539L3.63698 29.6C3.75761 30.4832 4.57233 31.1021 5.4556 30.9815L26.3566 28.127C27.2399 28.0063 27.8589 27.1916 27.7382 26.3084Z" fill="url(#paint1_linear)"/>
<path d="M26.1624 28.0687V3.12472C26.1624 2.23329 25.439 1.50977 24.5475 1.50977H3.45248C2.56105 1.50977 1.83752 2.23323 1.83752 3.12472V28.0687C1.83752 28.9601 2.56099 29.6836 3.45248 29.6836H24.5476C25.439 29.6836 26.1624 28.9602 26.1624 28.0687Z" fill="url(#paint2_linear)"/>
<path d="M18.033 29.6836H3.45248C2.56062 29.6836 1.83752 28.9606 1.83752 28.0687V3.12472C1.83752 2.23286 2.5605 1.50977 3.45248 1.50977H24.5476C25.4395 1.50977 26.1626 2.23274 26.1626 3.12472V21.977C26.1626 22.2242 26.0653 22.4614 25.8919 22.6374L19.5922 29.031C19.1808 29.4485 18.6192 29.6836 18.033 29.6836Z" fill="url(#paint3_linear)"/>
<path d="M13.9999 29.6836H3.28622C2.48611 29.6836 1.83752 28.9606 1.83752 28.0687V24.9465V3.12472C1.83752 2.2328 2.48617 1.50977 3.28622 1.50977H14V29.6836H13.9999Z" fill="url(#paint4_linear)"/>
<path d="M26.1624 15.6158V28.214C26.1624 29.0253 25.4395 29.6829 24.5475 29.6829H21.4254H3.45248C2.56062 29.6829 1.83752 29.0253 1.83752 28.214V15.6158C1.83759 15.5266 26.1624 15.6158 26.1624 15.6158Z" fill="url(#paint5_linear)"/>
<path d="M26.0798 22.3624C26.0798 22.3624 26.0321 22.4976 25.8442 22.6854C25.7744 22.7551 19.6292 28.9931 19.6292 28.9931C19.1941 29.4346 18.6001 29.6833 17.9802 29.6833C18.5153 29.6833 18.9491 29.2494 18.9491 28.7143V23.9773C18.9491 23.0854 19.6721 22.3623 20.5641 22.3623H26.0798V22.3624Z" fill="url(#paint6_linear)"/>
<path d="M4.86719 8.31628V4.05105C4.86719 3.99092 4.88863 3.93938 4.93158 3.89643C4.97447 3.85348 5.02821 3.83203 5.0926 3.83203H6.31673C7.3046 3.83203 7.79863 4.27013 7.79863 5.14639C7.79863 5.50998 7.71699 5.79552 7.55378 6.00291C7.39056 6.21041 7.16929 6.34834 6.89014 6.41682L7.79217 8.11536C7.80929 8.14557 7.81794 8.17774 7.81794 8.21216C7.81794 8.29837 7.77383 8.37806 7.68592 8.45135C7.59782 8.52464 7.50437 8.56119 7.40567 8.56119C7.29394 8.56119 7.20371 8.49448 7.13505 8.36088L6.1944 6.51229H5.54362V8.31567C5.54362 8.38458 5.51029 8.43959 5.44376 8.48047C5.37711 8.52147 5.29663 8.54188 5.2022 8.54188C5.11198 8.54188 5.03357 8.52153 4.96704 8.48065C4.90039 8.43983 4.86719 8.385 4.86719 8.31628ZM5.54368 5.97104H6.31685C6.84938 5.97104 7.11574 5.71559 7.11574 5.20439C7.11574 4.69324 6.84938 4.43767 6.31685 4.43767H5.54368C5.54368 4.43761 5.54368 5.97104 5.54368 5.97104Z" fill="url(#paint7_linear)"/>
<path d="M8.46875 8.3164V4.05757C8.46875 3.98891 8.49879 3.93414 8.55898 3.89326C8.61905 3.85244 8.6899 3.83203 8.7716 3.83203H11.0653C11.1383 3.83203 11.1941 3.86213 11.2328 3.92226C11.2715 3.98245 11.2908 4.05111 11.2908 4.12842C11.2908 4.21445 11.2704 4.28737 11.2296 4.3475C11.1887 4.40769 11.134 4.43767 11.0653 4.43767H9.15176V5.91311H10.144C10.2127 5.91311 10.2674 5.94003 10.3083 5.99365C10.3491 6.04738 10.3695 6.11287 10.3695 6.19018C10.3695 6.25891 10.3502 6.32013 10.3115 6.37381C10.2729 6.42754 10.217 6.45435 10.144 6.45435H9.15176V7.93624H11.0654C11.134 7.93624 11.1888 7.96634 11.2297 8.02647C11.2705 8.08666 11.2909 8.15971 11.2909 8.24555C11.2909 8.32286 11.2716 8.39158 11.2329 8.45171C11.1943 8.51191 11.1384 8.54194 11.0654 8.54194H8.77166C8.69002 8.54194 8.61911 8.52159 8.55904 8.48071C8.49879 8.43996 8.46875 8.38512 8.46875 8.3164Z" fill="url(#paint8_linear)"/>
<path d="M11.7354 7.14375V5.26884C11.7354 4.77494 11.8674 4.4119 12.1316 4.17996C12.3958 3.94797 12.7405 3.83203 13.1657 3.83203C13.6038 3.83203 13.9571 3.94054 14.2256 4.15742C14.494 4.37437 14.6283 4.65468 14.6283 4.99822C14.6283 5.13573 14.6025 5.22918 14.551 5.27847C14.4994 5.32788 14.4113 5.35255 14.2868 5.35255C14.0634 5.35255 13.9495 5.27743 13.9453 5.12707C13.9196 4.66753 13.6683 4.43767 13.1915 4.43767C12.6761 4.43767 12.4184 4.71475 12.4184 5.26878V7.14369C12.4184 7.69785 12.6803 7.97481 13.2044 7.97481C13.359 7.97481 13.4879 7.95233 13.591 7.90718C13.6941 7.8621 13.7681 7.79667 13.8132 7.71064C13.8583 7.62474 13.8894 7.54962 13.9067 7.48517C13.9238 7.42077 13.9366 7.34133 13.9453 7.24677C13.9581 7.09648 14.0698 7.0213 14.2803 7.0213C14.4048 7.0213 14.494 7.04609 14.5477 7.09538C14.6013 7.14479 14.6282 7.23818 14.6282 7.37563C14.6282 7.73221 14.4929 8.02208 14.2223 8.24543C13.9517 8.46883 13.5973 8.58044 13.1592 8.58044C12.7339 8.58044 12.3903 8.46451 12.1283 8.23251C11.8663 8.0007 11.7354 7.63778 11.7354 7.14375Z" fill="url(#paint9_linear)"/>
<path d="M15.2661 8.31634V4.05111C15.2661 3.97813 15.2993 3.92335 15.3659 3.8868C15.4324 3.85037 15.513 3.83203 15.6075 3.83203C15.7019 3.83203 15.7824 3.85031 15.8491 3.8868C15.9156 3.92329 15.9489 3.97813 15.9489 4.05111V8.31634C15.9489 8.38506 15.9156 8.43983 15.8491 8.48065C15.7824 8.52153 15.7019 8.54188 15.6075 8.54188C15.5173 8.54188 15.4377 8.52153 15.3691 8.48065C15.3004 8.43989 15.2661 8.38506 15.2661 8.31634Z" fill="url(#paint10_linear)"/>
<path d="M16.7994 8.31628V4.05105C16.7994 3.99092 16.8242 3.93938 16.8735 3.89643C16.9229 3.85348 16.9862 3.83203 17.0636 3.83203H18.32C18.7495 3.83203 19.0921 3.9459 19.3477 4.17351C19.6031 4.4013 19.7311 4.75989 19.7311 5.24953V5.30101C19.7311 5.79065 19.599 6.15046 19.3349 6.3802C19.0707 6.61007 18.7196 6.72491 18.2814 6.72491H17.4824V8.31634C17.4824 8.38506 17.4491 8.43983 17.3826 8.48065C17.316 8.52153 17.2355 8.54188 17.141 8.54188C17.0507 8.54188 16.9712 8.52153 16.9026 8.48065C16.8338 8.43983 16.7994 8.385 16.7994 8.31628ZM17.4824 6.18367H18.2813C18.5262 6.18367 18.7152 6.11391 18.8483 5.97427C18.9814 5.83476 19.0481 5.62537 19.0481 5.34609V5.26878C19.0481 4.98963 18.9814 4.78134 18.8483 4.64383C18.7151 4.50639 18.5261 4.43767 18.2813 4.43767H17.4824V6.18367Z" fill="url(#paint11_linear)"/>
<path d="M20.3108 8.3164V4.05757C20.3108 3.98891 20.3408 3.93414 20.401 3.89326C20.4611 3.85244 20.5319 3.83203 20.6136 3.83203H22.9073C22.9803 3.83203 23.0361 3.86213 23.0748 3.92226C23.1134 3.98245 23.1328 4.05111 23.1328 4.12842C23.1328 4.21445 23.1124 4.28737 23.0716 4.3475C23.0307 4.40769 22.976 4.43767 22.9073 4.43767H20.9937V5.91311H21.9859C22.0546 5.91311 22.1094 5.94003 22.1502 5.99365C22.1911 6.04738 22.2115 6.11287 22.2115 6.19018C22.2115 6.25891 22.1922 6.32013 22.1535 6.37381C22.1148 6.42754 22.059 6.45435 21.9859 6.45435H20.9937V7.93624H22.9073C22.9759 7.93624 23.0307 7.96634 23.0716 8.02647C23.1124 8.08666 23.1328 8.15971 23.1328 8.24555C23.1328 8.32286 23.1135 8.39158 23.0748 8.45171C23.0362 8.51191 22.9803 8.54194 22.9073 8.54194H20.6136C20.5319 8.54194 20.4611 8.52159 20.401 8.48071C20.3408 8.43996 20.3108 8.38512 20.3108 8.3164Z" fill="url(#paint12_linear)"/>
<path d="M23.581 10.999H9.06787V12.2085H23.581V10.999Z" fill="url(#paint13_linear)"/>
<path d="M23.581 15.6172H9.06787V16.8266H23.581V15.6172Z" fill="url(#paint14_linear)"/>
<path d="M23.581 20.2354H9.06787V21.4448H23.581V20.2354Z" fill="url(#paint15_linear)"/>
<path d="M17.822 24.8535H9.06787V26.063H17.822V24.8535Z" fill="url(#paint16_linear)"/>
<path d="M8.26613 10.2873C8.47832 10.4995 8.47832 10.8434 8.26613 11.0556L6.66616 12.6552C6.09897 13.2224 5.17586 13.2224 4.60903 12.6552L4.01777 12.0639C3.80564 11.8518 3.80558 11.5079 4.01771 11.2957C4.22985 11.0835 4.57394 11.0834 4.78608 11.2956L5.37715 11.8867C5.52069 12.0302 5.75457 12.0302 5.89768 11.8867L7.49764 10.287C7.70984 10.0749 8.05375 10.0749 8.26588 10.287L8.26613 10.2873Z" fill="url(#paint17_linear)"/>
<path d="M8.26613 14.9054C8.47832 15.1176 8.47832 15.4616 8.26613 15.6737L6.66616 17.2733C6.09897 17.8405 5.17586 17.8405 4.60903 17.2733L4.01777 16.6821C3.80564 16.4699 3.80558 16.126 4.01771 15.9139C4.22985 15.7016 4.57394 15.7016 4.78608 15.9138L5.37715 16.5049C5.52069 16.6484 5.75457 16.6484 5.89768 16.5049L7.49764 14.9052C7.70984 14.6931 8.05375 14.6931 8.26588 14.9052L8.26613 14.9054Z" fill="url(#paint18_linear)"/>
<path d="M8.26613 19.5226C8.47832 19.7348 8.47832 20.0788 8.26613 20.2909L6.66616 21.8905C6.09897 22.4577 5.17586 22.4577 4.60903 21.8905L4.01777 21.2993C3.80564 21.0871 3.80558 20.7432 4.01771 20.5311C4.22985 20.3188 4.57394 20.3188 4.78608 20.531L5.37715 21.122C5.52069 21.2656 5.75457 21.2656 5.89768 21.122L7.49764 19.5224C7.70984 19.3102 8.05375 19.3102 8.26588 19.5224L8.26613 19.5226Z" fill="url(#paint19_linear)"/>
<path d="M8.26613 24.1408C8.47832 24.353 8.47832 24.697 8.26613 24.9091L6.66616 26.5087C6.09897 27.0759 5.17586 27.0759 4.60903 26.5087L4.01777 25.9174C3.80564 25.7053 3.80558 25.3614 4.01771 25.1493C4.22985 24.937 4.57394 24.9369 4.78608 25.1491L5.37715 25.7402C5.52069 25.8837 5.75457 25.8837 5.89768 25.7402L7.49764 24.1405C7.70984 23.9284 8.05375 23.9284 8.26588 24.1405L8.26613 24.1408Z" fill="url(#paint20_linear)"/>
<defs>
<linearGradient id="paint0_linear" x1="15.9504" y1="3.39792" x2="11.9181" y2="28.6133" gradientUnits="userSpaceOnUse">
<stop stop-color="#7ECCFD"/>
<stop offset="0.242" stop-color="#75C7FC"/>
<stop offset="0.643" stop-color="#5BB9F9"/>
<stop offset="1" stop-color="#3FA9F5"/>
</linearGradient>
<linearGradient id="paint1_linear" x1="12.3282" y1="3.35772" x2="15.7832" y2="28.6575" gradientUnits="userSpaceOnUse">
<stop stop-color="#FF7BAC"/>
<stop offset="1" stop-color="#E24786"/>
</linearGradient>
<linearGradient id="paint2_linear" x1="26.0459" y1="27.6433" x2="23.7958" y2="25.3932" gradientUnits="userSpaceOnUse">
<stop stop-color="#FFE7A5"/>
<stop offset="0.216" stop-color="#FFE29C"/>
<stop offset="0.577" stop-color="#FFD482"/>
<stop offset="1" stop-color="#FFBF5C"/>
</linearGradient>
<linearGradient id="paint3_linear" x1="19.1928" y1="5.59329" x2="-8.44945" y2="42.0261" gradientUnits="userSpaceOnUse">
<stop stop-color="#FFE7A5"/>
<stop offset="0.216" stop-color="#FFE29C"/>
<stop offset="0.577" stop-color="#FFD482"/>
<stop offset="1" stop-color="#FFBF5C"/>
</linearGradient>
<linearGradient id="paint4_linear" x1="7.20038" y1="15.5971" x2="20.0221" y2="15.5971" gradientUnits="userSpaceOnUse">
<stop stop-color="#FFBF5C" stop-opacity="0"/>
<stop offset="1" stop-color="#FFBF5C"/>
</linearGradient>
<linearGradient id="paint5_linear" x1="11.9434" y1="19.1226" x2="3.1466" y2="6.27696" gradientUnits="userSpaceOnUse">
<stop stop-color="#FFBF5C" stop-opacity="0"/>
<stop offset="1" stop-color="#FFBF5C"/>
</linearGradient>
<linearGradient id="paint6_linear" x1="19.6766" y1="23.67" x2="22.8589" y2="26.8524" gradientUnits="userSpaceOnUse">
<stop stop-color="#FFE7A5"/>
<stop offset="0.216" stop-color="#FFE29C"/>
<stop offset="0.577" stop-color="#FFD482"/>
<stop offset="1" stop-color="#FFBF5C"/>
</linearGradient>
<linearGradient id="paint7_linear" x1="6.34243" y1="3.7545" x2="6.34243" y2="14.4931" gradientUnits="userSpaceOnUse">
<stop stop-color="#FF5964"/>
<stop offset="0.242" stop-color="#FF505B"/>
<stop offset="0.643" stop-color="#FF3841"/>
<stop offset="1" stop-color="#FF1D25"/>
</linearGradient>
<linearGradient id="paint8_linear" x1="9.87954" y1="3.75462" x2="9.87954" y2="14.4932" gradientUnits="userSpaceOnUse">
<stop stop-color="#FF5964"/>
<stop offset="0.242" stop-color="#FF505B"/>
<stop offset="0.643" stop-color="#FF3841"/>
<stop offset="1" stop-color="#FF1D25"/>
</linearGradient>
<linearGradient id="paint9_linear" x1="13.1815" y1="3.75456" x2="13.1815" y2="14.4932" gradientUnits="userSpaceOnUse">
<stop stop-color="#FF5964"/>
<stop offset="0.242" stop-color="#FF505B"/>
<stop offset="0.643" stop-color="#FF3841"/>
<stop offset="1" stop-color="#FF1D25"/>
</linearGradient>
<linearGradient id="paint10_linear" x1="15.6072" y1="3.75456" x2="15.6072" y2="14.4932" gradientUnits="userSpaceOnUse">
<stop stop-color="#FF5964"/>
<stop offset="0.242" stop-color="#FF505B"/>
<stop offset="0.643" stop-color="#FF3841"/>
<stop offset="1" stop-color="#FF1D25"/>
</linearGradient>
<linearGradient id="paint11_linear" x1="18.2648" y1="3.7545" x2="18.2648" y2="14.4931" gradientUnits="userSpaceOnUse">
<stop stop-color="#FF5964"/>
<stop offset="0.242" stop-color="#FF505B"/>
<stop offset="0.643" stop-color="#FF3841"/>
<stop offset="1" stop-color="#FF1D25"/>
</linearGradient>
<linearGradient id="paint12_linear" x1="21.7213" y1="3.75462" x2="21.7213" y2="14.4932" gradientUnits="userSpaceOnUse">
<stop stop-color="#FF5964"/>
<stop offset="0.242" stop-color="#FF505B"/>
<stop offset="0.643" stop-color="#FF3841"/>
<stop offset="1" stop-color="#FF1D25"/>
</linearGradient>
<linearGradient id="paint13_linear" x1="9.06766" y1="11.6042" x2="23.5805" y2="11.6042" gradientUnits="userSpaceOnUse">
<stop stop-color="#654E48"/>
<stop offset="1" stop-color="#503837"/>
</linearGradient>
<linearGradient id="paint14_linear" x1="9.06766" y1="16.2222" x2="23.5805" y2="16.2222" gradientUnits="userSpaceOnUse">
<stop stop-color="#654E48"/>
<stop offset="1" stop-color="#503837"/>
</linearGradient>
<linearGradient id="paint15_linear" x1="9.06766" y1="20.8403" x2="23.5805" y2="20.8403" gradientUnits="userSpaceOnUse">
<stop stop-color="#654E48"/>
<stop offset="1" stop-color="#503837"/>
</linearGradient>
<linearGradient id="paint16_linear" x1="9.06766" y1="25.4584" x2="17.8216" y2="25.4584" gradientUnits="userSpaceOnUse">
<stop stop-color="#654E48"/>
<stop offset="1" stop-color="#503837"/>
</linearGradient>
<linearGradient id="paint17_linear" x1="5.50245" y1="10.5366" x2="9.82652" y2="14.8613" gradientUnits="userSpaceOnUse">
<stop stop-color="#9EB644"/>
<stop offset="1" stop-color="#738611"/>
</linearGradient>
<linearGradient id="paint18_linear" x1="5.50265" y1="15.1549" x2="9.82672" y2="19.479" gradientUnits="userSpaceOnUse">
<stop stop-color="#9EB644"/>
<stop offset="1" stop-color="#738611"/>
</linearGradient>
<linearGradient id="paint19_linear" x1="5.50256" y1="19.7719" x2="9.82662" y2="24.096" gradientUnits="userSpaceOnUse">
<stop stop-color="#9EB644"/>
<stop offset="1" stop-color="#738611"/>
</linearGradient>
<linearGradient id="paint20_linear" x1="5.50254" y1="24.3899" x2="9.82661" y2="28.7145" gradientUnits="userSpaceOnUse">
<stop stop-color="#9EB644"/>
<stop offset="1" stop-color="#738611"/>
</linearGradient>
</defs>
</svg>
