<svg width="42" height="25" viewBox="0 0 42 25" fill="none" xmlns="http://www.w3.org/2000/svg">
  <path fill-rule="evenodd" clip-rule="evenodd" d="M18.8056 15.8435H28.6605L31.1539 18.3369C31.353 18.5337 31.5794 18.4193 31.5794 18.1585V15.8434C32.849 15.8434 33.8876 14.8026 33.8876 13.533V7.70426C33.8876 6.43469 32.8491 5.39609 31.5794 5.39609H18.8056C17.5361 5.39609 16.4951 6.43461 16.4951 7.70426V13.533C16.4952 14.8027 17.5361 15.8435 18.8056 15.8435Z" fill="#ECF4FF"/>
  <path fill-rule="evenodd" clip-rule="evenodd" d="M7.2626 13.5149H17.63C19.3159 13.5149 20.6952 12.1355 20.6952 10.4496V3.66933C20.6952 1.98569 19.3158 0.606293 17.63 0.606293H4.3437C2.65764 0.606293 1.27832 1.98569 1.27832 3.66933V10.4496C1.27832 12.1356 2.65772 13.5149 4.3437 13.5149V15.8322C4.3437 16.0793 4.5862 16.1913 4.76923 16.0084L7.2626 13.5149Z" fill="#ECF4FF"/>
  <path fill-rule="evenodd" clip-rule="evenodd" d="M24.2667 23.7746C24.2667 25.5703 22.7958 27.0411 21 27.0411C19.2043 27.0411 17.7334 25.5702 17.7334 23.7746C17.7334 22.608 17.7334 21.4413 17.7334 20.2746C17.7334 19.2681 18.5569 18.4469 19.5634 18.4469H23.7793C24.1157 18.4469 24.2667 18.6391 24.2667 18.9319V23.7746Z" fill="#FFCBBE"/>
  <path fill-rule="evenodd" clip-rule="evenodd" d="M17.7334 20.2745V21.329H24.2667V18.9317C24.2667 18.6388 24.1157 18.4467 23.7793 18.4467H19.5634C18.5569 18.4468 17.7334 19.268 17.7334 20.2745Z" fill="#FFE5A0"/>
  <path fill-rule="evenodd" clip-rule="evenodd" d="M1.78223 23.7746C1.78223 25.5703 3.25314 27.0411 5.04887 27.0411C6.8446 27.0411 8.31551 25.5702 8.31551 23.7746V20.2746C8.31551 19.2681 7.49197 18.4469 6.4854 18.4469H3.61007C2.60585 18.4469 1.78231 19.2682 1.78231 20.2746V23.7746H1.78223Z" fill="#FFCBBE"/>
  <path fill-rule="evenodd" clip-rule="evenodd" d="M40.2175 23.7746C40.2175 25.5703 38.7489 27.0411 36.9531 27.0411C35.1551 27.0411 33.6865 25.5702 33.6865 23.7746V20.2746C33.6865 19.2681 34.5077 18.4469 35.5142 18.4469H38.3897C39.3963 18.4469 40.2175 19.2682 40.2175 20.2746V23.7746Z" fill="#C68B87"/>
  <path fill-rule="evenodd" clip-rule="evenodd" d="M40.2175 23.7744C40.2175 25.5701 38.7489 27.041 36.9531 27.041C36.6122 27.041 36.2828 26.9861 35.9717 26.8901C37.1978 26.5012 38.1151 25.4077 38.2433 24.0924C38.7557 24.1793 39.4008 24.1335 40.2152 23.8889L40.2175 20.2745V23.7744Z" fill="#BD7D79"/>
  <path fill-rule="evenodd" clip-rule="evenodd" d="M8.31559 20.2745V21.5464C7.39368 21.8873 6.63881 21.6082 6.19731 21.3565C5.85417 21.1621 5.7947 21.1598 5.75354 21.4755C5.63451 22.3928 5.22052 24.9251 1.78683 23.8889L1.78223 20.2745C1.78223 19.268 2.60577 18.4468 3.60999 18.4468H6.48557C7.49205 18.4468 8.31559 19.2681 8.31559 20.2745Z" fill="#C68B87"/>
  <path fill-rule="evenodd" clip-rule="evenodd" d="M33.6865 20.2745V21.5464C34.6061 21.8873 35.361 21.6082 35.8025 21.3565C36.1479 21.1621 36.2051 21.1598 36.2462 21.4755C36.3653 22.3928 36.7793 24.9251 40.2153 23.8889L40.2175 20.2745C40.2198 19.268 39.3963 18.4468 38.3898 18.4468H35.5142C34.5077 18.4468 33.6865 19.2681 33.6865 20.2745Z" fill="#477B9E"/>
  <path fill-rule="evenodd" clip-rule="evenodd" d="M38.2593 20.2745V23.7744C38.2593 23.8819 38.2547 23.9872 38.2434 24.0924C38.7559 24.1793 39.4009 24.1335 40.2153 23.8888L40.2176 20.2745C40.2176 19.3114 39.465 18.5176 38.518 18.4513C38.4745 18.4467 38.4333 18.4467 38.3898 18.4467H36.4316C37.438 18.4468 38.2593 19.268 38.2593 20.2745Z" fill="#365E7D"/>
  <path fill-rule="evenodd" clip-rule="evenodd" d="M6.35693 23.7747C6.35693 25.2296 5.39152 26.4718 4.06934 26.8904C4.37809 26.9864 4.70751 27.0413 5.04838 27.0413C6.84411 27.0413 8.31503 25.5704 8.31503 23.7747V21.5467C7.49609 21.8509 6.80982 21.6633 6.35685 21.4415V23.7747H6.35693Z" fill="#F7BEAF"/>
  <path fill-rule="evenodd" clip-rule="evenodd" d="M4.52734 18.4468C5.53391 18.4468 6.35745 19.2681 6.35745 20.2745V21.4412C6.81034 21.663 7.49661 21.8506 8.31563 21.5464V20.2745C8.31563 19.268 7.49209 18.4468 6.48552 18.4468H4.52734Z" fill="#BD7D79"/>
  <path fill-rule="evenodd" clip-rule="evenodd" d="M22.308 23.7745C22.308 25.2294 21.3427 26.4716 20.0205 26.8902C20.3293 26.9862 20.6587 27.0411 20.9996 27.0411C22.7953 27.0411 24.2662 25.5702 24.2662 23.7745V21.3292H22.3079V23.7745H22.308Z" fill="#F7BEAF"/>
  <path fill-rule="evenodd" clip-rule="evenodd" d="M22.3085 18.9318V21.3292H24.2667V18.9318C24.2667 18.639 24.1157 18.4468 23.7794 18.4468H21.8213C22.1575 18.4468 22.3085 18.639 22.3085 18.9318Z" fill="#F2CE7E"/>
  <path fill-rule="evenodd" clip-rule="evenodd" d="M16.5205 13.8603C16.6805 14.9766 17.646 15.8436 18.8058 15.8436H28.6606L31.154 18.337C31.3531 18.5338 31.5795 18.4194 31.5795 18.1586V15.8435C32.8491 15.8435 33.8877 14.8027 33.8877 13.533V7.70435C33.8877 6.54462 33.023 5.57921 31.9067 5.4191C31.9227 5.52667 31.9295 5.63416 31.9295 5.74625V11.575C31.9295 12.8446 30.8909 13.8832 29.6213 13.8832H16.8477C16.7355 13.8831 16.6257 13.8763 16.5205 13.8603Z" fill="#DDEAFB"/>
  <path fill-rule="evenodd" clip-rule="evenodd" d="M18.7372 8.49147C18.7372 9.89153 17.7855 11.081 16.4953 11.4424C16.2345 11.5156 15.9577 11.5568 15.6718 11.5568H2.38551C2.05149 11.5568 1.73128 11.5019 1.43164 11.4035C1.83425 12.6251 2.98947 13.5149 4.34377 13.5149V15.8322C4.34377 16.0793 4.58627 16.1913 4.7693 16.0084L7.26268 13.5149H16.4953H17.63C19.3159 13.5149 20.6952 12.1355 20.6952 10.4496V5.3964V3.66934C20.6952 2.31738 19.8054 1.16224 18.5839 0.757294C18.6822 1.05919 18.7371 1.37949 18.7371 1.71116V5.3964V8.49147H18.7372Z" fill="#DDEAFB"/>
  <path d="M2.55062 24.6872C2.68563 25.0532 2.89835 25.3826 3.17055 25.6526C3.65322 26.1352 4.31673 26.4349 5.04868 26.4349C5.77844 26.4349 6.44414 26.1352 6.92672 25.6526C7.40938 25.17 7.7091 24.5043 7.7091 23.7745V22.2945C7.14864 22.3426 6.65678 22.2213 6.27249 22.0611C6.23811 22.2281 6.19929 22.3905 6.14894 22.5506C5.95905 23.1682 5.64109 23.731 5.13785 24.1359C4.62775 24.5477 3.9506 24.7856 3.05386 24.7399C2.89375 24.7329 2.72671 24.7147 2.55062 24.6872ZM18.2298 20.7229H23.5506V19.0507H19.4536C19.1173 19.0507 18.8107 19.1903 18.5889 19.4121C18.3669 19.6341 18.2298 19.9383 18.2298 20.2746V20.7229ZM23.5505 21.933H18.2297V23.7744C18.2297 24.5042 18.5293 25.1699 19.012 25.6525C19.4946 26.1352 20.1603 26.4348 20.89 26.4348C21.622 26.4348 22.2877 26.1352 22.7681 25.6525C23.2507 25.1699 23.5504 24.5042 23.5504 23.7744V21.933H23.5505ZM40.1355 25.9729C40.4603 26.1444 40.7463 26.3778 40.9819 26.6545C41.4051 27.1533 41.659 27.796 41.659 28.4937V32.5747C41.659 32.9087 41.389 33.1785 41.0552 33.1785C40.7212 33.1785 40.4489 32.9086 40.4489 32.5747V28.4937C40.4489 28.0912 40.3025 27.7205 40.0601 27.4346C39.8451 27.1806 39.5545 26.9931 39.2228 26.9039C38.5846 27.3705 37.7999 27.6451 36.9535 27.6451C36.0774 27.6451 35.2676 27.3523 34.6156 26.8559C34.4921 26.8696 34.3732 26.904 34.2587 26.9565C34.1031 27.0297 33.9614 27.1419 33.8469 27.2928L30.5963 31.598C30.4819 31.749 30.3035 31.8405 30.1137 31.8405H25.948C25.6392 31.8405 25.3601 31.964 25.1589 32.1653C24.9575 32.3689 24.8317 32.6479 24.8317 32.9545C24.8317 33.2633 24.9575 33.5423 25.1589 33.7437C25.3601 33.9449 25.6392 34.0708 25.948 34.0708H30.9234C31.1225 34.0708 31.2757 34.0502 31.4656 33.9541C31.818 33.778 32.1473 33.2428 32.3875 32.9225L34.5401 30.0745C34.7415 29.8069 35.1189 29.7542 35.3865 29.9556C35.6519 30.1568 35.7045 30.5365 35.5032 30.8019L33.4558 33.5149V38.79H40.4489V35.3151C40.4489 34.9811 40.7212 34.7113 41.0552 34.7113C41.3891 34.7113 41.659 34.9812 41.659 35.3151V39.3961C41.659 39.7301 41.389 40 41.0552 40C27.6842 40 14.3157 40 0.947036 40C0.61302 40 0.34082 39.7301 0.34082 39.3961V35.3151C0.34082 34.9811 0.61302 34.7113 0.947036 34.7113C1.28105 34.7113 1.55091 34.9812 1.55091 35.3151V38.79H8.54636V33.5149L6.49675 30.8019C6.29549 30.5365 6.34802 30.1568 6.61578 29.9556C6.88112 29.7542 7.26082 29.8068 7.46216 30.0745L9.56665 32.8607C9.75887 33.1146 9.95102 33.3708 10.1431 33.627C10.2528 33.7711 10.3878 33.8809 10.5366 33.9541C10.7036 34.0388 10.8591 34.0708 11.0422 34.0708H16.0542C16.3608 34.0708 16.6398 33.9449 16.8433 33.7437C17.0447 33.5423 17.1682 33.2633 17.1682 32.9545C17.1682 32.6479 17.0447 32.3689 16.8433 32.1653C16.6398 31.964 16.3608 31.8405 16.0542 31.8405H11.8863C11.7033 31.8405 11.5226 31.7559 11.4037 31.598L8.15303 27.2928C7.96775 27.0481 7.69087 26.8903 7.38445 26.8559C6.73474 27.35 5.925 27.6451 5.04884 27.6451C4.20254 27.6451 3.41548 27.3706 2.7773 26.9062C2.45249 26.9909 2.16423 27.1762 1.94916 27.4232C1.70206 27.7114 1.55107 28.0843 1.55107 28.4938V32.5747C1.55107 32.9088 1.28113 33.1786 0.947198 33.1786C0.613262 33.1786 0.34082 32.9087 0.34082 32.5747V28.4937C0.34082 27.7868 0.603901 27.1349 1.03621 26.634C1.26959 26.3664 1.55091 26.1398 1.86661 25.9729C1.41598 25.3255 1.17808 24.5614 1.17808 23.7745V20.2746C1.17808 19.6043 1.45028 18.9958 1.89179 18.5544C2.33338 18.1152 2.93951 17.8407 3.6098 17.8407H6.48529C7.15558 17.8407 7.76406 18.1151 8.20549 18.5544C8.647 18.9959 8.91928 19.6044 8.91928 20.2746V23.7745C8.91928 24.55 8.68823 25.2752 8.2924 25.8814C8.61956 26.0461 8.89628 26.2726 9.1182 26.5654L12.1859 30.628H14.6084V28.1735C14.6084 27.4782 14.9767 26.849 15.5738 26.316C16.0359 25.9043 16.6443 25.5451 17.3169 25.2615C17.1247 24.8017 17.0194 24.3007 17.0194 23.7745V21.3292V20.2746C17.0194 19.6043 17.294 18.9958 17.7333 18.5544C18.1748 18.1152 18.7833 17.8407 19.4535 17.8407H24.1567C24.4907 17.8407 24.763 18.1129 24.763 18.4469V21.3292V23.7746C24.763 24.271 24.6669 24.7469 24.4953 25.186C25.2182 25.4697 25.8724 25.8357 26.3666 26.2611C27.0002 26.8056 27.3914 27.4552 27.3914 28.1735V30.628H29.8139L32.8816 26.5654C33.1081 26.2679 33.3917 26.0392 33.7097 25.8837C33.3116 25.2752 33.0806 24.5501 33.0806 23.7745V20.2746C33.0806 19.6043 33.3551 18.9958 33.7944 18.5544C34.2359 18.1152 34.8444 17.8407 35.5146 17.8407H38.3901C39.0604 17.8407 39.6688 18.1151 40.1103 18.5544C40.5495 18.9959 40.8241 19.6044 40.8241 20.2746V23.7745C40.8241 24.5613 40.5839 25.3254 40.1355 25.9729ZM39.4493 24.6872C39.2754 24.7147 39.1061 24.7329 38.946 24.7399C38.0515 24.7855 37.3744 24.5476 36.8643 24.1359C36.3587 23.731 36.0407 23.1683 35.8509 22.5506C35.8028 22.3905 35.7617 22.2281 35.7296 22.0611C35.343 22.2212 34.8535 22.3425 34.2907 22.2945V23.7745C34.2907 24.5043 34.5904 25.17 35.0731 25.6526C35.5557 26.1352 36.2214 26.4349 36.9535 26.4349C37.6831 26.4349 38.3488 26.1352 38.8316 25.6526C39.1016 25.3826 39.3142 25.0532 39.4493 24.6872ZM34.2907 21.0821C35.0982 21.1964 35.6884 20.7275 35.7936 20.636C35.9126 20.5353 36.0247 20.4736 36.1871 20.4667C36.5211 20.4507 36.8025 20.7069 36.8184 21.0408C36.839 21.4343 36.8939 21.8323 37.006 22.196C37.1295 22.601 37.3239 22.9578 37.6191 23.1957C37.9097 23.4291 38.3192 23.5617 38.8887 23.5342C39.1084 23.5227 39.3485 23.4885 39.6139 23.429V20.2744C39.6139 19.9381 39.4743 19.6339 39.2524 19.412C39.0305 19.1901 38.7263 19.0505 38.3899 19.0505H35.5146C35.1783 19.0505 34.874 19.1901 34.6521 19.412C34.4302 19.6339 34.2907 19.9381 34.2907 20.2744V21.0821ZM7.70918 21.0821V20.2745C7.70918 19.9382 7.57191 19.634 7.34999 19.4121C7.12815 19.1902 6.82157 19.0506 6.48529 19.0506H3.6098C3.27579 19.0506 2.96921 19.1902 2.74728 19.4121C2.52544 19.634 2.38817 19.9382 2.38817 20.2745V23.4291C2.65125 23.4885 2.89141 23.5228 3.11108 23.5343C3.68066 23.5618 4.09021 23.4291 4.38073 23.1957C4.67576 22.9579 4.87017 22.6011 4.99606 22.1961C5.10815 21.8323 5.16303 21.4344 5.18135 21.0409C5.19733 20.7069 5.48099 20.4507 5.81266 20.4668C5.96825 20.4737 6.0872 20.5308 6.20155 20.6314C6.28629 20.7069 6.88564 21.1987 7.70918 21.0821ZM17.9643 26.3023C17.3329 26.547 16.7748 26.8581 16.3767 27.215C16.0313 27.5216 15.8185 27.851 15.8185 28.1735V30.628H16.0542C16.6948 30.628 17.278 30.8888 17.699 31.3097C18.1199 31.7306 18.3807 32.3117 18.3807 32.9545C18.3807 33.3594 18.2754 33.7392 18.0947 34.0708H23.9051C23.7244 33.7392 23.6215 33.3594 23.6215 32.9545C23.6215 32.3117 23.8822 31.7306 24.3031 31.3097C24.7241 30.8888 25.3051 30.628 25.948 30.628H26.1813V28.1735C26.1813 27.8395 25.9526 27.4964 25.582 27.1784C25.1473 26.8056 24.5434 26.483 23.8708 26.2383C23.793 26.3321 23.7107 26.4236 23.6261 26.5082C22.9237 27.2105 21.9561 27.6452 20.8902 27.6452C19.8264 27.6452 18.8566 27.2105 18.1566 26.5082C18.0901 26.4417 18.0261 26.3732 17.9643 26.3023ZM5.38495 4.48125C5.05094 4.48125 4.78108 4.20905 4.78108 3.87504C4.78108 3.54102 5.05102 3.27116 5.38495 3.27116H16.5895C16.9235 3.27116 17.1933 3.5411 17.1933 3.87504C17.1933 4.20905 16.9234 4.48125 16.5895 4.48125H5.38495ZM5.38495 10.8498C5.05094 10.8498 4.78108 10.5776 4.78108 10.2436C4.78108 9.9096 5.05102 9.6374 5.38495 9.6374H10.9873C11.3213 9.6374 11.5935 9.9096 11.5935 10.2436C11.5935 10.5776 11.3213 10.8498 10.9873 10.8498H5.38495ZM5.38495 7.66558C5.05094 7.66558 4.78108 7.39338 4.78108 7.05936C4.78108 6.72535 5.05102 6.45541 5.38495 6.45541H16.5895C16.9235 6.45541 17.1933 6.72543 17.1933 7.05936C17.1933 7.39338 16.9234 7.66558 16.5895 7.66558H5.38495ZM17.2094 14.1187C17.294 14.3544 17.429 14.5648 17.6006 14.7363C17.9072 15.0452 18.3326 15.2373 18.8061 15.2373H22.3633C22.6973 15.2373 22.9672 15.5073 22.9672 15.8435C22.9672 16.1775 22.6972 16.4475 22.3633 16.4475H18.8061C17.9986 16.4475 17.2711 16.1181 16.745 15.5873C16.3516 15.1916 16.0724 14.6838 15.9535 14.1187H7.5147L4.77422 16.8592C4.66447 16.969 4.51348 17.0376 4.34417 17.0376C4.01015 17.0376 3.73787 16.7677 3.73787 16.4338V14.0685C2.96929 13.9403 2.28068 13.5721 1.75234 13.0413C1.08665 12.3779 0.674917 11.4606 0.674917 10.4495V3.66925C0.674917 2.66043 1.08673 1.74311 1.75234 1.0775C2.41577 0.41407 3.333 0 4.34417 0H17.6305C18.6415 0 19.5589 0.41407 20.2222 1.0775C20.8879 1.74311 21.2997 2.66043 21.2997 3.66925V4.79017H31.5801C32.383 4.79017 33.1105 5.11733 33.639 5.64575C34.1674 6.17417 34.4945 6.9016 34.4945 7.70456V13.5333C34.4945 14.3362 34.1674 15.0636 33.639 15.5921C33.2477 15.9833 32.7445 16.2646 32.1841 16.3836V18.7627C32.1841 18.9159 32.1269 19.0714 32.0079 19.1905C31.7723 19.426 31.388 19.426 31.1524 19.1905L28.4095 16.4477H25.104C24.77 16.4477 24.4978 16.1777 24.4978 15.8438C24.4978 15.5076 24.77 15.2375 25.104 15.2375H28.6612C28.8305 15.2375 28.9815 15.3062 29.0912 15.4182L30.9738 17.3009V15.8437C30.9738 15.5075 31.2461 15.2375 31.5801 15.2375C32.0468 15.2375 32.4745 15.0453 32.7834 14.7365C33.0921 14.4277 33.2844 14.0022 33.2844 13.5333V7.70456C33.2844 7.23561 33.0921 6.81016 32.7834 6.50133C32.4745 6.19249 32.0468 6.00034 31.5801 6.00034H21.2997V10.4496C21.2997 11.4607 20.8878 12.378 20.2222 13.0415C19.5587 13.7071 18.6414 14.1189 17.6304 14.1189H17.2094V14.1187ZM7.263 12.9086H17.6304C18.3075 12.9086 18.9205 12.6318 19.3667 12.1858C19.8127 11.7397 20.0895 11.1244 20.0895 10.4495V3.66925C20.0895 2.99444 19.8127 2.37911 19.3667 1.933C18.9206 1.48689 18.3075 1.21009 17.6304 1.21009H4.34409C3.66686 1.21009 3.05386 1.48689 2.60775 1.933C2.16173 2.37903 1.88485 2.99436 1.88485 3.66925V10.4496C1.88485 11.1244 2.16173 11.7397 2.60775 12.1859C3.05378 12.6319 3.66686 12.9087 4.34409 12.9087C4.6781 12.9087 4.94796 13.1809 4.94796 13.5149V14.9721L6.83521 13.0872C6.95424 12.9681 7.10757 12.9086 7.263 12.9086ZM32.2457 35.2808H9.75645V38.7899H32.2458V35.2808H32.2457Z" fill="black"/>
</svg>
