<svg xmlns="http://www.w3.org/2000/svg" width="256" height="256"><path fill-opacity=".016" d="M0 128.004v128.004l128.25-.254 128.25-.254.254-127.75L257.008 0H0v128.004m.485.496c0 70.4.119 99.053.265 63.672.146-35.38.146-92.98 0-128C.604 29.153.485 58.1.485 128.5" fill="#1976D2" fill-rule="evenodd"/><path fill-opacity=".059" d="M105.555 1.614c-4.37.789-12.695 3.021-18.5 4.961-44.369 14.824-77.436 53.42-85.509 99.806-1.981 11.381-1.981 31.857 0 43.238 8.09 46.484 41.058 84.938 85.581 99.822C101.157 254.131 112.802 256 128 256c33.777 0 64.614-12.397 89.364-35.925 7.815-7.429 19.184-22.673 24.39-32.702 5.055-9.736 10.698-26.224 12.278-35.873.631-3.85 1.557-7.781 2.058-8.736 1.065-2.032 1.253-31.441.194-30.381-.394.393-1.305-2.769-2.024-7.029-5.172-30.618-23.282-60.096-48.747-79.345-16.514-12.482-35.963-20.994-55.894-24.463-11.044-1.923-33.229-1.888-44.064.068m6.266 25.815c-22.233 3.94-42.143 14.664-57.89 31.181-8.198 8.6-13.339 16.301-18.721 28.045-23.628 51.564.986 113.215 53.962 135.16 22.776 9.435 47.542 10.366 70.523 2.651 36.208-12.154 62.21-42.586 68.689-80.392 2.019-11.78 2.044-20.324.09-31.693-7.302-42.496-38.193-74.941-79.974-83.998-9.888-2.143-27.399-2.599-36.679-.954m6.679 11.623c-15.649 1.562-32.516 8.426-45.316 18.441-33.383 26.12-44.137 71.789-25.671 109.007 4.856 9.786 11.201 18.825 13.524 19.263.819.154 28.765-27.053 63.444-61.765 53.048-53.099 61.826-62.29 60.902-63.77-1.875-3.003-15.679-11.775-23.131-14.699l-7.166-2.811-3.793 3.315c-2.086 1.823-15.942 15.161-30.791 29.641-28.387 27.68-29.946 28.808-33.847 24.497-3.979-4.397-3.081-5.576 25.545-33.537 14.96-14.612 26.997-26.748 26.75-26.968-1.1-.98-13.159-1.342-20.45-.614m13.66 94.274-62.34 62.36 5.331 4.246c5.771 4.594 19.462 11.641 24.625 12.673 3.1.62 4.152-.285 32.963-28.347 16.369-15.943 30.703-29.281 31.854-29.64 2.829-.883 7.407 2.771 7.407 5.912 0 1.779-5.268 7.574-20.75 22.828-11.412 11.244-23.562 23.018-27 26.166-3.438 3.147-6.25 6.169-6.25 6.715 0 1.561 25.545.274 32.354-1.63 32.104-8.98 56.696-34.094 64.732-66.109 5.759-22.938.839-49.716-12.859-69.998-2.6-3.849-5.402-7.12-6.227-7.268-.859-.154-28.156 26.395-63.84 62.092M.402 128c0 8.525.154 12.012.341 7.75.188-4.262.188-11.237 0-15.5-.187-4.263-.341-.775-.341 7.75" fill="#1976D2" fill-rule="evenodd"/><path fill-opacity=".17" d="M108 1.651C90.523 4.326 71.676 11.808 56 22.293 46.364 28.739 28.739 46.364 22.293 56c-29.533 44.153-29.533 99.847 0 144 6.446 9.636 24.071 27.261 33.707 33.707 44.153 29.533 99.847 29.533 144 0 9.636-6.446 27.261-24.071 33.707-33.707 10.405-15.557 18.137-34.97 20.312-51 .634-4.675 1.564-9.281 2.067-10.236 1.115-2.119 1.232-23.079.125-22.395-.433.268-1.35-3.634-2.036-8.672-2.258-16.584-9.913-35.916-20.468-51.697-6.446-9.636-24.071-27.261-33.707-33.707-27.357-18.299-59.783-25.574-92-20.642m3.393 25.437c-13.64 2.282-30.622 9.359-42.296 17.627-14.34 10.156-25.407 23.397-33.212 39.736-7.9 16.537-9.264 22.952-9.264 43.549 0 20.956 1.429 27.44 9.808 44.5 14.601 29.726 41.993 50.378 74.29 56.01 59.677 10.407 116.215-34.831 119.004-95.219.356-7.705.104-15.085-.684-20-7.061-44.075-40.437-78.208-83.92-85.823-9.016-1.579-25.451-1.764-33.726-.38M111 40.522C82.64 46.341 59.747 64.3 47.454 90.37c-6.738 14.292-7.906 19.77-7.916 37.13-.009 17.545 1.361 24.116 7.924 38 3.83 8.103 11.969 20.5 13.459 20.5.322 0 28.709-28.14 63.082-62.533L186.5 60.933l-2.5-2.036c-5.818-4.738-14.563-9.945-21.672-12.904l-7.613-3.17-9.598 9.339c-5.278 5.136-18.471 18.087-29.316 28.781-24.169 23.83-24.74 24.209-29.442 19.507-1.992-1.992-2.403-3.142-1.878-5.25.435-1.743 10.036-11.858 27.096-28.546C126.11 52.438 138 40.401 138 39.904c0-1.356-19.563-.908-27 .618m22.203 92.493c-34.212 34.108-62.196 62.345-62.188 62.75.052 2.487 21.505 14.85 28.985 16.702 2.795.693 2.686.79 41.774-37.582 14.983-14.71 21.94-20.885 23.527-20.885 3.835 0 6.699 2.74 6.699 6.408 0 2.996-2.406 5.633-26.5 29.045-14.575 14.163-26.5 26.22-26.5 26.794 0 1.808 23.515.16 31.933-2.238 16.792-4.783 30.519-13.264 42.783-26.432 16.092-17.277 24.133-39.489 22.996-63.519-.628-13.257-2.946-22.527-8.641-34.558-3.441-7.269-10.769-18.447-12.118-18.485-.302-.008-28.539 27.892-62.75 62M.378 128c0 6.325.163 8.912.361 5.75.198-3.163.198-8.338 0-11.5-.198-3.163-.361-.575-.361 5.75" fill="#1976D2" fill-rule="evenodd"/><path fill-opacity=".112" d="M115.265.972C58.709 7.383 14.59 47.541 2.881 103.266c-3 14.276-3 35.192 0 49.468 9.453 44.987 39.981 80.207 82.885 95.624 26.059 9.363 58.409 9.363 84.468 0 42.78-15.373 73.728-51.007 82.75-95.281 1.109-5.44 2.016-11.931 2.016-14.425 0-2.494.45-4.812 1-5.152.55-.34 1-3.318 1-6.618 0-3.745-.376-5.768-1-5.382-.612.378-1-1.187-1-4.034 0-2.558-.907-9.103-2.016-14.543-10.305-50.571-49.425-89.729-99.75-99.849C141.643.743 125.278-.163 115.265.972m.846 25.145c-41.58 4.822-76.864 36.018-87.778 77.606-2.187 8.333-2.566 11.918-2.566 24.277 0 17.011 2.378 28.112 9.089 42.433 12.964 27.664 35.45 46.897 65.744 56.231 8.341 2.57 10.061 2.742 27.4 2.742 17.329 0 19.062-.173 27.378-2.736 37.912-11.683 65.436-41.115 73.087-78.153 1.939-9.389 2.001-31.67.113-40.517-9.494-44.478-45.913-77.369-90.764-81.971-11.058-1.135-11.167-1.135-21.703.088m3.389 13.539c-25.109 2.981-47.779 15.64-62.084 34.667-6.128 8.151-11.788 19.572-15.064 30.395C40 112.487 39.694 115.173 39.694 128c0 12.887.3 15.495 2.703 23.438 3.27 10.813 10.438 25.01 15.436 30.574l3.667 4.082 62.375-62.425 62.375-62.425-5.375-4.28C175.792 52.916 158.703 44 156.029 44c-1.889 0-5.99 3.67-25.029 22.393-40.231 39.566-40.022 39.406-44.826 34.293-4.638-4.938-4.152-5.6 24.869-33.856 24.097-23.461 26.794-26.401 24.75-26.98-2.423-.688-11.253-.793-16.293-.194m13.636 93.667-62.364 62.411 4.843 3.698c6.646 5.074 20.524 11.802 24.646 11.948 3.149.111 5.492-1.919 32.166-27.88 15.823-15.4 29.412-28.366 30.197-28.814 4.171-2.379 11.341 2.698 9.959 7.052-.572 1.803-30.388 31.902-46.898 47.343l-6.815 6.374 2.815.813c1.548.448 6.64.545 11.315.217 32.169-2.258 60.35-20.893 74.078-48.985 7.266-14.869 9.194-23.151 9.194-39.5 0-10.678-.45-15.172-2.154-21.5-2.628-9.762-10.736-26.637-15.277-31.795l-3.341-3.794-62.364 62.412M.32 128c0 3.575.182 5.037.403 3.25.222-1.787.222-4.713 0-6.5-.221-1.787-.403-.325-.403 3.25" fill="#1976D2" fill-rule="evenodd"/></svg>