<svg xmlns="http://www.w3.org/2000/svg" width="256" height="256"><path fill-opacity=".016" d="M0 128.004v128.004l128.25-.254 128.25-.254.254-127.75L257.008 0H0v128.004m.485.496c0 70.4.119 99.053.265 63.672.146-35.38.146-92.98 0-128C.604 29.153.485 58.1.485 128.5" fill="#1976D2" fill-rule="evenodd"/><path fill-opacity=".04" d="M0 128.011v125.997l128.25-.254 128.25-.254.254-126 .254-126-128.504.258L0 2.015v125.996M.485 128c0 69.575.119 98.037.265 63.25.146-34.788.146-91.713 0-126.5C.604 29.962.485 58.425.485 128M113.69 78.766c-21.346 25.583-38.446 46.855-38 47.272 1.025.96 50.569 18.036 51.02 17.585.444-.443 26.297-110.962 26.012-111.192-.122-.098-17.687 20.753-39.032 46.335m4.089 107.439c-5.311 22.688-9.571 41.33-9.467 41.426.151.141 31.123-42.6 47.925-66.136l3.736-5.234-15.236-5.289c-8.381-2.909-15.702-5.454-16.27-5.654-.607-.215-5.011 16.63-10.688 40.887" fill="#1976D2" fill-rule="evenodd"/><path fill-opacity=".186" d="M0 128.011v125.997l128.25-.254 128.25-.254.254-126 .254-126-128.504.258L0 2.015v125.996M.485 128c0 69.575.119 98.037.265 63.25.146-34.788.146-91.713 0-126.5C.604 29.962.485 58.425.485 128m113.521-50.084c-21.563 25.804-39.243 47.292-39.288 47.75-.122 1.249 51.352 18.679 52.236 17.688.42-.47 6.037-23.579 12.482-51.354 6.445-27.775 12.316-52.862 13.046-55.75.731-2.888 1.194-5.25 1.03-5.25-.164 0-17.942 21.112-39.506 46.916m12.495 69.334c-11.034 46.187-18.903 81.573-17.915 80.56 4.006-4.11 51.409-71.199 50.731-71.799-.923-.816-29.969-11.011-31.372-11.011-.499 0-1.149 1.012-1.444 2.25" fill="#1976D2" fill-rule="evenodd"/><path fill-opacity=".108" d="M0 128.011v125.997l128.25-.254 128.25-.254.254-126 .254-126-128.504.258L0 2.015v125.996M.485 128c0 69.575.119 98.037.265 63.25.146-34.788.146-91.713 0-126.5C.604 29.962.485 58.425.485 128m113.583-50.619c-21.688 25.967-39.591 47.687-39.784 48.267-.195.586 11.318 5.056 25.932 10.068 22.758 7.804 26.239 9.266 25.951 10.899-.183 1.037-4.58 20.063-9.772 42.28-5.192 22.216-9.277 40.557-9.078 40.755.472.472 53.235-72.677 53.015-73.499-.092-.345-7.4-3.108-16.24-6.139-8.841-3.032-16.078-5.962-16.084-6.512-.006-.55 5.867-26.136 13.05-56.857 7.184-30.721 12.922-55.996 12.752-56.166-.171-.17-18.055 20.936-39.742 46.904" fill="#1976D2" fill-rule="evenodd"/></svg>