<svg width="172" height="49" viewBox="0 0 172 49" fill="none" xmlns="http://www.w3.org/2000/svg">
<path d="M65.9434 31.0215C65.9434 33.3066 65.1172 35.0996 63.4648 36.4004C61.8125 37.7012 59.5332 38.3516 56.627 38.3516C53.7207 38.3516 51.3418 37.9004 49.4902 36.998V33.0254C50.6621 33.5762 51.9043 34.0098 53.2168 34.3262C54.541 34.6426 55.7715 34.8008 56.9082 34.8008C58.5723 34.8008 59.7969 34.4844 60.582 33.8516C61.3789 33.2188 61.7773 32.3691 61.7773 31.3027C61.7773 30.3418 61.4141 29.5273 60.6875 28.8594C59.9609 28.1914 58.4609 27.4004 56.1875 26.4863C53.8438 25.5371 52.1914 24.4531 51.2305 23.2344C50.2695 22.0156 49.7891 20.5508 49.7891 18.8398C49.7891 16.6953 50.5508 15.0078 52.0742 13.7773C53.5977 12.5469 55.6426 11.9316 58.209 11.9316C60.6699 11.9316 63.1191 12.4707 65.5566 13.5488L64.2207 16.9766C61.9355 16.0156 59.8965 15.5352 58.1035 15.5352C56.7441 15.5352 55.7129 15.834 55.0098 16.4316C54.3066 17.0176 53.9551 17.7969 53.9551 18.7695C53.9551 19.4375 54.0957 20.0117 54.377 20.4922C54.6582 20.9609 55.1211 21.4062 55.7656 21.8281C56.4102 22.25 57.5703 22.8066 59.2461 23.498C61.1328 24.2832 62.5156 25.0156 63.3945 25.6953C64.2734 26.375 64.918 27.1426 65.3281 27.998C65.7383 28.8535 65.9434 29.8613 65.9434 31.0215ZM87.7227 28.2441C87.7227 31.4199 86.9082 33.8984 85.2793 35.6797C83.6504 37.4609 81.3828 38.3516 78.4766 38.3516C76.6602 38.3516 75.0547 37.9414 73.6602 37.1211C72.2656 36.3008 71.1934 35.123 70.4434 33.5879C69.6934 32.0527 69.3184 30.2715 69.3184 28.2441C69.3184 25.0918 70.127 22.6309 71.7441 20.8613C73.3613 19.0918 75.6406 18.207 78.582 18.207C81.3945 18.207 83.6211 19.1152 85.2617 20.9316C86.9023 22.7363 87.7227 25.1738 87.7227 28.2441ZM73.5723 28.2441C73.5723 32.7324 75.2305 34.9766 78.5469 34.9766C81.8281 34.9766 83.4688 32.7324 83.4688 28.2441C83.4688 23.8027 81.8164 21.582 78.5117 21.582C76.7773 21.582 75.5176 22.1562 74.7324 23.3047C73.959 24.4531 73.5723 26.0996 73.5723 28.2441ZM109.59 38H105.441V26.0469C105.441 24.5469 105.137 23.4277 104.527 22.6895C103.93 21.9512 102.975 21.582 101.662 21.582C99.916 21.582 98.6387 22.0977 97.8301 23.1289C97.0215 24.1602 96.6172 25.8887 96.6172 28.3145V38H92.4863V18.5586H95.7207L96.3008 21.1074H96.5117C97.0977 20.1816 97.9297 19.4668 99.0078 18.9629C100.086 18.459 101.281 18.207 102.594 18.207C107.258 18.207 109.59 20.5801 109.59 25.3262V38ZM129.049 38L128.469 35.4512H128.258C127.684 36.3535 126.863 37.0625 125.797 37.5781C124.742 38.0938 123.535 38.3516 122.176 38.3516C119.82 38.3516 118.062 37.7656 116.902 36.5938C115.742 35.4219 115.162 33.6465 115.162 31.2676V18.5586H119.328V30.5469C119.328 32.0352 119.633 33.1543 120.242 33.9043C120.852 34.6426 121.807 35.0117 123.107 35.0117C124.842 35.0117 126.113 34.4961 126.922 33.4648C127.742 32.4219 128.152 30.6816 128.152 28.2441V18.5586H132.301V38H129.049ZM145.432 35.0117C146.439 35.0117 147.447 34.8535 148.455 34.5371V37.6484C147.998 37.8477 147.406 38.0117 146.68 38.1406C145.965 38.2812 145.221 38.3516 144.447 38.3516C140.533 38.3516 138.576 36.2891 138.576 32.1641V21.6875H135.922V19.8594L138.77 18.3477L140.176 14.2344H142.725V18.5586H148.262V21.6875H142.725V32.0938C142.725 33.0898 142.971 33.8281 143.463 34.3086C143.967 34.7773 144.623 35.0117 145.432 35.0117ZM169.602 28.2441C169.602 31.4199 168.787 33.8984 167.158 35.6797C165.529 37.4609 163.262 38.3516 160.355 38.3516C158.539 38.3516 156.934 37.9414 155.539 37.1211C154.145 36.3008 153.072 35.123 152.322 33.5879C151.572 32.0527 151.197 30.2715 151.197 28.2441C151.197 25.0918 152.006 22.6309 153.623 20.8613C155.24 19.0918 157.52 18.207 160.461 18.207C163.273 18.207 165.5 19.1152 167.141 20.9316C168.781 22.7363 169.602 25.1738 169.602 28.2441ZM155.451 28.2441C155.451 32.7324 157.109 34.9766 160.426 34.9766C163.707 34.9766 165.348 32.7324 165.348 28.2441C165.348 23.8027 163.695 21.582 160.391 21.582C158.656 21.582 157.396 22.1562 156.611 23.3047C155.838 24.4531 155.451 26.0996 155.451 28.2441Z" fill="white"/>
<path fill-rule="evenodd" clip-rule="evenodd" d="M31.2506 34.1213C26.6264 42.1306 16.385 44.8748 8.37563 40.2506C0.3663 35.6265 -2.3779 25.385 2.24629 17.3756C6.87048 9.3663 17.112 6.6221 25.1213 11.2463C33.1306 15.8705 35.8748 26.112 31.2506 34.1213ZM22.4219 13.1309C21.0695 12.5208 19.6603 12.146 18.2449 11.9928L13.3099 20.5405C12.9245 21.2079 12.0711 21.4366 11.4036 21.0513C10.7362 20.6659 10.5075 19.8125 10.8928 19.145L15.0037 12.0248C10.8663 12.5539 7.01491 14.9407 4.76841 18.8318C1.18394 25.0403 2.95898 32.8723 8.65802 36.9706L22.4219 13.1309ZM15.252 39.5042C13.8366 39.351 12.4274 38.9761 11.075 38.3661L24.8389 14.5263C30.5379 18.6246 32.313 26.4567 28.7285 32.6652C26.482 36.5562 22.6306 38.943 18.4932 39.4721L22.6041 32.3519C22.9894 31.6845 22.7607 30.831 22.0933 30.4457C21.4259 30.0603 20.5724 30.289 20.187 30.9564L15.252 39.5042Z" fill="white"/>
</svg>
