<svg width="68" height="68" viewBox="0 0 68 68" fill="none" xmlns="http://www.w3.org/2000/svg">
<g filter="url(#filter0_d)">
<circle cx="31" cy="30" r="19" fill="#6B7BC7"/>
</g>
<path d="M36.2049 33.952L40 37.7462L38.7462 39L34.952 35.2049C33.5402 36.3366 31.7842 36.9522 29.9748 36.9496C25.5727 36.9496 22 33.3769 22 28.9748C22 24.5727 25.5727 21 29.9748 21C34.3769 21 37.9496 24.5727 37.9496 28.9748C37.9522 30.7842 37.3366 32.5402 36.2049 33.952ZM34.4274 33.2945C35.5519 32.138 36.18 30.5879 36.1774 28.9748C36.1774 25.5474 33.4013 22.7722 29.9748 22.7722C26.5474 22.7722 23.7722 25.5474 23.7722 28.9748C23.7722 32.4013 26.5474 35.1774 29.9748 35.1774C31.5879 35.18 33.138 34.5519 34.2945 33.4274L34.4274 33.2945Z" fill="white"/>
<defs>
<filter id="filter0_d" x="0" y="0" width="68" height="68" filterUnits="userSpaceOnUse" color-interpolation-filters="sRGB">
<feFlood flood-opacity="0" result="BackgroundImageFix"/>
<feColorMatrix in="SourceAlpha" type="matrix" values="0 0 0 0 0 0 0 0 0 0 0 0 0 0 0 0 0 0 127 0"/>
<feOffset dx="3" dy="4"/>
<feGaussianBlur stdDeviation="7.5"/>
<feColorMatrix type="matrix" values="0 0 0 0 0.419608 0 0 0 0 0.482353 0 0 0 0 0.780392 0 0 0 0.3 0"/>
<feBlend mode="normal" in2="BackgroundImageFix" result="effect1_dropShadow"/>
<feBlend mode="normal" in="SourceGraphic" in2="effect1_dropShadow" result="shape"/>
</filter>
</defs>
</svg>
