<svg width="66" height="66" viewBox="0 0 66 66" fill="none" xmlns="http://www.w3.org/2000/svg">
<g opacity="0.15" filter="url(#filter0_d)">
<circle cx="30" cy="29" r="18" fill="white"/>
</g>
<path d="M22.1076 30.3036C21.9641 29.4405 21.9641 28.5595 22.1076 27.6964C22.989 27.7171 23.7807 27.2949 24.0887 26.5519C24.3966 25.8081 24.135 24.9491 23.4968 24.3421C24.0058 23.6297 24.629 23.0063 25.3411 22.497C25.949 23.1352 26.8079 23.3967 27.5517 23.0888C28.2955 22.7809 28.717 21.9883 28.6954 21.1077C29.5591 20.9641 30.4406 20.9641 31.3043 21.1077C31.2827 21.9891 31.705 22.7809 32.448 23.0888C33.1918 23.3967 34.0508 23.1352 34.6578 22.497C35.3702 23.0059 35.9936 23.6291 36.5029 24.3413C35.8647 24.9491 35.6032 25.8081 35.9111 26.5519C36.219 27.2957 37.0116 27.7171 37.8921 27.6956C38.0358 28.5593 38.0358 29.4407 37.8921 30.3044C37.0108 30.2829 36.219 30.7051 35.9111 31.4481C35.6032 32.1919 35.8647 33.0509 36.5029 33.6579C35.9939 34.3703 35.3708 34.9937 34.6586 35.503C34.0508 34.8648 33.1918 34.6033 32.448 34.9112C31.7042 35.2191 31.2827 36.0117 31.3043 36.8923C30.4406 37.0359 29.5591 37.0359 28.6954 36.8923C28.717 36.0109 28.2947 35.2191 27.5517 34.9112C26.8079 34.6033 25.949 34.8648 25.3419 35.503C24.6295 34.9941 24.0061 34.3709 23.4968 33.6587C24.135 33.0509 24.3966 32.1919 24.0887 31.4481C23.7807 30.7043 22.9882 30.2829 22.1076 30.3044V30.3036ZM29.9999 31.3994C30.6362 31.3994 31.2465 31.1466 31.6965 30.6966C32.1464 30.2466 32.3992 29.6363 32.3992 29C32.3992 28.3637 32.1464 27.7534 31.6965 27.3034C31.2465 26.8534 30.6362 26.6006 29.9999 26.6006C29.3635 26.6006 28.7532 26.8534 28.3033 27.3034C27.8533 27.7534 27.6005 28.3637 27.6005 29C27.6005 29.6363 27.8533 30.2466 28.3033 30.6966C28.7532 31.1466 29.3635 31.3994 29.9999 31.3994Z" fill="white"/>
<defs>
<filter id="filter0_d" x="0" y="0" width="66" height="66" filterUnits="userSpaceOnUse" color-interpolation-filters="sRGB">
<feFlood flood-opacity="0" result="BackgroundImageFix"/>
<feColorMatrix in="SourceAlpha" type="matrix" values="0 0 0 0 0 0 0 0 0 0 0 0 0 0 0 0 0 0 127 0"/>
<feOffset dx="3" dy="4"/>
<feGaussianBlur stdDeviation="7.5"/>
<feColorMatrix type="matrix" values="0 0 0 0 0.419608 0 0 0 0 0.482353 0 0 0 0 0.780392 0 0 0 0.3 0"/>
<feBlend mode="normal" in2="BackgroundImageFix" result="effect1_dropShadow"/>
<feBlend mode="normal" in="SourceGraphic" in2="effect1_dropShadow" result="shape"/>
</filter>
</defs>
</svg>
