<svg width="16" height="16" viewBox="0 0 16 16" fill="none" xmlns="http://www.w3.org/2000/svg">
<path d="M9.35343 12.4385L5.03804 10.0917C4.62381 10.5017 4.09711 10.7802 3.52435 10.8921C2.95159 11.0041 2.35841 10.9445 1.81959 10.7208C1.28077 10.4971 0.820434 10.1193 0.496618 9.6351C0.172801 9.15091 0 8.58197 0 8C0 7.41803 0.172801 6.84909 0.496618 6.3649C0.820434 5.88071 1.28077 5.50295 1.81959 5.27925C2.35841 5.05554 2.95159 4.99591 3.52435 5.10786C4.09711 5.21982 4.62381 5.49835 5.03804 5.90834L9.35343 3.56154C9.20543 2.86915 9.31233 2.14678 9.65457 1.52652C9.99682 0.906255 10.5516 0.429556 11.2173 0.183595C11.8831 -0.0623673 12.6154 -0.0611558 13.2804 0.187007C13.9453 0.43517 14.4984 0.913701 14.8386 1.53509C15.1788 2.15648 15.2833 2.87921 15.133 3.5711C14.9827 4.263 14.5876 4.87783 14.0201 5.30316C13.4525 5.72849 12.7503 5.9359 12.042 5.88746C11.3337 5.83902 10.6665 5.53796 10.1625 5.03934L5.84707 7.38614C5.93315 7.79088 5.93315 8.20912 5.84707 8.61386L10.1625 10.9607C10.6665 10.462 11.3337 10.161 12.042 10.1125C12.7503 10.0641 13.4525 10.2715 14.0201 10.6968C14.5876 11.1222 14.9827 11.737 15.133 12.4289C15.2833 13.1208 15.1788 13.8435 14.8386 14.4649C14.4984 15.0863 13.9453 15.5648 13.2804 15.813C12.6154 16.0612 11.8831 16.0624 11.2173 15.8164C10.5516 15.5704 9.99682 15.0937 9.65457 14.4735C9.31233 13.8532 9.20543 13.1308 9.35343 12.4385Z" fill="white"/>
</svg>
