<svg width="124" height="128" viewBox="0 0 124 128" fill="none" xmlns="http://www.w3.org/2000/svg">
  <path d="M18.2109 110.021C18.2109 112.307 17.3848 114.1 15.7324 115.4C14.0801 116.701 11.8008 117.352 8.89453 117.352C5.98828 117.352 3.60938 116.9 1.75781 115.998V112.025C2.92969 112.576 4.17188 113.01 5.48438 113.326C6.80859 113.643 8.03906 113.801 9.17578 113.801C10.8398 113.801 12.0645 113.484 12.8496 112.852C13.6465 112.219 14.0449 111.369 14.0449 110.303C14.0449 109.342 13.6816 108.527 12.9551 107.859C12.2285 107.191 10.7285 106.4 8.45508 105.486C6.11133 104.537 4.45898 103.453 3.49805 102.234C2.53711 101.016 2.05664 99.5508 2.05664 97.8398C2.05664 95.6953 2.81836 94.0078 4.3418 92.7773C5.86523 91.5469 7.91016 90.9316 10.4766 90.9316C12.9375 90.9316 15.3867 91.4707 17.8242 92.5488L16.4883 95.9766C14.2031 95.0156 12.1641 94.5352 10.3711 94.5352C9.01172 94.5352 7.98047 94.834 7.27734 95.4316C6.57422 96.0176 6.22266 96.7969 6.22266 97.7695C6.22266 98.4375 6.36328 99.0117 6.64453 99.4922C6.92578 99.9609 7.38867 100.406 8.0332 100.828C8.67773 101.25 9.83789 101.807 11.5137 102.498C13.4004 103.283 14.7832 104.016 15.6621 104.695C16.541 105.375 17.1855 106.143 17.5957 106.998C18.0059 107.854 18.2109 108.861 18.2109 110.021ZM39.9902 107.244C39.9902 110.42 39.1758 112.898 37.5469 114.68C35.918 116.461 33.6504 117.352 30.7441 117.352C28.9277 117.352 27.3223 116.941 25.9277 116.121C24.5332 115.301 23.4609 114.123 22.7109 112.588C21.9609 111.053 21.5859 109.271 21.5859 107.244C21.5859 104.092 22.3945 101.631 24.0117 99.8613C25.6289 98.0918 27.9082 97.207 30.8496 97.207C33.6621 97.207 35.8887 98.1152 37.5293 99.9316C39.1699 101.736 39.9902 104.174 39.9902 107.244ZM25.8398 107.244C25.8398 111.732 27.498 113.977 30.8145 113.977C34.0957 113.977 35.7363 111.732 35.7363 107.244C35.7363 102.803 34.084 100.582 30.7793 100.582C29.0449 100.582 27.7852 101.156 27 102.305C26.2266 103.453 25.8398 105.1 25.8398 107.244ZM61.8574 117H57.709V105.047C57.709 103.547 57.4043 102.428 56.7949 101.689C56.1973 100.951 55.2422 100.582 53.9297 100.582C52.1836 100.582 50.9062 101.098 50.0977 102.129C49.2891 103.16 48.8848 104.889 48.8848 107.314V117H44.7539V97.5586H47.9883L48.5684 100.107H48.7793C49.3652 99.1816 50.1973 98.4668 51.2754 97.9629C52.3535 97.459 53.5488 97.207 54.8613 97.207C59.5254 97.207 61.8574 99.5801 61.8574 104.326V117ZM81.3164 117L80.7363 114.451H80.5254C79.9512 115.354 79.1309 116.062 78.0645 116.578C77.0098 117.094 75.8027 117.352 74.4434 117.352C72.0879 117.352 70.3301 116.766 69.1699 115.594C68.0098 114.422 67.4297 112.646 67.4297 110.268V97.5586H71.5957V109.547C71.5957 111.035 71.9004 112.154 72.5098 112.904C73.1191 113.643 74.0742 114.012 75.375 114.012C77.1094 114.012 78.3809 113.496 79.1895 112.465C80.0098 111.422 80.4199 109.682 80.4199 107.244V97.5586H84.5684V117H81.3164ZM97.6992 114.012C98.707 114.012 99.7148 113.854 100.723 113.537V116.648C100.266 116.848 99.6738 117.012 98.9473 117.141C98.2324 117.281 97.4883 117.352 96.7148 117.352C92.8008 117.352 90.8438 115.289 90.8438 111.164V100.688H88.1895V98.8594L91.0371 97.3477L92.4434 93.2344H94.9922V97.5586H100.529V100.688H94.9922V111.094C94.9922 112.09 95.2383 112.828 95.7305 113.309C96.2344 113.777 96.8906 114.012 97.6992 114.012ZM121.869 107.244C121.869 110.42 121.055 112.898 119.426 114.68C117.797 116.461 115.529 117.352 112.623 117.352C110.807 117.352 109.201 116.941 107.807 116.121C106.412 115.301 105.34 114.123 104.59 112.588C103.84 111.053 103.465 109.271 103.465 107.244C103.465 104.092 104.273 101.631 105.891 99.8613C107.508 98.0918 109.787 97.207 112.729 97.207C115.541 97.207 117.768 98.1152 119.408 99.9316C121.049 101.736 121.869 104.174 121.869 107.244ZM107.719 107.244C107.719 111.732 109.377 113.977 112.693 113.977C115.975 113.977 117.615 111.732 117.615 107.244C117.615 102.803 115.963 100.582 112.658 100.582C110.924 100.582 109.664 101.156 108.879 102.305C108.105 103.453 107.719 105.1 107.719 107.244Z" fill="white"/>
  <path fill-rule="evenodd" clip-rule="evenodd" d="M91.9036 51.3698C82.4477 67.7479 61.5051 73.3594 45.1271 63.9035C28.749 54.4477 23.1375 33.5051 32.5934 17.1271C42.0493 0.749036 62.9918 -4.8625 79.3698 4.59338C95.7479 14.0493 101.359 34.9918 91.9036 51.3698ZM73.8499 8.4471C71.0844 7.19964 68.2028 6.43312 65.3085 6.11984L55.217 23.5988C54.429 24.9637 52.6838 25.4313 51.319 24.6433C49.9541 23.8553 49.4865 22.1101 50.2745 20.7453L58.6807 6.18535C50.2202 7.26734 42.3446 12.148 37.7508 20.1047C30.421 32.8003 34.0507 48.8159 45.7045 57.1963L73.8499 8.4471ZM59.1884 62.3771C56.2941 62.0638 53.4125 61.2973 50.6471 60.0498L78.7924 11.3007C90.4462 19.6811 94.0759 35.6967 86.7461 48.3922C82.1523 56.3489 74.2767 61.2296 65.8163 62.3116L74.2224 47.7517C75.0104 46.3868 74.5428 44.6416 73.178 43.8536C71.8131 43.0656 70.0679 43.5333 69.2799 44.8981L59.1884 62.3771Z" fill="white"/>
</svg>
