<svg width="286" height="238" viewBox="0 0 286 238" fill="none" xmlns="http://www.w3.org/2000/svg">
<path opacity="0.1" d="M92.4075 8.46471C100.743 1.0454 113.826 -0.475558 125.737 0.115133C163.145 1.97567 196.911 20.0331 226.121 40.4619C236.696 47.8555 247.106 55.8256 253.969 66.01C267.951 86.7413 263.796 115.46 244.369 132.538C237.757 138.348 229.745 142.811 221.518 146.752C206.89 153.772 191.107 159.408 174.505 161.02C162.668 162.161 150.683 161.234 138.912 159.639C106.03 155.17 73.7593 145.308 46.6988 128.438C34.8337 121.038 23.6505 111.839 18.7594 99.8734C13.8684 87.9084 16.9988 72.7273 29.1151 65.6305C34.126 62.6999 40.1185 61.3758 45.9826 60.1316C54.6175 58.3025 63.3894 56.499 71.1797 52.7808C79.2296 48.9399 88.7578 41.512 87.1597 33.0084C85.459 23.8969 84.0836 15.884 92.4075 8.46471Z" fill="#6B7BC7"/>
<path d="M195.456 190.874C195.456 190.874 202.607 178.207 213.374 174.557C217.9 173.055 221.817 170.125 224.537 166.207C225.814 164.338 226.916 162.355 227.83 160.283" stroke="#535461" stroke-width="2" stroke-miterlimit="10"/>
<path d="M234.604 157.941C233.377 159.134 227.662 160.364 227.662 160.364C227.662 160.364 229.063 154.688 230.29 153.498C230.879 152.926 231.671 152.611 232.492 152.623C233.314 152.635 234.096 152.973 234.669 153.562C235.241 154.152 235.555 154.944 235.543 155.765C235.531 156.586 235.194 157.369 234.604 157.941Z" fill="#6B7BC7"/>
<path d="M231.371 168.211C229.693 168.545 224.237 166.473 224.237 166.473C224.237 166.473 228.5 162.478 230.175 162.136C230.981 161.975 231.817 162.142 232.5 162.599C233.183 163.055 233.656 163.764 233.817 164.57C233.977 165.375 233.81 166.212 233.354 166.894C232.897 167.577 232.188 168.051 231.382 168.211H231.371Z" fill="#6B7BC7"/>
<path d="M219.6 179.323C217.982 178.752 214.31 174.215 214.31 174.215C214.31 174.215 220.017 172.913 221.626 173.473C222.019 173.599 222.382 173.802 222.695 174.071C223.008 174.34 223.264 174.668 223.448 175.037C223.632 175.406 223.741 175.808 223.767 176.219C223.794 176.631 223.738 177.044 223.603 177.433C223.468 177.823 223.257 178.182 222.982 178.488C222.706 178.795 222.372 179.044 221.999 179.22C221.626 179.396 221.222 179.496 220.81 179.513C220.398 179.531 219.987 179.466 219.6 179.323Z" fill="#6B7BC7"/>
<path d="M208.799 185.726C207.113 185.441 202.724 181.586 202.724 181.586C202.724 181.586 208.12 179.337 209.806 179.617C210.211 179.68 210.598 179.822 210.947 180.035C211.296 180.249 211.599 180.529 211.839 180.861C212.079 181.192 212.251 181.567 212.345 181.966C212.439 182.364 212.453 182.776 212.386 183.18C212.32 183.584 212.174 183.97 211.957 184.317C211.74 184.664 211.457 184.964 211.124 185.201C210.79 185.438 210.413 185.606 210.014 185.696C209.615 185.786 209.202 185.797 208.799 185.726Z" fill="#6B7BC7"/>
<path d="M219.46 162.039C219.46 163.751 222.553 168.707 222.553 168.707C222.553 168.707 225.652 163.751 225.652 162.041C225.652 161.22 225.326 160.433 224.746 159.852C224.165 159.272 223.377 158.945 222.556 158.945C221.735 158.945 220.948 159.272 220.367 159.852C219.786 160.433 219.46 161.22 219.46 162.041V162.039Z" fill="#6B7BC7"/>
<path d="M206.925 169.686C207.438 171.318 211.873 175.125 211.873 175.125C211.873 175.125 213.345 169.466 212.834 167.834C212.589 167.05 212.042 166.396 211.314 166.015C210.586 165.635 209.737 165.559 208.954 165.805C208.17 166.05 207.516 166.597 207.135 167.325C206.755 168.053 206.679 168.902 206.925 169.686Z" fill="#6B7BC7"/>
<path d="M195.761 178.789C195.99 180.484 199.719 184.987 199.719 184.987C199.719 184.987 202.128 179.66 201.899 177.965C201.79 177.151 201.362 176.413 200.709 175.915C200.056 175.417 199.232 175.199 198.418 175.308C197.604 175.417 196.867 175.845 196.369 176.498C195.87 177.151 195.652 177.975 195.761 178.789Z" fill="#6B7BC7"/>
<path opacity="0.25" d="M234.604 157.941C233.377 159.134 227.662 160.364 227.662 160.364C227.662 160.364 229.063 154.688 230.29 153.498C230.879 152.926 231.671 152.611 232.492 152.623C233.314 152.635 234.096 152.973 234.669 153.562C235.241 154.152 235.555 154.944 235.543 155.765C235.531 156.586 235.194 157.369 234.604 157.941Z" fill="black"/>
<path opacity="0.25" d="M231.371 168.211C229.693 168.545 224.237 166.473 224.237 166.473C224.237 166.473 228.5 162.478 230.175 162.136C230.981 161.975 231.817 162.142 232.5 162.599C233.183 163.055 233.656 163.764 233.817 164.57C233.977 165.375 233.81 166.212 233.354 166.894C232.897 167.577 232.188 168.051 231.382 168.211H231.371Z" fill="black"/>
<path opacity="0.25" d="M219.6 179.323C217.982 178.752 214.31 174.215 214.31 174.215C214.31 174.215 220.017 172.913 221.626 173.473C222.019 173.599 222.382 173.802 222.695 174.071C223.008 174.34 223.264 174.668 223.448 175.037C223.632 175.406 223.741 175.808 223.767 176.219C223.794 176.631 223.738 177.044 223.603 177.433C223.468 177.823 223.257 178.182 222.982 178.488C222.706 178.795 222.372 179.044 221.999 179.22C221.626 179.396 221.222 179.496 220.81 179.513C220.398 179.531 219.987 179.466 219.6 179.323Z" fill="black"/>
<path opacity="0.25" d="M208.799 185.726C207.113 185.441 202.724 181.586 202.724 181.586C202.724 181.586 208.12 179.337 209.806 179.617C210.211 179.68 210.598 179.822 210.947 180.035C211.296 180.249 211.599 180.529 211.839 180.861C212.079 181.192 212.251 181.567 212.345 181.966C212.439 182.364 212.453 182.776 212.386 183.18C212.32 183.584 212.174 183.97 211.957 184.317C211.74 184.664 211.457 184.964 211.124 185.201C210.79 185.438 210.413 185.606 210.014 185.696C209.615 185.786 209.202 185.797 208.799 185.726Z" fill="black"/>
<path opacity="0.25" d="M219.46 162.039C219.46 163.751 222.553 168.707 222.553 168.707C222.553 168.707 225.652 163.751 225.652 162.041C225.652 161.22 225.326 160.433 224.746 159.852C224.165 159.272 223.377 158.945 222.556 158.945C221.735 158.945 220.948 159.272 220.367 159.852C219.786 160.433 219.46 161.22 219.46 162.041V162.039Z" fill="black"/>
<path opacity="0.25" d="M206.925 169.686C207.438 171.318 211.873 175.125 211.873 175.125C211.873 175.125 213.345 169.466 212.834 167.834C212.589 167.05 212.042 166.396 211.314 166.015C210.586 165.635 209.737 165.559 208.954 165.805C208.17 166.05 207.516 166.597 207.135 167.325C206.755 168.053 206.679 168.902 206.925 169.686Z" fill="black"/>
<path opacity="0.25" d="M195.761 178.789C195.99 180.484 199.719 184.987 199.719 184.987C199.719 184.987 202.128 179.66 201.899 177.965C201.79 177.151 201.362 176.413 200.709 175.915C200.056 175.417 199.232 175.199 198.418 175.308C197.604 175.417 196.867 175.845 196.369 176.498C195.87 177.151 195.652 177.975 195.761 178.789Z" fill="black"/>
<path d="M195.867 190.618C195.867 190.618 197.271 176.139 205.638 168.44C209.167 165.232 211.56 160.965 212.458 156.281C212.868 154.053 213.073 151.792 213.068 149.526" stroke="#535461" stroke-width="2" stroke-miterlimit="10"/>
<path d="M218.31 144.652C217.671 146.239 212.945 149.68 212.945 149.68C212.945 149.68 211.93 143.922 212.569 142.338C212.714 141.951 212.934 141.597 213.218 141.296C213.502 140.996 213.843 140.755 214.221 140.589C214.599 140.422 215.007 140.333 215.42 140.327C215.833 140.32 216.243 140.396 216.626 140.551C217.01 140.705 217.358 140.935 217.651 141.226C217.944 141.517 218.176 141.864 218.333 142.247C218.49 142.629 218.569 143.039 218.565 143.452C218.561 143.865 218.474 144.273 218.31 144.652Z" fill="#6B7BC7"/>
<path d="M219.517 155.35C218.119 156.334 212.281 156.654 212.281 156.654C212.281 156.654 214.564 151.269 215.953 150.285C216.286 150.051 216.661 149.885 217.058 149.796C217.455 149.707 217.865 149.697 218.266 149.767C218.667 149.836 219.05 149.984 219.393 150.202C219.737 150.42 220.034 150.703 220.268 151.035C220.502 151.368 220.668 151.743 220.757 152.14C220.846 152.537 220.856 152.947 220.786 153.348C220.717 153.749 220.569 154.132 220.351 154.475C220.133 154.819 219.85 155.116 219.517 155.35Z" fill="#6B7BC7"/>
<path d="M213.26 170.28C211.548 170.423 206.354 167.752 206.354 167.752C206.354 167.752 211.037 164.253 212.729 164.108C213.547 164.039 214.36 164.298 214.987 164.828C215.615 165.358 216.006 166.116 216.075 166.934C216.144 167.753 215.884 168.565 215.354 169.192C214.824 169.82 214.067 170.211 213.248 170.28H213.26Z" fill="#6B7BC7"/>
<path d="M205.98 180.51C204.325 180.938 198.749 179.186 198.749 179.186C198.749 179.186 202.77 174.943 204.425 174.515C204.821 174.403 205.236 174.372 205.645 174.423C206.053 174.474 206.448 174.606 206.805 174.811C207.162 175.016 207.474 175.29 207.724 175.618C207.974 175.945 208.156 176.319 208.259 176.718C208.363 177.116 208.386 177.532 208.327 177.939C208.268 178.347 208.128 178.738 207.916 179.091C207.703 179.444 207.423 179.751 207.091 179.994C206.758 180.237 206.381 180.412 205.98 180.507V180.51Z" fill="#6B7BC7"/>
<path d="M206.128 154.531C206.819 156.094 211.659 159.382 211.659 159.382C211.659 159.382 212.483 153.595 211.79 152.031C211.447 151.296 210.83 150.725 210.071 150.44C209.312 150.155 208.472 150.179 207.73 150.507C206.989 150.835 206.406 151.441 206.106 152.194C205.807 152.948 205.815 153.789 206.128 154.536V154.531Z" fill="#6B7BC7"/>
<path d="M197.767 166.604C198.894 167.888 204.493 169.572 204.493 169.572C204.493 169.572 203.549 163.802 202.419 162.518C202.153 162.204 201.827 161.947 201.461 161.761C201.094 161.574 200.694 161.463 200.284 161.433C199.874 161.403 199.462 161.455 199.073 161.586C198.683 161.717 198.323 161.924 198.015 162.195C197.706 162.466 197.454 162.796 197.274 163.166C197.094 163.535 196.99 163.937 196.967 164.348C196.944 164.758 197.003 165.169 197.14 165.556C197.278 165.944 197.491 166.3 197.767 166.604Z" fill="#6B7BC7"/>
<path d="M191.25 179.451C192.146 180.91 197.38 183.512 197.38 183.512C197.38 183.512 197.422 177.668 196.523 176.21C196.311 175.863 196.032 175.562 195.702 175.324C195.373 175.085 195 174.914 194.605 174.819C194.209 174.725 193.799 174.709 193.397 174.773C192.996 174.837 192.611 174.98 192.264 175.193C191.918 175.405 191.617 175.684 191.378 176.014C191.14 176.343 190.968 176.716 190.874 177.111C190.779 177.507 190.764 177.917 190.828 178.319C190.892 178.72 191.034 179.105 191.247 179.451H191.25Z" fill="#6B7BC7"/>
<path opacity="0.1" d="M106.772 237.985C125.508 237.985 140.696 235.438 140.696 232.298C140.696 229.157 125.508 226.61 106.772 226.61C88.0369 226.61 72.8489 229.157 72.8489 232.298C72.8489 235.438 88.0369 237.985 106.772 237.985Z" fill="#6B7BC7"/>
<path opacity="0.1" d="M173.543 194.327C192.279 194.327 207.467 191.78 207.467 188.639C207.467 185.498 192.279 182.952 173.543 182.952C154.808 182.952 139.62 185.498 139.62 188.639C139.62 191.78 154.808 194.327 173.543 194.327Z" fill="#6B7BC7"/>
<path d="M175.795 113.582L175.763 114.692L173.834 182.756H170.593L172.182 114.692L172.214 113.411L175.795 113.582Z" fill="#B77B7F"/>
<path d="M194.563 171.242L192.134 171.236L156.054 171.159L154.13 171.156L155.155 168H194.306L194.563 171.242Z" fill="#DDA2A6"/>
<path opacity="0.1" d="M175.795 113.582L175.763 114.692H172.182L172.214 113.411L175.795 113.582Z" fill="black"/>
<path d="M177.162 111.919H171.149V114.182H177.162V111.919Z" fill="#B77B7F"/>
<path opacity="0.1" d="M156.373 168L156.054 171.159L154.13 171.156L155.155 168H156.373Z" fill="black"/>
<path d="M161.553 111.876L161.453 112.858L153.448 191.799L149.781 191.625L158.217 112.858L158.311 111.962L161.553 111.876Z" fill="#DDA2A6"/>
<path opacity="0.1" d="M194.563 171.242L192.135 171.236L191.806 168H194.306L194.563 171.242Z" fill="black"/>
<path d="M198.401 191.625L194.731 191.799L186.73 112.858L186.63 111.876L189.868 111.962L189.963 112.858L198.401 191.625Z" fill="#DDA2A6"/>
<path d="M214.007 34.0449H133.148V111.577H214.007V34.0449Z" fill="white"/>
<path d="M175.156 8.11387V26.8362H172.002V8.11387C171.993 7.90118 172.027 7.68887 172.103 7.48969C172.178 7.29052 172.292 7.10862 172.44 6.95492C172.587 6.80123 172.764 6.67893 172.96 6.59537C173.155 6.51182 173.366 6.46875 173.579 6.46875C173.792 6.46875 174.003 6.51182 174.198 6.59537C174.394 6.67893 174.571 6.80123 174.718 6.95492C174.866 7.10862 174.98 7.29052 175.055 7.48969C175.131 7.68887 175.165 7.90118 175.156 8.11387Z" fill="#DDA2A6"/>
<path opacity="0.1" d="M175.156 25.1328H172V26.8364H175.156V25.1328Z" fill="black"/>
<path d="M176.394 26.4112V32.592H170.781V26.4112C170.781 26.3103 170.8 26.2103 170.839 26.117C170.877 26.0237 170.934 25.9389 171.005 25.8675C171.076 25.7962 171.161 25.7397 171.254 25.7012C171.348 25.6628 171.448 25.6432 171.549 25.6436H175.632C175.835 25.6451 176.028 25.7266 176.171 25.8704C176.314 26.0142 176.394 26.2086 176.394 26.4112Z" fill="#DDA2A6"/>
<path opacity="0.1" d="M173.578 30.7596C174.236 30.7596 174.77 30.2256 174.77 29.5668C174.77 28.9081 174.236 28.374 173.578 28.374C172.919 28.374 172.385 28.9081 172.385 29.5668C172.385 30.2256 172.919 30.7596 173.578 30.7596Z" fill="black"/>
<path d="M173.578 30.5038C174.236 30.5038 174.77 29.9697 174.77 29.311C174.77 28.6522 174.236 28.1182 173.578 28.1182C172.919 28.1182 172.385 28.6522 172.385 29.311C172.385 29.9697 172.919 30.5038 173.578 30.5038Z" fill="#B77B7F"/>
<path opacity="0.1" d="M176.394 31.8271H170.764V32.5948H176.394V31.8271Z" fill="black"/>
<path opacity="0.1" d="M178.697 32.8516H168.461V34.558H178.697V32.8516Z" fill="black"/>
<path d="M178.697 32.3379H168.461V34.0443H178.697V32.3379Z" fill="#DDA2A6"/>
<path opacity="0.1" d="M152.872 109.579H195.861C196.353 109.579 196.825 109.775 197.173 110.122C197.521 110.47 197.716 110.942 197.716 111.434V111.839H151.017V111.434C151.017 110.942 151.213 110.47 151.56 110.122C151.908 109.775 152.38 109.579 152.872 109.579Z" fill="black"/>
<path opacity="0.1" d="M158.311 111.962L161.553 111.876L161.453 112.858H158.217L158.311 111.962Z" fill="black"/>
<path opacity="0.1" d="M177.162 111.919H171.149V112.858H177.162V111.919Z" fill="black"/>
<path opacity="0.1" d="M189.963 112.858H186.73L186.63 111.876L189.868 111.962L189.963 112.858Z" fill="black"/>
<path d="M152.872 110.083H195.861C196.353 110.083 196.825 110.278 197.173 110.626C197.521 110.974 197.716 111.446 197.716 111.938V112.343H151.017V111.938C151.017 111.446 151.213 110.974 151.56 110.626C151.908 110.278 152.38 110.083 152.872 110.083Z" fill="#DDA2A6"/>
<path d="M143.447 74.0887C142.799 73.7463 135.742 68.4158 135.742 68.4158L124.353 61.1934C124.353 61.1934 124.294 61.0222 124.185 60.7283C127.31 57.1813 126.628 52.0334 123.449 48.4151C119.597 44.0262 102.19 34.578 96.9448 42.6594C96.2114 43.8008 96.1858 45.0963 95.9946 46.3519C95.5466 49.2825 94.1027 52.1219 91.8369 54.5132C90.0905 56.3594 87.7991 58.0602 86.7946 60.149C86.7946 60.1233 86.7747 60.0976 86.7661 60.0691C86.5236 60.5168 86.3477 60.9974 86.2439 61.4959C85.7445 64.0441 87.4567 66.4868 88.367 68.9665C88.6725 69.8063 88.8943 70.6742 89.029 71.5576C89.0518 71.3807 89.0718 71.2066 89.0918 71.0297C89.3136 72.2875 89.3893 73.5668 89.3172 74.8421C82.9965 76.129 82.9937 86.9412 82.9937 86.9412C82.9937 86.9412 82.2146 91.2387 82.3459 92.7882C82.4772 94.3377 82.4743 97.6878 82.4743 98.4954C82.4743 99.303 81.6953 104.34 81.6182 104.944C81.619 104.953 81.619 104.962 81.6182 104.97C81.5041 105.632 80.3199 108.822 83.182 109.536C83.3818 109.587 83.5929 109.63 83.8126 109.67C83.9354 112.252 84.1579 117.66 83.961 118.864C83.961 118.864 85.0026 126.129 85.8672 127.976C86.414 129.058 87.0537 130.091 87.7791 131.063C87.7163 131.506 87.567 131.931 87.3397 132.316C86.8974 132.952 87.1256 133.475 87.8647 133.7C87.839 133.92 87.8105 134.168 87.7791 134.448C87.4624 137.25 86.9887 142.82 87.7934 145.642C88.8977 149.512 88.9634 150.801 88.9634 150.801C88.9634 150.801 88.9634 151.96 89.4199 152.605C89.8765 153.25 90.7183 159.248 90.7183 160.215C90.7183 161.183 92.927 169.886 92.2764 171.949C91.6258 174.013 92.148 176.915 92.148 176.915C92.148 176.915 91.757 182.008 91.2919 183.104C90.8267 184.2 90.6413 201.866 91.3547 206.443C92.0681 211.021 92.5246 214.824 92.5246 214.824C92.5246 214.824 92.0709 219.016 92.459 219.596C92.8471 220.175 93.5633 223.659 93.044 223.85C92.5246 224.042 92.2649 225.463 92.2649 225.463C92.5396 225.88 92.8358 226.283 93.1524 226.67C92.9522 226.6 92.7568 226.517 92.5674 226.421C92.7729 226.707 93.0811 227.112 93.4606 227.563L93.1039 232.2C93.0889 232.381 93.1378 232.561 93.2421 232.71C93.3463 232.858 93.4994 232.966 93.6746 233.013C94.8141 233.323 96.0162 233.318 97.1529 232.998C98.2896 232.678 99.3183 232.056 100.129 231.198C103.377 227.911 104.481 228.362 105.066 226.364C105.129 226.15 105.183 225.939 105.229 225.739C105.648 223.959 103.751 222.635 102.241 223.394C102.449 221.984 102.612 220.383 102.455 219.479C102.13 217.61 102.195 212.71 102.195 212.71L101.742 189.239C101.742 189.239 102.583 184.596 103.559 182.793C104.535 180.99 104.415 174.669 104.415 174.669L105.52 153.906L106.559 143.785C106.559 143.785 107.597 140.303 108.896 144.173C108.896 144.173 108.182 151.971 108.508 153.843C108.833 155.715 109.287 164.804 108.961 166.802C108.636 168.799 107.209 179.762 108.105 182.533C109.001 185.304 110 188.663 109.8 189.761C109.6 190.86 108.944 214.648 108.944 214.648C108.944 214.648 110.699 219.213 109.401 220.709C108.102 222.204 109.335 228.128 109.335 228.128C109.335 228.128 109.492 228.239 109.76 228.393L109.723 228.887L109.315 234.22C109.301 234.401 109.35 234.582 109.454 234.731C109.558 234.88 109.711 234.988 109.886 235.036C111.025 235.346 112.227 235.341 113.364 235.022C114.501 234.702 115.53 234.08 116.341 233.221C119.588 229.931 120.692 230.385 121.277 228.385C121.34 228.171 121.394 227.962 121.443 227.76C121.899 225.816 119.588 224.407 118.041 225.677L117.964 225.742C117.883 225.811 117.799 225.875 117.71 225.933C117.669 225.964 117.626 225.991 117.582 226.016C117.907 224.544 118.381 222.021 118.153 220.84C117.827 219.099 118.475 213.814 118.475 213.814C118.475 213.814 120.358 207.494 120.424 204.968L120.943 184.853C120.943 184.853 120.881 176.663 121.14 174.666C121.4 172.668 123.477 155.387 125.555 150.228C127.15 146.279 127.863 136.2 127.441 131.089C127.418 130.838 127.395 130.595 127.367 130.37C129.915 128.489 130.169 125.362 130.169 125.362C130.169 125.362 127.829 120.893 125.578 119.001C123.326 117.109 122.841 113.856 122.921 112.472C122.959 111.629 122.681 110.802 122.142 110.152C122.142 110.152 121.103 106.799 120.41 106.457C120.353 106.428 120.302 106.389 120.259 106.343C119.788 105.838 120.15 104.394 120.15 104.394V104.348C120.233 104.014 120.721 101.851 120.575 101.298C120.401 100.698 120.661 97.859 120.661 97.859C120.661 97.859 122.307 92.9594 122.048 89.09C121.788 85.2205 125.426 85.5658 125.426 85.5658L136.661 85.4488H137.939C138.39 85.066 138.802 84.6397 139.169 84.1761C141.309 83.9221 145.638 83.1146 146.123 80.7518C146.783 77.6157 144.097 74.434 143.447 74.0887ZM91.3975 109.861L91.4745 107.895C91.7399 108.123 91.9168 108.269 91.9168 108.269C92.0601 108.783 92.067 109.326 91.9368 109.844C91.8671 110.087 91.7434 110.312 91.5749 110.5C91.4064 110.689 91.1975 110.837 90.9637 110.934C90.9094 110.958 90.8569 110.985 90.8068 111.017L90.6983 109.907L91.3975 109.861ZM132.147 75.3329C131.67 75.1189 130.066 75.1617 129.242 75.1617C128.417 75.1617 127.079 74.4739 127.079 74.4739C126.793 73.9175 125.215 73.5865 123.811 73.3981C122.744 70.7671 121.243 68.2018 121.04 65.4595C121.04 65.3596 121.04 65.2597 121.026 65.1599L121.189 65.4452C121.189 65.4452 127.729 69.6172 128.465 70.867C129.036 71.8201 131.784 73.9489 133.057 74.902C132.882 75.1306 132.636 75.2951 132.358 75.37C132.285 75.3778 132.212 75.365 132.147 75.3329Z" fill="url(#paint0_linear)"/>
<path d="M121.345 227.776C121.297 227.976 121.246 228.184 121.183 228.396C120.612 230.393 119.519 229.931 116.332 233.193C115.538 234.044 114.526 234.662 113.406 234.98C112.286 235.298 111.1 235.303 109.977 234.996C109.802 234.95 109.648 234.843 109.544 234.695C109.439 234.546 109.391 234.366 109.406 234.186L109.808 228.895L110 226.35C110 226.35 115.09 227.776 117.681 225.964C117.768 225.905 117.852 225.841 117.933 225.773C117.953 225.755 117.972 225.736 117.99 225.716C118.324 225.439 118.737 225.274 119.17 225.243C119.603 225.213 120.035 225.319 120.405 225.546C120.775 225.773 121.064 226.11 121.233 226.51C121.402 226.91 121.441 227.353 121.345 227.776Z" fill="#67647E"/>
<path d="M105.366 225.779C105.317 225.979 105.266 226.187 105.203 226.399C104.632 228.396 103.539 227.934 100.352 231.195C99.5575 232.047 98.5457 232.665 97.4256 232.983C96.3055 233.301 95.1199 233.306 93.9969 232.999C93.8216 232.953 93.6683 232.846 93.5639 232.698C93.4595 232.549 93.4107 232.369 93.4261 232.188L93.8285 226.898L94.0197 224.353C94.0197 224.353 99.1105 225.779 101.702 223.967C101.788 223.908 101.872 223.844 101.953 223.776C101.973 223.758 101.992 223.739 102.01 223.719C102.344 223.442 102.757 223.277 103.19 223.246C103.623 223.216 104.055 223.322 104.425 223.549C104.795 223.776 105.084 224.113 105.253 224.513C105.422 224.913 105.461 225.356 105.366 225.779Z" fill="#67647E"/>
<path opacity="0.1" d="M100.106 226.572L100.312 229.323C97.3898 232.243 93.9113 227.897 92.8926 226.47C95.5721 227.851 100.106 226.572 100.106 226.572Z" fill="black"/>
<path opacity="0.1" d="M117.282 227.691L117.664 227.437C114.996 231.495 111.033 229.623 109.797 228.895L109.988 226.35C109.988 226.35 115.079 227.777 117.67 225.965C117.468 226.958 117.282 227.691 117.282 227.691Z" fill="black"/>
<path d="M125.409 150.864C123.36 155.981 121.314 173.122 121.058 175.12C120.801 177.117 120.866 185.227 120.866 185.227L120.353 205.171C120.287 207.668 118.432 213.937 118.432 213.937C118.432 213.937 117.793 219.182 118.113 220.908C118.432 222.635 117.282 227.186 117.282 227.186L117.665 226.929C114.466 231.78 109.412 228.145 109.412 228.145C109.412 228.145 108.196 222.261 109.478 220.788C110.759 219.316 109.03 214.776 109.03 214.776C109.03 214.776 109.669 191.171 109.86 190.084C110.051 188.997 109.092 185.669 108.196 182.919C107.3 180.168 108.71 169.293 109.03 167.31C109.349 165.326 108.901 156.306 108.582 154.451C108.262 152.596 108.964 144.855 108.964 144.855C107.686 141.017 106.661 144.472 106.661 144.472L105.637 154.514L104.55 175.114C104.55 175.114 104.678 181.392 103.719 183.175C102.76 184.959 101.927 189.57 101.927 189.57L102.375 212.858C102.375 212.858 102.312 217.709 102.632 219.573C102.952 221.436 101.927 226.227 101.927 226.227C98.3459 234.665 92.5931 225.517 92.5931 225.517C92.5931 225.517 92.8499 224.11 93.3607 223.919C93.8715 223.728 93.1695 220.272 92.79 219.696C92.4105 219.119 92.8528 214.961 92.8528 214.961C92.8528 214.961 92.4048 211.189 91.7113 206.646C91.0179 202.103 91.2005 184.577 91.6486 183.489C92.0966 182.402 92.479 177.348 92.479 177.348C92.479 177.348 91.9682 174.469 92.6074 172.42C93.2466 170.371 91.0721 161.739 91.0721 160.778C91.0721 159.816 90.2417 153.869 89.7937 153.23C89.3457 152.591 89.3457 151.438 89.3457 151.438C89.3457 151.438 89.2829 150.16 88.2043 146.321C87.411 143.519 87.879 137.995 88.19 135.212C88.3013 134.182 88.3983 133.526 88.3983 133.526C88.3983 133.526 125.087 127.576 126.551 128.92C126.893 129.237 127.121 130.324 127.256 131.874C127.692 136.942 126.973 146.958 125.409 150.864Z" fill="#444053"/>
<path opacity="0.1" d="M111.524 179.628C111.695 179.628 115.747 179.97 117.231 179.671C118.715 179.371 111.524 179.628 111.524 179.628Z" fill="black"/>
<path opacity="0.1" d="M111.823 182.017C111.823 182.017 117.419 182.999 117.704 182.488C117.99 181.977 111.823 182.017 111.823 182.017Z" fill="black"/>
<path opacity="0.1" d="M94.7217 180.992C94.7217 180.992 97.6209 181.121 99.1989 181.848C100.777 182.576 94.7217 180.992 94.7217 180.992Z" fill="black"/>
<path d="M84.1863 109.262C84.1863 109.262 84.6543 118.174 84.4003 119.752C84.4003 119.752 85.4219 126.96 86.2751 128.792C87.1283 130.624 88.9632 132.93 88.9632 132.93L91.48 115.238L90.8808 109.177L84.1863 109.262Z" fill="#EFB7B9"/>
<path d="M110.628 68.6611C116.068 68.6611 120.478 64.2508 120.478 58.8105C120.478 53.3702 116.068 48.96 110.628 48.96C105.187 48.96 100.777 53.3702 100.777 58.8105C100.777 64.2508 105.187 68.6611 110.628 68.6611Z" fill="#EFB7B9"/>
<path d="M105.511 63.4131C105.511 63.4131 102.441 69.4285 99.3701 72.2421C96.2997 75.0557 117.793 78.2546 118.304 78.2546C118.814 78.2546 114.466 65.462 115.233 63.9182C116.001 62.3744 105.511 63.4131 105.511 63.4131Z" fill="#EFB7B9"/>
<path opacity="0.1" d="M127.261 131.874C126.779 132.242 126.246 132.54 125.68 132.758C121.759 134.294 117.493 136.425 114.594 135.575C111.695 134.725 105.554 135.575 105.554 135.575C105.554 135.575 93.1835 134.55 90.7152 135.147C89.5909 135.418 88.7177 135.407 88.147 135.212C88.2583 134.182 88.3553 133.526 88.3553 133.526C88.3553 133.526 125.087 127.576 126.55 128.92C126.899 129.237 127.121 130.324 127.261 131.874Z" fill="black"/>
<path d="M129.946 126.19C129.946 126.19 129.607 130.456 125.68 131.991C121.754 133.527 117.493 135.658 114.594 134.808C111.695 133.957 105.554 134.808 105.554 134.808C105.554 134.808 93.1836 133.783 90.7152 134.38C88.2469 134.976 86.9599 134.211 87.7275 133.101C88.4951 131.991 88.4124 128.324 88.4124 126.789C88.4124 125.254 87.5563 119.028 88.3239 117.917C89.0915 116.807 89.7735 112.544 91.3088 111.859C91.5393 111.762 91.7451 111.615 91.9111 111.427C92.077 111.24 92.1988 111.018 92.2676 110.778C92.3945 110.264 92.3876 109.727 92.2476 109.217C92.2476 109.217 91.9879 109.003 91.6312 108.686C90.7266 107.879 89.1971 106.38 89.6879 105.89C90.3699 105.205 89.6879 100.77 89.6879 100.77C89.6879 100.77 88.0671 97.3603 88.6664 96.0819C89.2656 94.8035 83.4614 88.0633 83.4614 88.0633C83.4614 88.0633 83.4614 76.4664 90.4556 75.9527C90.4556 75.9527 95.4037 76.1239 96.0001 73.9067C96.5965 71.6895 100.52 70.4082 100.52 70.4082L109.478 72.3715C109.478 72.3715 117.408 74.0836 118.86 73.0535C120.313 72.0233 121.428 74.4175 121.428 74.4175C121.428 74.4175 126.374 74.6743 126.884 75.6987C127.395 76.7232 125.266 86.6993 125.266 86.6993C125.266 86.6993 121.682 86.3597 121.939 90.1978C122.196 94.0358 120.558 98.8983 120.558 98.8983C120.558 98.8983 120.301 101.712 120.472 102.308C120.632 102.859 120.136 105.005 120.056 105.336V105.379C120.056 105.379 119.699 106.806 120.161 107.314C120.204 107.36 120.254 107.398 120.31 107.428C120.995 107.767 122.022 111.095 122.022 111.095C122.554 111.74 122.828 112.561 122.789 113.397C122.707 114.764 123.218 118.003 125.435 119.881C127.652 121.758 129.946 126.19 129.946 126.19Z" fill="#A36468"/>
<path d="M91.9053 106.437V106.8L91.7512 110.795C91.7512 110.795 86.5034 111.22 83.647 110.509C80.7906 109.799 81.9919 106.628 82.1061 105.972C82.1071 105.963 82.1071 105.955 82.1061 105.946C82.1888 105.347 82.9621 100.359 82.9621 99.5486C82.9621 98.7382 82.9621 95.4109 82.8337 93.8757C82.7053 92.3405 83.4615 88.0629 83.4615 88.0629L84.0151 87.3838L90.0247 89.6866L91.9053 106.437Z" fill="#A36468"/>
<path opacity="0.1" d="M91.8911 106.807L91.737 110.802C91.737 110.802 86.4893 111.227 83.6328 110.517C80.7764 109.806 81.9778 106.636 82.0919 105.979L91.8911 106.807Z" fill="black"/>
<path opacity="0.1" d="M92.2677 110.78C92.3946 110.266 92.3877 109.729 92.2477 109.219C92.2477 109.219 91.988 109.005 91.6313 108.688C96.1486 108.057 114.038 105.603 120.062 105.335V105.378C120.062 105.378 119.705 106.805 120.167 107.312L92.2677 110.78Z" fill="black"/>
<path opacity="0.1" d="M120.735 113.855C120.735 113.855 121.845 120.133 117.707 122.342C117.704 122.353 120.053 119.24 120.735 113.855Z" fill="black"/>
<path opacity="0.1" d="M93.6545 122.523C93.6545 122.523 103.642 120.811 105.597 122.141C107.551 123.47 93.6545 122.523 93.6545 122.523Z" fill="black"/>
<path opacity="0.1" d="M117.282 83.6699C117.282 83.6699 115.747 89.982 116.897 91.4317C118.047 92.8813 117.282 83.6699 117.282 83.6699Z" fill="black"/>
<path opacity="0.1" d="M88.3669 78.5117C88.3669 78.5117 89.7737 80.8574 88.9205 83.2886C88.0673 85.7199 88.3669 78.5117 88.3669 78.5117Z" fill="black"/>
<path opacity="0.1" d="M85.459 99.0684C85.459 99.0684 87.251 100.133 86.6546 101.796C86.0582 103.46 85.459 99.0684 85.459 99.0684Z" fill="black"/>
<path opacity="0.1" d="M85.2961 94.2061C85.2961 94.2061 86.9569 95.1021 87.1709 96.4233C87.385 97.7445 85.2961 94.2061 85.2961 94.2061Z" fill="black"/>
<path opacity="0.1" d="M109.946 145.212C109.946 145.212 120.395 146.279 122.484 143.805C122.484 143.819 113.059 145.682 109.946 145.212Z" fill="black"/>
<path opacity="0.1" d="M91.9053 144.615C91.9053 144.615 103.123 147.261 105.34 145.169C105.34 145.169 95.7005 145.894 91.9053 144.615Z" fill="black"/>
<path opacity="0.1" d="M110.756 148.67C110.756 148.67 115.447 148.67 117.622 148.798C119.796 148.927 110.756 148.67 110.756 148.67Z" fill="black"/>
<path opacity="0.1" d="M92.6729 150.668C92.6729 150.668 94.9757 153.27 97.5782 152.802C100.181 152.334 92.6729 150.668 92.6729 150.668Z" fill="black"/>
<path d="M97.1958 44.1284C96.4738 45.2498 96.4481 46.5482 96.2598 47.7924C95.8203 50.7002 94.3964 53.5166 92.1678 55.8908C90.1217 58.0652 87.3167 60.0371 86.7859 62.6938C86.2837 65.2163 87.9873 67.6447 88.8804 70.1131C91.2346 76.5878 87.9473 83.3794 86.9885 90.0624C86.7231 91.9087 87.0427 94.2686 89.317 94.8821C90.0276 95.0762 90.8408 95.0505 91.48 95.3587C92.3361 95.7696 92.5986 96.6228 92.7556 97.3904C93.328 100.136 93.5257 102.947 93.3434 105.746C93.2407 107.315 93.1266 109.122 94.6104 110.2C95.2839 110.694 96.1913 110.945 97.0673 111.182C99.4044 111.812 102.426 112.323 104.002 110.842C104.664 110.223 104.912 109.35 105.737 108.859C106.972 108.126 108.724 108.622 110.279 108.699C113.473 108.859 116.406 106.987 117.664 104.73C118.923 102.473 118.806 99.8788 118.349 97.4446C117.893 95.0105 117.077 92.5936 117.02 90.1224C117 89.2663 117.077 88.396 117.567 87.6369C118.518 86.1673 120.729 85.4996 122.242 84.3439C125.075 82.1751 125.067 78.6224 124.037 75.649C123.006 72.6756 121.157 69.8249 120.929 66.7515C120.827 66.0086 120.975 65.2529 121.348 64.6028C121.754 63.9779 122.461 63.5099 123.061 62.9934C127.195 59.5006 126.707 53.7649 123.289 49.8384C119.505 45.4867 102.361 36.1127 97.1958 44.1284Z" fill="#E3787D"/>
<g opacity="0.1">
<path opacity="0.1" d="M89.4055 72.8024C89.7279 70.2085 89.668 67.6374 88.752 65.112C88.3011 63.8735 87.6477 62.6437 87.1711 61.4023C86.9331 61.8512 86.7601 62.3316 86.6575 62.8291C86.1553 65.3517 87.8588 67.7801 88.752 70.2484C89.0527 71.0764 89.2715 71.9318 89.4055 72.8024Z" fill="black"/>
<path opacity="0.1" d="M93.215 100.744C93.3968 97.9457 93.2 95.1353 92.63 92.3892C92.4702 91.6216 92.2077 90.7712 91.3516 90.3603C90.7124 90.0521 89.8991 90.0749 89.1886 89.8837C88.752 89.7791 88.3451 89.5761 87.9989 89.2902C87.6528 89.0044 87.3765 88.6433 87.1911 88.2344C87.0598 88.885 86.9457 89.5328 86.8515 90.1834C86.5861 92.0296 86.9057 94.3895 89.18 95.0031C89.8906 95.1943 90.7038 95.1686 91.343 95.4768C92.1991 95.8877 92.4616 96.7409 92.6214 97.5085C92.8832 98.782 93.0662 100.071 93.1693 101.367C93.1893 101.155 93.2007 100.95 93.215 100.744Z" fill="black"/>
<path opacity="0.1" d="M117.539 99.7316C116.278 101.997 113.344 103.861 110.151 103.701C108.596 103.621 106.844 103.13 105.611 103.861C104.786 104.349 104.535 105.225 103.873 105.844C102.298 107.314 99.2761 106.814 96.939 106.184C96.0629 105.944 95.1583 105.696 94.482 105.202C93.8375 104.728 93.4026 104.022 93.2693 103.233C93.2864 104.109 93.2693 104.988 93.215 105.864C93.1123 107.433 92.9982 109.24 94.482 110.321C95.1583 110.812 96.0629 111.063 96.939 111.3C99.2761 111.931 102.298 112.441 103.873 110.96C104.535 110.341 104.786 109.468 105.611 108.963C106.844 108.23 108.596 108.726 110.151 108.803C113.344 108.963 116.278 107.091 117.539 104.834C118.749 102.654 118.695 100.188 118.272 97.834C118.113 98.4963 117.867 99.1345 117.539 99.7316Z" fill="black"/>
<path opacity="0.1" d="M122.944 58.0063C122.333 58.5199 121.625 58.9908 121.231 59.6157C120.858 60.2658 120.71 61.0215 120.812 61.7644C120.895 62.6982 121.092 63.6183 121.4 64.5039C121.875 63.9971 122.396 63.5348 122.955 63.1227C125.751 60.7628 126.431 57.3756 125.523 54.2139C125.044 55.699 124.149 57.0154 122.944 58.0063Z" fill="black"/>
<path opacity="0.1" d="M122.113 79.3426C120.604 80.4983 118.389 81.1689 117.442 82.6385C116.948 83.3976 116.871 84.2736 116.891 85.1211C116.926 86.1191 117.049 87.1121 117.256 88.0889C117.31 87.9734 117.372 87.8618 117.442 87.755C118.389 86.2854 120.604 85.6177 122.113 84.462C124.701 82.4816 124.918 79.3483 124.154 76.5547C123.766 77.6661 123.055 78.6367 122.113 79.3426Z" fill="black"/>
</g>
<path d="M137.622 85.4202C137.622 85.4202 145.002 85.0378 145.641 81.9246C146.28 78.8113 143.643 75.6467 142.999 75.3128C142.354 74.979 135.397 69.6827 135.397 69.6827L124.182 62.5202C124.182 62.5202 118.809 47.1109 117.619 53.0093C116.429 58.9076 121.074 66.7407 121.074 66.7407C121.074 66.7407 127.512 70.8784 128.237 72.114C128.962 73.3496 133.399 76.5912 133.399 76.5912L137.622 85.4202Z" fill="#EFB7B9"/>
<path d="M141.589 80.3874C139.843 84.8247 137.58 86.574 137.58 86.574H136.321L125.258 86.6881L123.982 83.2039L125.774 75.6533L126.882 75.699C126.882 75.699 128.206 76.381 129.013 76.381C129.821 76.381 131.405 76.3382 131.867 76.5493C131.931 76.5809 132.004 76.5918 132.075 76.5807C132.495 76.5379 132.931 75.9101 132.931 75.9101C132.931 75.9101 143.338 75.9529 141.589 80.3874Z" fill="#A36468"/>
<path opacity="0.1" d="M141.589 80.3861C139.843 84.8235 137.58 86.5727 137.58 86.5727H136.321C136.978 84.8149 138.361 81.208 138.889 80.3747C139.406 79.5871 134.772 77.6267 132.061 76.568C132.48 76.5252 132.917 75.8975 132.917 75.8975C132.917 75.8975 143.338 75.9517 141.589 80.3861Z" fill="black"/>
<path opacity="0.1" d="M25.9162 220.235C32.8789 220.235 38.5233 219.131 38.5233 217.769C38.5233 216.408 32.8789 215.304 25.9162 215.304C18.9535 215.304 13.3091 216.408 13.3091 217.769C13.3091 219.131 18.9535 220.235 25.9162 220.235Z" fill="#6B7BC7"/>
<path opacity="0.1" d="M236.071 203.302C241.143 203.302 245.254 202.498 245.254 201.507C245.254 200.516 241.143 199.712 236.071 199.712C230.999 199.712 226.888 200.516 226.888 201.507C226.888 202.498 230.999 203.302 236.071 203.302Z" fill="#6B7BC7"/>
<path opacity="0.1" d="M275.875 210.575C280.947 210.575 285.058 209.772 285.058 208.78C285.058 207.789 280.947 206.985 275.875 206.985C270.804 206.985 266.693 207.789 266.693 208.78C266.693 209.772 270.804 210.575 275.875 210.575Z" fill="#6B7BC7"/>
<path opacity="0.1" d="M214.241 225.557C219.313 225.557 223.424 224.753 223.424 223.762C223.424 222.77 219.313 221.967 214.241 221.967C209.17 221.967 205.058 222.77 205.058 223.762C205.058 224.753 209.17 225.557 214.241 225.557Z" fill="#6B7BC7"/>
<path d="M37.8301 149.329C37.8301 149.329 39.8961 152.031 36.877 156.106C33.8579 160.181 31.3725 163.623 32.3826 166.165C32.3826 166.165 36.9341 158.595 40.6409 158.489C44.3477 158.384 41.9079 153.883 37.8301 149.329Z" fill="#6B7BC7"/>
<path opacity="0.1" d="M37.8299 149.329C38.0107 149.593 38.1529 149.881 38.2523 150.185C41.8678 154.434 43.7939 158.398 40.3183 158.498C37.0823 158.589 33.1986 164.379 32.2683 165.84C32.2981 165.954 32.3353 166.065 32.3796 166.174C32.3796 166.174 36.9311 158.603 40.6379 158.498C44.3447 158.392 41.9077 153.883 37.8299 149.329Z" fill="black"/>
<path d="M41.668 152.77C41.668 153.72 41.5624 154.482 41.4311 154.482C41.2998 154.482 41.1914 153.712 41.1914 152.77C41.1914 151.828 41.3255 152.268 41.4568 152.268C41.5881 152.268 41.668 151.808 41.668 152.77Z" fill="#FFD037"/>
<path d="M42.9864 153.907C42.1531 154.361 41.4255 154.637 41.3627 154.52C41.2999 154.403 41.9334 153.95 42.7581 153.487C43.5828 153.025 43.2632 153.365 43.3288 153.487C43.3944 153.61 43.8196 153.45 42.9864 153.907Z" fill="#FFD037"/>
<path d="M26.9264 149.329C26.9264 149.329 24.8604 152.031 27.8795 156.106C30.8986 160.181 33.384 163.623 32.3824 166.165C32.3824 166.165 27.8167 158.595 24.107 158.489C20.3974 158.384 22.8486 153.883 26.9264 149.329Z" fill="#6B7BC7"/>
<path opacity="0.1" d="M26.9265 149.329C26.7457 149.593 26.6035 149.881 26.5042 150.185C22.8887 154.434 20.9625 158.398 24.4382 158.498C27.6741 158.589 31.5721 164.379 32.4881 165.84C32.458 165.953 32.4218 166.065 32.3797 166.174C32.3797 166.174 27.814 158.603 24.1043 158.498C20.3947 158.392 22.8487 153.883 26.9265 149.329Z" fill="black"/>
<path d="M23.0884 152.77C23.0884 153.72 23.194 154.482 23.3252 154.482C23.4565 154.482 23.5649 153.712 23.5649 152.77C23.5649 151.828 23.4308 152.268 23.2995 152.268C23.1683 152.268 23.0884 151.808 23.0884 152.77Z" fill="#FFD037"/>
<path d="M21.77 153.907C22.6061 154.361 23.3309 154.637 23.3965 154.52C23.4621 154.403 22.8258 153.95 21.9983 153.487C21.1707 153.025 21.4932 153.365 21.4275 153.487C21.3619 153.61 20.9367 153.45 21.77 153.907Z" fill="#FFD037"/>
<path opacity="0.1" d="M32.3766 186.819C44.299 186.819 53.964 185.336 53.964 183.506C53.964 181.677 44.299 180.193 32.3766 180.193C20.4543 180.193 10.7893 181.677 10.7893 183.506C10.7893 185.336 20.4543 186.819 32.3766 186.819Z" fill="#6B7BC7"/>
<path d="M43.4884 162.527L43.3857 163.383L43.2401 164.573L43.1802 165.069L43.0347 166.262L42.9719 166.759L42.8264 167.949L41.177 181.486C41.0286 182.696 39.0539 183.638 36.6684 183.638H28.1019C25.7163 183.638 23.7445 182.696 23.5961 181.486L21.9439 167.946L21.7983 166.756L21.7384 166.259L21.59 165.067L21.5301 164.57L21.3846 163.38L21.2819 162.524C21.1991 161.839 22.2663 161.263 23.6161 161.263H41.1713C42.5039 161.266 43.574 161.842 43.4884 162.527Z" fill="#65617D"/>
<path d="M43.3829 163.369L43.2402 164.562H21.513L21.3704 163.369H43.3829Z" fill="#9D9CB5"/>
<path d="M43.1775 165.059L43.0348 166.249H21.7215L21.5759 165.059H43.1775Z" fill="#9D9CB5"/>
<path d="M42.9722 166.744L42.8266 167.934H21.927L21.7815 166.744H42.9722Z" fill="#9D9CB5"/>
<path opacity="0.1" d="M51.3618 44.5225C56.3262 44.5225 60.3506 40.4981 60.3506 35.5337C60.3506 30.5693 56.3262 26.5449 51.3618 26.5449C46.3975 26.5449 42.373 30.5693 42.373 35.5337C42.373 40.4981 46.3975 44.5225 51.3618 44.5225Z" fill="#6B7BC7"/>
<path opacity="0.1" d="M32.5279 19.6973C35.601 19.6973 38.0923 17.206 38.0923 14.1328C38.0923 11.0597 35.601 8.56836 32.5279 8.56836C29.4547 8.56836 26.9634 11.0597 26.9634 14.1328C26.9634 17.206 29.4547 19.6973 32.5279 19.6973Z" fill="#6B7BC7"/>
<path opacity="0.1" d="M3.4243 29.9697C5.31548 29.9697 6.84859 28.4366 6.84859 26.5454C6.84859 24.6542 5.31548 23.1211 3.4243 23.1211C1.53311 23.1211 0 24.6542 0 26.5454C0 28.4366 1.53311 29.9697 3.4243 29.9697Z" fill="#6B7BC7"/>
<defs>
<linearGradient id="paint0_linear" x1="113.75" y1="235.253" x2="113.75" y2="39.4976" gradientUnits="userSpaceOnUse">
<stop stop-color="#808080" stop-opacity="0.25"/>
<stop offset="0.54" stop-color="#808080" stop-opacity="0.12"/>
<stop offset="1" stop-color="#808080" stop-opacity="0.1"/>
</linearGradient>
</defs>
</svg>
