<svg width="36" height="36" viewBox="0 0 36 36" fill="none" xmlns="http://www.w3.org/2000/svg">
<path opacity="0.15" d="M18 36C27.9411 36 36 27.9411 36 18C36 8.05887 27.9411 0 18 0C8.05887 0 0 8.05887 0 18C0 27.9411 8.05887 36 18 36Z" fill="white"/>
<path d="M10 26C10 24.3834 10.6427 22.8331 11.7867 21.69C12.9307 20.5469 14.4823 19.9048 16.1002 19.9048C17.718 19.9048 19.2696 20.5469 20.4137 21.69C21.5577 22.8331 22.2004 24.3834 22.2004 26H10ZM16.1002 19.1429C13.5724 19.1429 11.525 17.0971 11.525 14.5714C11.525 12.0457 13.5724 10 16.1002 10C18.6279 10 20.6753 12.0457 20.6753 14.5714C20.6753 17.0971 18.6279 19.1429 16.1002 19.1429ZM21.7146 20.8442C22.881 21.1437 23.9231 21.8033 24.6925 22.729C25.4619 23.6547 25.9195 24.7994 26 26H23.7254C23.7254 24.0114 22.9629 22.2011 21.7146 20.8442ZM20.172 19.1101C20.811 18.539 21.322 17.8395 21.6716 17.0573C22.0211 16.2752 22.2013 15.428 22.2004 14.5714C22.202 13.5303 21.9354 12.5062 21.4264 11.5977C22.2901 11.7711 23.067 12.238 23.6251 12.919C24.1832 13.6 24.4881 14.4531 24.4879 15.3333C24.4881 15.8762 24.3722 16.4128 24.1479 16.9072C23.9236 17.4016 23.5962 17.8424 23.1875 18.2C22.7788 18.5577 22.2983 18.8239 21.7782 18.9808C21.2582 19.1378 20.7105 19.1819 20.172 19.1101Z" fill="white"/>
</svg>
