<?xml version="1.0" encoding="UTF-8"?>
<svg id="Layer_1" data-name="Layer 1" xmlns="http://www.w3.org/2000/svg" viewBox="0 0 1193.16 459.44">
  <defs>
    <style>
      .cls-1 {
        fill: #fff;
      }
    </style>
  </defs>
  <g>
    <path class="cls-1" d="M418.31,229.74c0,64.98-45.01,93.29-87.48,93.29-47.55,0-84.21-34.85-84.21-90.38,0-58.8,38.48-93.29,87.12-93.29s84.58,36.66,84.58,90.38Zm-139.39,1.81c0,38.48,22.14,67.52,53.36,67.52s53.36-28.68,53.36-68.24c0-29.77-14.88-67.52-52.63-67.52s-54.09,34.85-54.09,68.24Z"/>
    <path class="cls-1" d="M458.6,190.9c0-18.15-.36-33.03-1.45-47.55h28.31l1.82,29.04h.73c8.71-16.7,29.04-33.03,58.08-33.03,24.32,0,62.07,14.52,62.07,74.78v104.9h-31.94v-101.27c0-28.31-10.53-51.91-40.66-51.91-21.05,0-37.39,14.88-42.83,32.67-1.45,3.99-2.18,9.44-2.18,14.88v105.63h-31.94V190.9Z"/>
    <path class="cls-1" d="M819.04,229.74c0,64.98-45.01,93.29-87.48,93.29-47.55,0-84.21-34.85-84.21-90.38,0-58.8,38.48-93.29,87.12-93.29s84.58,36.66,84.58,90.38Zm-139.39,1.81c0,38.48,22.14,67.52,53.36,67.52s53.36-28.68,53.36-68.24c0-29.77-14.88-67.52-52.63-67.52s-54.09,34.85-54.09,68.24Z"/>
    <path class="cls-1" d="M890.91,223.94h.73c4.36-6.17,10.53-13.79,15.61-19.96l51.54-60.62h38.48l-67.88,72.24,77.32,103.45h-38.84l-60.62-84.21-16.33,18.15v66.06h-31.58V61.32h31.58V223.94Z"/>
    <path class="cls-1" d="M1178.03,271.12c0,18.15,.36,34.12,1.45,47.92h-28.31l-1.81-28.68h-.73c-8.35,14.16-26.86,32.67-58.08,32.67-27.59,0-60.62-15.25-60.62-76.95v-102.73h31.94v97.28c0,33.4,10.16,55.9,39.2,55.9,21.42,0,36.3-14.88,42.11-29.04,1.81-4.72,2.9-10.53,2.9-16.33v-107.81h31.94v127.77Z"/>
  </g>
  <g>
    <polygon class="cls-1" points="184.13 0 122.79 262.48 0 220.33 184.13 0"/>
    <polygon class="cls-1" points="199.68 288.87 76.68 459.44 122.79 262.48 199.68 288.87"/>
  </g>
</svg>