<svg width="19" height="15" viewBox="0 0 19 15" fill="none" xmlns="http://www.w3.org/2000/svg">
  <path d="M16.8355 0.000869163C16.2891 0.0167929 15.7704 0.244724 15.3891 0.636407C12.1065 3.92613 9.5758 6.68452 6.56826 9.76407L3.5111 7.17808C3.3017 6.98975 3.05662 6.84537 2.79039 6.7535C2.52416 6.66163 2.2422 6.62414 1.96121 6.64326C1.68022 6.66238 1.40594 6.73772 1.15461 6.86481C0.903275 6.9919 0.680015 7.16814 0.498061 7.38311C0.316107 7.59808 0.179162 7.84739 0.0953433 8.11626C0.0115244 8.38513 -0.0174624 8.66811 0.0101013 8.94839C0.037665 9.22868 0.121218 9.50058 0.255808 9.74797C0.390398 9.99537 0.573285 10.2132 0.79363 10.3886L5.35197 14.2457C5.75526 14.5869 6.27216 14.764 6.79998 14.7416C7.3278 14.7193 7.8279 14.4993 8.20093 14.1252C11.9846 10.3334 14.6728 7.31062 18.3695 3.60592C18.6715 3.30967 18.8771 2.9293 18.9596 2.51443C19.0421 2.09955 18.9976 1.66945 18.832 1.28023C18.6664 0.891003 18.3873 0.560723 18.0311 0.332506C17.675 0.10429 17.2583 -0.011286 16.8355 0.000869163Z" fill="white"/>
</svg>
