<svg width="19" height="17" viewBox="0 0 19 17" fill="none" xmlns="http://www.w3.org/2000/svg">
<path d="M18.9985 8.50058C18.9981 8.59801 18.9696 8.69328 18.9164 8.77489C18.8632 8.85651 18.7875 8.92099 18.6985 8.96058L0.69846 16.9606C0.635759 16.9891 0.567316 17.0028 0.49846 17.0006C0.426793 17.0001 0.355998 16.9848 0.290578 16.9555C0.225158 16.9263 0.166543 16.8837 0.11846 16.8306C0.0494664 16.7495 0.00833977 16.6484 0.00113841 16.5422C-0.00606295 16.436 0.0210418 16.3302 0.0784597 16.2406L4.21846 9.61058L10.4985 8.50058L4.21846 7.39058L0.0784597 0.760577C0.0210418 0.670924 -0.00606295 0.565199 0.00113841 0.458979C0.00833977 0.352759 0.0494664 0.25166 0.11846 0.170577C0.189417 0.0910021 0.283528 0.0356659 0.387563 0.0123476C0.491599 -0.0109706 0.600326 -0.00109835 0.69846 0.0405769L18.6985 8.04058C18.7875 8.08016 18.8632 8.14465 18.9164 8.22626C18.9696 8.30788 18.9981 8.40314 18.9985 8.50058Z" fill="white"/>
</svg>
